<?xml version="1.0" standalone="no"?>
<!DOCTYPE svg PUBLIC "-//W3C//DTD SVG 1.1//EN" "http://www.w3.org/Graphics/SVG/1.1/DTD/svg11.dtd" >
<svg xmlns="http://www.w3.org/2000/svg" xmlns:xlink="http://www.w3.org/1999/xlink" version="1.1">
<metadata>
Created by FontForge 20170731 at Tue Mar 27 11:14:20 2018
 By Aleksey,,,
Copyright (c) 2018 Monotype Imaging Inc. All rights reserved.
</metadata>
<defs>
<font id="NeuePlakText-Bold" horiz-adv-x="0" >
  <font-face 
    font-family="Neue Plak Text"
    font-weight="700"
    font-stretch="normal"
    units-per-em="1000"
    panose-1="2 11 8 4 3 2 2 2 2 4"
    ascent="800"
    descent="-200"
    x-height="496"
    cap-height="706"
    bbox="-786 -249 1100 1183"
    underline-thickness="50"
    underline-position="-200"
    unicode-range="U+000D-FEFF"
  />
<missing-glyph horiz-adv-x="699" 
d="M67 0v706h565v-706h-565zM218 127h263v452h-263v-452z" />
    <glyph glyph-name=".notdef" horiz-adv-x="699" 
d="M67 0v706h565v-706h-565zM218 127h263v452h-263v-452z" />
    <glyph glyph-name=".null" 
 />
    <glyph glyph-name="nonmarkingreturn" horiz-adv-x="333" 
 />
    <glyph glyph-name="NULL" 
 />
    <glyph glyph-name="NULL" 
 />
    <glyph glyph-name="CR" unicode="&#xd;" horiz-adv-x="184" 
 />
    <glyph glyph-name="space" unicode=" " horiz-adv-x="184" 
 />
    <glyph glyph-name="exclam" unicode="!" horiz-adv-x="313" 
d="M100 218l-20 488h153l-21 -488h-112zM156 -17q-39 0 -63.5 24.5t-24.5 62.5t24.5 62.5t63.5 24.5t64 -24.5t25 -62.5t-25 -62.5t-64 -24.5z" />
    <glyph glyph-name="quotedbl" unicode="&#x22;" horiz-adv-x="520" 
d="M106 424l-19 282h139l-18 -282h-102zM313 424l-18 282h138l-18 -282h-102z" />
    <glyph glyph-name="numbersign" unicode="#" horiz-adv-x="707" 
d="M677 425h-109l-24 -144h109l-20 -117h-108l-30 -181h-124l29 181h-143l-29 -181h-124l29 181h-107l20 117h106l24 144h-107l20 117h106l29 181h124l-29 -181h143l29 181h126l-30 -181h109zM419 281l24 144h-143l-24 -144h143z" />
    <glyph glyph-name="dollar" unicode="$" horiz-adv-x="626" 
d="M590 206q0 -96 -65 -155.5t-184 -66.5v-76h-63v76q-123 8 -183 71.5t-60 164.5h158q0 -106 89 -122v207q-30 8 -46 13q-94 29 -140 72t-46 123q0 87 60.5 144.5t168.5 64.5v76h62v-76q112 -7 168.5 -67t56.5 -158h-146q0 97 -83 114v-184q30 -8 46 -13
q106 -33 156.5 -77.5t50.5 -130.5zM193 532q0 -34 22.5 -54t66.5 -35v170q-41 -5 -65 -26t-24 -55zM337 96q48 4 73 28.5t25 62.5q0 39 -25 62t-73 39v-192z" />
    <glyph glyph-name="percent" unicode="%" horiz-adv-x="771" 
d="M184 393q-146 0 -146 161q0 73 35 116.5t111 43.5q145 0 145 -160q0 -161 -145 -161zM97 0l475 706h102l-476 -706h-101zM184 471q33 0 44 20.5t11 62.5q0 43 -11.5 62.5t-43.5 19.5q-34 0 -44.5 -20.5t-10.5 -61.5q0 -42 10.5 -62.5t44.5 -20.5zM588 -8q-146 0 -146 162
q0 73 35 116.5t111 43.5q145 0 145 -160q0 -162 -145 -162zM588 71q33 0 44 20.5t11 62.5q0 43 -11.5 62.5t-43.5 19.5q-34 0 -44.5 -20.5t-10.5 -61.5q0 -43 10.5 -63t44.5 -20z" />
    <glyph glyph-name="ampersand" unicode="&#x26;" horiz-adv-x="667" 
d="M634 122v-122q-98 0 -169 46q-76 -59 -191 -59q-116 0 -176 52.5t-60 135.5q0 69 41 120t113 96q-64 102 -64 172q0 74 50.5 117t153.5 43q93 0 147 -37t54 -113q0 -33 -13.5 -61t-43 -54.5t-53 -43t-65.5 -42.5l106 -151q26 46 58 121l104 -42q-38 -98 -77 -158
q39 -20 85 -20zM257 568q0 -44 44 -111q50 31 76.5 59.5t26.5 62.5q0 27 -17.5 43t-51.5 16q-37 0 -57.5 -18.5t-20.5 -51.5zM185 186q0 -41 29.5 -66t79.5 -25t90 28l-11 15l-119 165q-69 -59 -69 -117z" />
    <glyph glyph-name="quotesingle" unicode="'" horiz-adv-x="313" 
d="M106 424l-19 282h139l-18 -282h-102z" />
    <glyph glyph-name="parenleft" unicode="(" horiz-adv-x="416" 
d="M245 -201q-68 126 -102 248t-34 272q0 144 34 259.5t102 236.5h125q-139 -238 -139 -496q0 -273 139 -520h-125z" />
    <glyph glyph-name="parenright" unicode=")" horiz-adv-x="416" 
d="M171 -201h-125q139 247 139 520q0 258 -139 496h125q68 -121 102 -236.5t34 -259.5q0 -150 -34 -272t-102 -248z" />
    <glyph glyph-name="asterisk" unicode="*" horiz-adv-x="378" 
d="M135 396l-76 55l82 83l-115 19l29 90l105 -53l-18 116h94l-18 -116l104 53l30 -90l-116 -19l82 -83l-76 -55l-53 105z" />
    <glyph glyph-name="plus" unicode="+" horiz-adv-x="589" 
d="M533 346v-109h-183v-186h-112v186h-183v109h183v187h112v-187h183z" />
    <glyph glyph-name="comma" unicode="," horiz-adv-x="321" 
d="M49 -174l66 334h132l-97 -334h-101z" />
    <glyph glyph-name="hyphen" unicode="-" horiz-adv-x="404" 
d="M55 233v117h293v-117h-293z" />
    <glyph glyph-name="period" unicode="." horiz-adv-x="313" 
d="M156 -17q-39 0 -63.5 24.5t-24.5 62.5t24.5 62.5t63.5 24.5t64 -24.5t25 -62.5t-25 -62.5t-64 -24.5z" />
    <glyph glyph-name="slash" unicode="/" horiz-adv-x="498" 
d="M30 -50l302 773h136l-301 -773h-137z" />
    <glyph glyph-name="zero" unicode="0" horiz-adv-x="600" 
d="M300 -17q-272 0 -272 370t272 370t272 -370t-272 -370zM300 109q33 0 55.5 13.5t35 33t19 54.5t8 65t1.5 78q0 49 -1.5 79.5t-8 65.5t-19 54t-35 32t-55.5 13q-32 0 -54.5 -13t-35 -32.5t-19 -54.5t-8 -65.5t-1.5 -78.5q0 -49 1.5 -79.5t8 -65.5t19 -54t35 -32t54.5 -13z
" />
    <glyph glyph-name="one" unicode="1" horiz-adv-x="600" 
d="M259 0v575h-154l28 131h269v-706h-143z" />
    <glyph glyph-name="two" unicode="2" horiz-adv-x="600" 
d="M26 0v3l284 333q49 55 69 90.5t20 73.5q0 45 -26 72.5t-78 27.5q-112 0 -112 -140h-140q0 123 62 193t193 70q124 0 187.5 -61.5t63.5 -163.5q0 -53 -18.5 -95t-65.5 -93q-71 -78 -179 -184h271v-126h-531z" />
    <glyph glyph-name="three" unicode="3" horiz-adv-x="600" 
d="M426 372q135 -35 135 -175q0 -98 -63.5 -156t-193.5 -58q-145 0 -204.5 69t-59.5 204h137q0 -73 26.5 -113.5t93.5 -40.5q115 0 115 113q0 106 -140 106h-21v98h20q130 0 130 95q0 100 -103 100q-110 0 -110 -117h-137q0 109 65.5 167.5t189.5 58.5q118 0 178.5 -54.5
t60.5 -140.5q0 -117 -119 -156z" />
    <glyph glyph-name="four" unicode="4" horiz-adv-x="600" 
d="M587 275v-121h-88v-154h-143v154h-357v4l248 548h252v-431h88zM185 275h171v381h-1z" />
    <glyph glyph-name="five" unicode="5" horiz-adv-x="600" 
d="M301 -17q-143 0 -204.5 69.5t-61.5 193.5h140q0 -69 26.5 -107t91.5 -38q117 0 117 122q0 76 -49.5 111.5t-152.5 35.5q-78 0 -140 -15l58 351h406l-27 -124h-264l-22 -126q40 10 87 10q126 0 189.5 -66.5t63.5 -175.5t-64.5 -175t-193.5 -66z" />
    <glyph glyph-name="six" unicode="6" horiz-adv-x="600" 
d="M354 464q109 0 164.5 -63.5t55.5 -164.5q0 -113 -67.5 -183t-191.5 -70q-79 0 -135.5 28.5t-88 80.5t-46 114.5t-14.5 139.5q0 79 14 144t45.5 119t88.5 84t136 30q107 0 171 -53.5t78 -152.5h-138q-19 95 -110 95q-143 0 -143 -235v-3q55 90 181 90zM313 99
q58 0 86.5 37.5t28.5 93.5q0 58 -28.5 93.5t-85.5 35.5q-59 0 -88.5 -37.5t-29.5 -93.5t30 -92.5t87 -36.5z" />
    <glyph glyph-name="seven" unicode="7" horiz-adv-x="600" 
d="M114 0l256 575h-323v131h535l-306 -706h-162z" />
    <glyph glyph-name="eight" unicode="8" horiz-adv-x="600" 
d="M439 380q69 -17 103.5 -66.5t34.5 -115.5q0 -99 -71 -157t-206 -58q-136 0 -206 58.5t-70 156.5q0 68 35 116.5t104 65.5q-58 16 -90 59t-32 98q0 86 68 136t191 50t191 -49.5t68 -136.5q0 -58 -31 -99.5t-89 -57.5zM300 626q-57 0 -85.5 -27t-28.5 -73q0 -48 30 -75
t84 -27q56 0 85.5 28t29.5 74t-29 73t-86 27zM300 93q62 0 94 31t32 81t-32.5 82.5t-93.5 32.5t-93 -32t-32 -82q0 -53 31.5 -83t93.5 -30z" />
    <glyph glyph-name="nine" unicode="9" horiz-adv-x="600" 
d="M285 723q79 0 135.5 -28.5t88 -80.5t46 -114.5t14.5 -139.5q0 -79 -14 -144t-45.5 -119t-88.5 -84t-136 -30q-107 0 -171 53.5t-78 152.5h138q19 -95 110 -95q143 0 143 235v3q-55 -90 -181 -90q-109 0 -164.5 64t-55.5 165q0 112 67.5 182t191.5 70zM286 347
q59 0 88.5 37.5t29.5 93.5t-30 92.5t-87 36.5q-58 0 -86.5 -37.5t-28.5 -93.5q0 -58 28.5 -93.5t85.5 -35.5z" />
    <glyph glyph-name="colon" unicode=":" horiz-adv-x="313" 
d="M156 323q-39 0 -63.5 24.5t-24.5 62.5t24.5 62.5t63.5 24.5t64 -24.5t25 -62.5t-25 -62.5t-64 -24.5zM156 -17q-39 0 -63.5 24.5t-24.5 62.5t24.5 62.5t63.5 24.5t64 -24.5t25 -62.5t-25 -62.5t-64 -24.5z" />
    <glyph glyph-name="semicolon" unicode=";" horiz-adv-x="352" 
d="M195 323q-39 0 -63.5 24.5t-24.5 62.5t24.5 62.5t63.5 24.5t64 -24.5t25 -62.5t-25 -62.5t-64 -24.5zM49 -174l66 334h132l-97 -334h-101z" />
    <glyph glyph-name="less" unicode="&#x3c;" horiz-adv-x="589" 
d="M533 504v-112l-373 -101l373 -101v-112l-477 137v153z" />
    <glyph glyph-name="equal" unicode="=" horiz-adv-x="589" 
d="M55 337v108h478v-108h-478zM55 137v109h478v-109h-478z" />
    <glyph glyph-name="greater" unicode="&#x3e;" horiz-adv-x="589" 
d="M55 504l478 -136v-153l-478 -137v112l374 101l-374 101v112z" />
    <glyph glyph-name="question" unicode="?" horiz-adv-x="525" 
d="M177 218q104 171 133 227.5t29 93.5q0 75 -82 75q-50 0 -67.5 -25t-17.5 -72h-137q0 206 229 206q107 0 165.5 -47.5t58.5 -131.5q0 -46 -28 -103t-128 -223h-155zM250 -17q-39 0 -63.5 24.5t-24.5 62.5t24.5 62.5t63.5 24.5t64 -24.5t25 -62.5t-25 -62.5t-64 -24.5z" />
    <glyph glyph-name="at" unicode="@" horiz-adv-x="845" 
d="M429 687q183 0 277 -96.5t94 -253.5q0 -276 -248 -276h-55v54q-45 -58 -137 -58q-70 0 -106 35.5t-36 94.5q0 71 48.5 104.5t162.5 33.5h64v20q0 43 -13.5 60.5t-55.5 17.5q-38 0 -53 -16t-15 -46h-123q-2 71 48 109.5t146 38.5q107 0 146 -43.5t39 -134.5v-198
q64 13 91.5 68.5t27.5 131.5q0 134 -76.5 214t-228.5 80q-83 0 -144.5 -26t-97 -73t-52.5 -105.5t-17 -130.5q0 -159 81.5 -250.5t253.5 -91.5q40 0 83 5v-62q-39 -6 -85 -6q-205 0 -304.5 111t-99.5 290q0 83 22 153t66.5 126t120.5 88t176 32zM494 251v8h-56
q-49 0 -71 -13t-22 -44q0 -56 65 -56q52 0 68 25.5t16 79.5z" />
    <glyph glyph-name="A" unicode="A" horiz-adv-x="680" 
d="M523 0l-45 148h-275l-45 -148h-152l224 706h220l224 -706h-151zM237 261h207l-103 337h-2z" />
    <glyph glyph-name="B" unicode="B" horiz-adv-x="623" 
d="M450 376q139 -42 139 -179q0 -94 -59.5 -145.5t-176.5 -51.5h-273v706h275q104 0 157 -48.5t53 -126.5q0 -122 -115 -155zM227 603v-184h71q112 0 112 94q0 90 -115 90h-68zM295 104q135 0 135 102q0 107 -131 107h-72v-209h68z" />
    <glyph glyph-name="C" unicode="C" horiz-adv-x="716" 
d="M374 -17q-86 0 -151 29t-103.5 81t-57 117t-18.5 143t18.5 143t56.5 116.5t103 81t151 29.5q132 0 214.5 -75.5t86.5 -200.5h-154q-2 72 -42.5 111.5t-111.5 39.5q-49 0 -83.5 -19t-52 -55t-24.5 -76.5t-7 -93.5q0 -55 7 -96t25 -76.5t52 -54t84 -18.5q148 0 156 146h154
q-2 -123 -87.5 -197.5t-215.5 -74.5z" />
    <glyph glyph-name="D" unicode="D" horiz-adv-x="715" 
d="M80 0v706h262q88 0 153 -26.5t102.5 -75.5t55 -111.5t17.5 -139.5q0 -78 -18 -140.5t-55.5 -111t-102 -75t-152.5 -26.5h-262zM227 120h91q112 0 154.5 60.5t42.5 172.5t-43 172.5t-154 60.5h-91v-466z" />
    <glyph glyph-name="E" unicode="E" horiz-adv-x="563" 
d="M80 0v706h430v-120h-283v-167h280v-120h-280v-179h283v-120h-430z" />
    <glyph glyph-name="F" unicode="F" horiz-adv-x="533" 
d="M80 0v706h410v-120h-263v-167h261v-120h-261v-299h-147z" />
    <glyph glyph-name="G" unicode="G" horiz-adv-x="720" 
d="M377 381h299v-51q0 -73 -16.5 -133.5t-51 -109.5t-94.5 -76.5t-141 -27.5q-86 0 -151 29t-103 81t-56.5 117t-18.5 143q0 164 81.5 267t249.5 103q128 0 208 -70t87 -189h-146q-12 134 -152 134q-52 0 -87 -18.5t-53.5 -54.5t-25.5 -76.5t-7 -95.5q0 -119 38.5 -182
t139.5 -63q151 0 158 163h-158v110z" />
    <glyph glyph-name="H" unicode="H" horiz-adv-x="721" 
d="M80 0v706h147v-287h267v287h147v-706h-147v296h-267v-296h-147z" />
    <glyph glyph-name="I" unicode="I" horiz-adv-x="307" 
d="M80 0v706h147v-706h-147z" />
    <glyph glyph-name="J" unicode="J" horiz-adv-x="381" 
d="M83 -3q-34 0 -62 4v132q18 -3 41 -3q60 0 84 26.5t24 93.5v456h147v-476q0 -119 -55.5 -176t-178.5 -57z" />
    <glyph glyph-name="K" unicode="K" horiz-adv-x="664" 
d="M658 0h-180l-251 330v-330h-147v706h147v-269l217 269h172l-262 -317z" />
    <glyph glyph-name="L" unicode="L" horiz-adv-x="484" 
d="M80 0v706h147v-578h236v-128h-383z" />
    <glyph glyph-name="M" unicode="M" horiz-adv-x="888" 
d="M80 0v706h173l192 -469l193 469h170v-706h-138v474l-193 -474h-66l-193 474v-474h-138z" />
    <glyph glyph-name="N" unicode="N" horiz-adv-x="742" 
d="M80 0v706h146l294 -478v478h142v-706h-147l-293 479v-479h-142z" />
    <glyph glyph-name="O" unicode="O" horiz-adv-x="747" 
d="M374 -17q-87 0 -152.5 29.5t-103 82t-56 117t-18.5 141.5q0 78 18.5 143t57 116.5t103.5 81t151 29.5q87 0 152 -29.5t102.5 -81.5t56 -117t18.5 -142q0 -78 -18.5 -143.5t-56.5 -117t-103 -80.5t-151 -29zM374 108q174 0 174 245t-174 245q-42 0 -73.5 -13.5
t-50.5 -35.5t-31 -54.5t-16 -66.5t-4 -75q0 -53 7.5 -94t26 -76.5t54.5 -55t87 -19.5z" />
    <glyph glyph-name="P" unicode="P" horiz-adv-x="602" 
d="M80 0v706h273q228 0 228 -206q0 -102 -56 -158t-172 -56h-126v-286h-147zM227 397h84q62 0 90.5 24.5t28.5 75.5t-28.5 74.5t-90.5 23.5h-84v-198z" />
    <glyph glyph-name="Q" unicode="Q" horiz-adv-x="747" 
d="M703 353q0 -231 -143 -322l82 -123l-106 -66l-90 147q-33 -6 -72 -6q-87 0 -152.5 29.5t-103 82t-56 117t-18.5 141.5q0 78 18.5 143t57 116.5t103.5 81t151 29.5q87 0 152 -29.5t102.5 -81.5t56 -117t18.5 -142zM199 353q0 -72 13 -122.5t53.5 -86.5t107.5 -36l-35 57
l93 61l53 -80q64 56 64 207q0 245 -174 245q-42 0 -73.5 -13.5t-50.5 -35.5t-31 -54.5t-16 -66.5t-4 -75z" />
    <glyph glyph-name="R" unicode="R" horiz-adv-x="649" 
d="M475 0l-194 287h-54v-287h-147v706h279q230 0 230 -203q0 -175 -153 -208l202 -295h-163zM227 595v-202h90q65 0 93 26t28 80q0 51 -28.5 73.5t-92.5 22.5h-90z" />
    <glyph glyph-name="S" unicode="S" horiz-adv-x="619" 
d="M310 -17q-141 0 -209.5 65t-68.5 172h162q0 -59 26.5 -91.5t91.5 -32.5q57 0 86 25t29 67q0 47 -39.5 70t-153.5 59q-93 29 -139.5 73.5t-46.5 121.5q0 94 67 152.5t189 58.5q125 0 188.5 -61.5t63.5 -165.5h-153q0 118 -104 118q-49 0 -75.5 -22.5t-26.5 -59.5
q0 -16 4 -28t17 -22.5t23.5 -17t37.5 -16t43 -14.5t56 -17q110 -33 159.5 -77t49.5 -131q0 -106 -72 -166t-205 -60z" />
    <glyph glyph-name="T" unicode="T" horiz-adv-x="558" 
d="M206 0v586h-185v120h516v-120h-185v-586h-146z" />
    <glyph glyph-name="U" unicode="U" horiz-adv-x="677" 
d="M338 -17q-140 0 -207 64t-67 193v466h147v-456q0 -72 28.5 -106.5t98.5 -34.5q71 0 99.5 34.5t28.5 106.5v456h147v-466q0 -129 -67.5 -193t-207.5 -64z" />
    <glyph glyph-name="V" unicode="V" horiz-adv-x="665" 
d="M506 706h153l-253 -706h-146l-254 706h154l173 -526z" />
    <glyph glyph-name="W" unicode="W" horiz-adv-x="930" 
d="M780 706h144l-187 -706h-153l-118 506l-119 -506h-151l-190 706h144l123 -494l116 494h154l115 -493z" />
    <glyph glyph-name="X" unicode="X" horiz-adv-x="699" 
d="M6 0l255 379l-224 327h171l142 -219l144 219h170l-224 -330l253 -376h-172l-171 260l-171 -260h-173z" />
    <glyph glyph-name="Y" unicode="Y" horiz-adv-x="599" 
d="M226 0v303l-220 403h158l136 -260l136 260h157l-220 -403v-303h-147z" />
    <glyph glyph-name="Z" unicode="Z" horiz-adv-x="602" 
d="M22 0l311 583h-294v123h519l-309 -583h323v-123h-550z" />
    <glyph glyph-name="bracketleft" unicode="[" horiz-adv-x="390" 
d="M137 -201v1016h227v-106h-109v-804h109v-106h-227z" />
    <glyph glyph-name="backslash" unicode="\" horiz-adv-x="498" 
d="M468 -50h-137l-301 773h137z" />
    <glyph glyph-name="bracketright" unicode="]" horiz-adv-x="390" 
d="M253 -201h-227v106h109v804h-109v106h227v-1016z" />
    <glyph glyph-name="asciicircum" unicode="^" horiz-adv-x="516" 
d="M478 375h-137l-83 223l-83 -223h-137l130 331h179z" />
    <glyph glyph-name="underscore" unicode="_" horiz-adv-x="389" 
d="M0 -185v117h389v-117h-389z" />
    <glyph glyph-name="grave" unicode="`" horiz-adv-x="326" 
d="M276 571h-123l-103 156h137z" />
    <glyph glyph-name="a" unicode="a" horiz-adv-x="568" 
d="M279 509q125 0 176 -54.5t51 -164.5v-290h-140v59q-50 -72 -158 -72q-86 0 -130 41t-44 112q0 88 63 124t188 36h81v11q0 52 -18 76t-67 24q-87 0 -87 -73h-142q0 82 58.5 126.5t168.5 44.5zM261 91q59 0 82 32t23 89v4h-71q-59 0 -86 -14t-27 -49q0 -62 79 -62z" />
    <glyph glyph-name="b" unicode="b" horiz-adv-x="598" 
d="M351 509q72 0 121 -37.5t69 -94.5t20 -130q0 -113 -52 -186t-158 -73q-100 0 -150 76v-64h-134v706h137v-269q50 72 147 72zM307 104q61 0 84.5 38.5t23.5 104.5q0 146 -108 146q-51 0 -77.5 -33.5t-26.5 -95.5v-32q0 -128 104 -128z" />
    <glyph glyph-name="c" unicode="c" horiz-adv-x="560" 
d="M285 -12q-123 0 -185.5 72.5t-62.5 186.5q0 116 63 189t185 73q104 0 169 -53t69 -147h-151q-2 40 -25 62t-62 22q-102 0 -102 -146q0 -143 102 -143q40 0 62.5 23.5t24.5 60.5h151q-4 -95 -69.5 -147.5t-168.5 -52.5z" />
    <glyph glyph-name="d" unicode="d" horiz-adv-x="598" 
d="M394 706h137v-706h-134v64q-50 -76 -150 -76q-106 0 -158 73t-52 186q0 73 20 130t69 94.5t121 37.5q97 0 147 -71v268zM395 232v32q0 129 -103 129q-109 0 -109 -146q0 -143 109 -143q103 0 103 128z" />
    <glyph glyph-name="e" unicode="e" horiz-adv-x="573" 
d="M292 93q78 0 96 60h142q-12 -78 -76.5 -121.5t-158.5 -43.5q-130 0 -194 71.5t-64 189.5q0 115 62.5 187.5t185.5 72.5q82 0 140.5 -34t84.5 -96q25 -56 25 -164h-355q3 -60 27.5 -91t84.5 -31zM287 407q-92 0 -105 -106h209q-6 52 -30 79t-74 27z" />
    <glyph glyph-name="f" unicode="f" horiz-adv-x="348" 
d="M80 0v386h-62v110h62v56q0 89 42 129t138 40q37 0 70 -7v-112q-20 6 -45 6q-68 0 -68 -70v-42h110v-110h-110v-386h-137z" />
    <glyph glyph-name="g" unicode="g" horiz-adv-x="598" 
d="M397 496h134v-476q0 -234 -242 -234q-101 0 -165 40t-75 118h146q12 -54 92 -54q110 0 110 114v70q-51 -81 -156 -81q-103 0 -153.5 73.5t-50.5 185.5q0 113 50.5 185t153.5 72q105 0 156 -81v68zM395 232v33q0 128 -106 128t-106 -142q0 -146 107 -146q105 0 105 127z
" />
    <glyph glyph-name="h" unicode="h" horiz-adv-x="583" 
d="M352 509q81 0 124.5 -48.5t43.5 -140.5v-320h-138v290q0 54 -20.5 78.5t-64.5 24.5q-93 0 -93 -106v-287h-137v706h137v-273q49 76 148 76z" />
    <glyph glyph-name="i" unicode="i" horiz-adv-x="271" 
d="M136 576q-34 0 -56 21.5t-22 53.5t22 54t56 22q33 0 55.5 -22t22.5 -54t-22.5 -53.5t-55.5 -21.5zM67 0v496h137v-496h-137z" />
    <glyph glyph-name="j" unicode="j" horiz-adv-x="271" 
d="M136 576q-34 0 -56 21.5t-22 53.5t22 54t56 22q32 0 55 -22t23 -54q0 -31 -23 -53t-55 -22zM45 -204q-43 0 -62 3v120q12 -2 32 -2q27 0 39.5 13t12.5 42v524h137v-540q0 -85 -37.5 -122.5t-121.5 -37.5z" />
    <glyph glyph-name="k" unicode="k" horiz-adv-x="535" 
d="M547 0h-178l-165 219v-219h-137v706h137v-382l147 172h173l-199 -223z" />
    <glyph glyph-name="l" unicode="l" horiz-adv-x="271" 
d="M67 0v706h137v-706h-137z" />
    <glyph glyph-name="m" unicode="m" horiz-adv-x="878" 
d="M653 509q162 0 162 -192v-317h-138v288q0 105 -80 105q-87 0 -87 -108v-285h-138v288q0 105 -81 105q-87 0 -87 -108v-285h-137v496h137v-60q49 73 147 73q113 0 145 -86q50 86 157 86z" />
    <glyph glyph-name="n" unicode="n" horiz-adv-x="583" 
d="M352 509q81 0 124.5 -48.5t43.5 -140.5v-320h-138v290q0 54 -20.5 78.5t-64.5 24.5q-93 0 -93 -106v-287h-137v496h137v-63q49 76 148 76z" />
    <glyph glyph-name="o" unicode="o" horiz-adv-x="577" 
d="M289 -13q-125 0 -188.5 74.5t-63.5 187.5q0 114 64 187t188 73q126 0 188.5 -73.5t62.5 -186.5q0 -115 -63 -188.5t-188 -73.5zM289 104q61 0 83 39t22 106q0 68 -22.5 106t-82.5 38t-83 -38.5t-23 -105.5q0 -69 23.5 -107t82.5 -38z" />
    <glyph glyph-name="p" unicode="p" horiz-adv-x="598" 
d="M351 509q106 0 158 -74t52 -186q0 -113 -52 -187t-158 -74q-98 0 -147 71v-259h-137v696h134v-63q48 76 150 76zM307 105q108 0 108 144t-108 144q-51 0 -77.5 -33.5t-26.5 -95.5v-30q0 -63 26.5 -96t77.5 -33z" />
    <glyph glyph-name="q" unicode="q" horiz-adv-x="598" 
d="M397 496h134v-696h-137v259q-49 -71 -147 -71q-106 0 -158 74t-52 187q0 112 52 186t158 74q102 0 150 -76v63zM292 105q103 0 103 129v30q0 129 -103 129q-109 0 -109 -144t109 -144z" />
    <glyph glyph-name="r" unicode="r" horiz-adv-x="390" 
d="M326 503q28 0 49 -6v-122q-20 5 -47 5q-61 0 -92.5 -38.5t-31.5 -111.5v-230h-137v496h136v-65q40 72 123 72z" />
    <glyph glyph-name="s" unicode="s" horiz-adv-x="495" 
d="M248 -16q-108 0 -160.5 48t-52.5 131h136q0 -82 76 -82q67 0 67 53q0 30 -25 44t-80 29q-78 22 -117 55t-39 96q0 72 50 111.5t143 39.5q96 0 145 -41.5t49 -116.5h-132q0 70 -64 70q-29 0 -44 -12.5t-15 -31.5q0 -28 23.5 -41.5t87.5 -31.5q86 -25 125 -58t39 -98
q0 -80 -56 -122t-156 -42z" />
    <glyph glyph-name="t" unicode="t" horiz-adv-x="368" 
d="M238 -9q-83 0 -120 37.5t-37 125.5v232h-67v110h67v117h138v-117h119v-110h-119v-210q0 -38 15.5 -55t49.5 -17q20 0 52 7v-109q-47 -11 -98 -11z" />
    <glyph glyph-name="u" unicode="u" horiz-adv-x="583" 
d="M379 496h137v-496h-137v63q-49 -76 -148 -76q-81 0 -124.5 48.5t-43.5 140.5v320h138v-290q0 -54 20.5 -78.5t64.5 -24.5q93 0 93 106v287z" />
    <glyph glyph-name="v" unicode="v" horiz-adv-x="541" 
d="M191 0l-178 496h150l108 -336l108 336h150l-178 -496h-160z" />
    <glyph glyph-name="w" unicode="w" horiz-adv-x="808" 
d="M647 496h149l-172 -496h-132l-88 314l-88 -314h-133l-170 496h147l90 -318l95 318h116l95 -316z" />
    <glyph glyph-name="x" unicode="x" horiz-adv-x="566" 
d="M11 0l188 255l-183 241h165l102 -150l103 150h163l-181 -241l187 -255h-161l-111 160l-111 -160h-161z" />
    <glyph glyph-name="y" unicode="y" horiz-adv-x="546" 
d="M385 496h148l-275 -696h-140l80 201l-185 495h151l109 -345z" />
    <glyph glyph-name="z" unicode="z" horiz-adv-x="474" 
d="M464 496l-236 -385h228v-111h-447l245 386h-222v110h432z" />
    <glyph glyph-name="braceleft" unicode="{" horiz-adv-x="389" 
d="M256 435q0 -60 -20.5 -88.5t-68.5 -35.5q48 -7 68.5 -35.5t20.5 -87.5v-197q0 -49 19.5 -70.5t73.5 -21.5h14v-100h-61q-78 0 -118 44.5t-40 119.5v198q1 53 -19 72.5t-75 19.5v115q55 0 75 20t19 72v191q0 75 40 119.5t118 44.5h61v-100h-14q-54 0 -73.5 -21.5
t-19.5 -70.5v-188z" />
    <glyph glyph-name="bar" unicode="|" horiz-adv-x="433" 
d="M145 -201v957h143v-957h-143z" />
    <glyph glyph-name="braceright" unicode="}" horiz-adv-x="389" 
d="M245 460q0 -52 19.5 -72t74.5 -20v-115q-54 0 -74 -19.5t-20 -72.5v-198q0 -75 -40 -119.5t-118 -44.5h-61v100h14q54 0 73.5 21.5t19.5 70.5v197q0 59 21 87.5t68 35.5q-47 7 -68 35.5t-21 88.5v188q0 49 -19.5 70.5t-73.5 21.5h-14v100h61q78 0 118 -44.5t40 -119.5
v-191z" />
    <glyph glyph-name="asciitilde" unicode="~" horiz-adv-x="589" 
d="M394 187q-21 0 -42.5 8.5t-33 15.5t-32.5 23q-45 36 -69 36q-41 0 -48 -81h-101q5 103 36.5 155t95.5 52q21 0 43 -9t32 -15.5t33 -23.5q44 -37 67 -37q44 0 49 82h101q-6 -102 -37 -154t-94 -52z" />
    <glyph glyph-name="uni00A0" unicode="&#xa0;" horiz-adv-x="184" 
 />
    <glyph glyph-name="exclamdown" unicode="&#xa1;" horiz-adv-x="313" 
d="M156 523q39 0 64 -24.5t25 -62.5t-25 -62.5t-64 -24.5t-63.5 24.5t-24.5 62.5t24.5 62.5t63.5 24.5zM100 288h112l21 -488h-153z" />
    <glyph glyph-name="cent" unicode="&#xa2;" horiz-adv-x="558" 
d="M312 208q65 15 67 85h141q-4 -87 -60.5 -138.5t-145.5 -59.5v-95h-62v95q-108 11 -161.5 82t-53.5 177t54 177t161 81v94h62v-93q91 -8 147 -60t60 -138h-142q-5 71 -67 85v-292zM179 354q0 -127 76 -146v292q-76 -19 -76 -146z" />
    <glyph glyph-name="sterling" unicode="&#xa3;" horiz-adv-x="644" 
d="M470 258h135q-1 -129 -55 -193.5t-189 -64.5h-325v108h74v213h-74v73h74v59q0 136 56.5 203t196.5 67q132 0 186.5 -66t54.5 -193h-136q-1 73 -23 109t-82 36q-62 0 -84.5 -38t-22.5 -112v-65h170v-73h-170v-213h74q80 0 110 36.5t30 113.5z" />
    <glyph glyph-name="currency" unicode="&#xa4;" horiz-adv-x="580" 
d="M524 353q0 -100 -61 -164l85 -109h-104l-49 62q-46 -20 -105 -20q-60 0 -106 20l-49 -62h-103l85 108q-61 64 -61 165t61 165l-85 107h104l48 -61q48 20 106 20q60 0 106 -20l48 61h104l-85 -107q61 -65 61 -165zM168 353q0 -57 31.5 -92t90.5 -35q60 0 91 35.5t31 91.5
q0 58 -31.5 93t-90.5 35q-61 0 -91.5 -35.5t-30.5 -92.5z" />
    <glyph glyph-name="yen" unicode="&#xa5;" horiz-adv-x="603" 
d="M596 706l-211 -361h159v-67h-167v-72h167v-67h-167v-139h-149v139h-169v67h169v72h-169v67h161l-213 361h161l136 -249l138 249h154z" />
    <glyph glyph-name="brokenbar" unicode="&#xa6;" horiz-adv-x="433" 
d="M145 428v328h143v-328h-143zM145 -201v329h143v-329h-143z" />
    <glyph glyph-name="section" unicode="&#xa7;" horiz-adv-x="523" 
d="M372 113q52 -26 79.5 -62t27.5 -94q0 -83 -56.5 -127t-161.5 -44q-217 0 -217 178h137q0 -82 80 -82q77 0 77 67q0 18 -6.5 33t-15 24.5t-27 19.5t-31 15.5t-39.5 15.5q-91 35 -133 74t-42 114q0 57 32.5 96t93.5 56q-56 30 -86 65.5t-30 93.5q0 79 55.5 123t154.5 44
q101 0 154 -44t53 -126h-133q0 75 -77 75q-74 0 -74 -62q0 -21 8.5 -36.5t30 -28.5t34.5 -19t45 -18q96 -39 135.5 -79t39.5 -120q0 -114 -108 -152zM262 331q-45 0 -69 -20.5t-24 -55.5q0 -36 25 -57.5t69 -21.5t67.5 21t23.5 57q0 38 -24.5 57.5t-67.5 19.5z" />
    <glyph glyph-name="dieresis" unicode="&#xa8;" horiz-adv-x="452" 
d="M125 573q-32 0 -53.5 20.5t-21.5 51.5t21.5 51.5t53.5 20.5t53 -20.5t21 -51.5t-21 -51.5t-53 -20.5zM329 573q-32 0 -53.5 20.5t-21.5 51.5t21.5 51.5t53.5 20.5q31 0 52.5 -20.5t21.5 -51.5t-21.5 -51.5t-52.5 -20.5z" />
    <glyph glyph-name="copyright" unicode="&#xa9;" horiz-adv-x="808" 
d="M405 -17q-172 0 -266.5 106.5t-94.5 263.5q0 158 96 264t266 106q168 0 263 -105.5t95 -264.5q0 -158 -95 -264t-264 -106zM405 43q95 0 162.5 43.5t98.5 112t31 152.5q0 138 -75 225t-216 87q-143 0 -219.5 -87.5t-76.5 -221.5q0 -133 77 -222t218 -89zM409 109
q-144 0 -200 119q-23 52 -23 126t23 126q26 57 77.5 87.5t120.5 30.5q91 0 148 -52q59 -53 59 -136h-122q-3 33 -20 55q-23 29 -68 29q-60 0 -81 -50q-14 -31 -14 -89q0 -60 14 -88q23 -51 82 -51q47 0 69 32q18 23 19 51h123q0 -87 -59 -138q-57 -52 -148 -52z" />
    <glyph glyph-name="ordfeminine" unicode="&#xaa;" horiz-adv-x="406" 
d="M199 717q89 0 126 -38.5t37 -116.5v-202h-109v41q-38 -50 -111 -50q-58 0 -88 28.5t-30 77.5q0 61 44.5 88t132.5 27h52v2q0 37 -11 52.5t-44 15.5q-51 0 -51 -46h-111q0 121 163 121zM188 430q38 0 51.5 19.5t13.5 55.5v7h-44q-38 0 -54 -9t-16 -32q0 -41 49 -41z" />
    <glyph glyph-name="guillemotleft" unicode="&#xab;" horiz-adv-x="570" 
d="M166 123l-145 164l145 164h143l-145 -164l145 -164h-143zM408 123l-145 164l145 164h143l-145 -164l145 -164h-143z" />
    <glyph glyph-name="logicalnot" unicode="&#xac;" horiz-adv-x="589" 
d="M422 51v277h-367v108h478v-385h-111z" />
    <glyph glyph-name="uni00AD" unicode="&#xad;" horiz-adv-x="404" 
d="M55 233v117h293v-117h-293z" />
    <glyph glyph-name="registered" unicode="&#xae;" horiz-adv-x="489" 
d="M245 720q102 0 154.5 -58t52.5 -150q0 -93 -53 -150.5t-154 -57.5q-102 0 -155 58.5t-53 149.5q0 92 53.5 150t154.5 58zM245 349q81 0 118.5 44t37.5 119q0 163 -156 163q-83 0 -120 -44.5t-37 -118.5t38 -118.5t119 -44.5zM345 559q0 -45 -34 -58q31 -13 31 -53v-51
h-66v47q0 18 -7.5 25.5t-27.5 7.5h-28v-80h-66v230h111q87 0 87 -68zM213 526h30q36 0 36 27q0 26 -36 26h-30v-53z" />
    <glyph glyph-name="macron" unicode="&#xaf;" horiz-adv-x="399" 
d="M50 599v89h299v-89h-299z" />
    <glyph glyph-name="degree" unicode="&#xb0;" horiz-adv-x="359" 
d="M185 428q-69 0 -113 41.5t-44 105.5q0 65 43.5 106.5t113.5 41.5t114.5 -41.5t44.5 -106.5q0 -64 -44.5 -105.5t-114.5 -41.5zM186 516q27 0 43.5 16t16.5 43q0 28 -16.5 45t-43.5 17t-43.5 -17t-16.5 -45q0 -27 16.5 -43t43.5 -16z" />
    <glyph glyph-name="plusminus" unicode="&#xb1;" horiz-adv-x="589" 
d="M350 420h183v-109h-183v-135h-112v135h-183v109h183v132h112v-132zM55 31v109h478v-109h-478z" />
    <glyph glyph-name="uni00B2" unicode="&#xb2;" horiz-adv-x="379" 
d="M17 438v5l176 186q28 30 38 46t10 33q0 44 -50 44q-56 0 -56 -58h-106q0 66 40.5 104.5t121.5 38.5q77 0 117 -33.5t40 -93.5q0 -52 -44 -96q-32 -32 -90 -80h137v-96h-334z" />
    <glyph glyph-name="uni00B3" unicode="&#xb3;" horiz-adv-x="374" 
d="M273 641q74 -20 74 -95q0 -57 -43 -88t-122 -31q-87 0 -124.5 40t-37.5 116l97 -1q0 -71 62 -71q57 0 57 48q0 44 -67 44h-12v68h12q62 0 62 42q0 40 -50 40q-56 0 -56 -54h-98q0 66 42 102t120 36q70 0 109.5 -31t39.5 -82q0 -59 -65 -83z" />
    <glyph glyph-name="acute" unicode="&#xb4;" horiz-adv-x="326" 
d="M50 571l90 156h136l-103 -156h-123z" />
    <glyph glyph-name="uni00B5" unicode="&#xb5;" horiz-adv-x="586" 
d="M384 496h135v-496h-133v67q-43 -80 -136 -80q-32 0 -57 11q8 -62 8 -122v-78h-134v698h134v-287q0 -57 21 -82.5t66 -25.5q96 0 96 109v286z" />
    <glyph glyph-name="paragraph" unicode="&#xb6;" horiz-adv-x="718" 
d="M299 -201v479h-60q-117 0 -167 56.5t-50 158.5q0 104 51.5 158.5t173.5 54.5h450v-114h-66v-793h-122v793h-89v-793h-121z" />
    <glyph glyph-name="periodcentered" unicode="&#xb7;" horiz-adv-x="313" 
d="M156 211q-39 0 -63.5 24t-24.5 62t24.5 62.5t63.5 24.5t64 -24.5t25 -62.5t-25 -62t-64 -24z" />
    <glyph glyph-name="cedilla" unicode="&#xb8;" horiz-adv-x="339" 
d="M191 -39q46 0 72 -25t26 -65q0 -101 -144 -101q-52 0 -95 16l14 67q32 -13 70 -13q58 0 58 34t-60 34h-56l24 97h94l-12 -44h9z" />
    <glyph glyph-name="uni00B9" unicode="&#xb9;" horiz-adv-x="283" 
d="M95 438v290h-72l17 98h166v-388h-111z" />
    <glyph glyph-name="ordmasculine" unicode="&#xba;" horiz-adv-x="411" 
d="M205 351q-90 0 -135 51.5t-45 131.5q0 81 45.5 132t134.5 51q90 0 135 -51t45 -132q0 -80 -45 -131.5t-135 -51.5zM205 443q38 0 51 23.5t13 67.5t-13 68t-51 24q-37 0 -50.5 -24.5t-13.5 -67.5t13.5 -67t50.5 -24z" />
    <glyph glyph-name="guillemotright" unicode="&#xbb;" horiz-adv-x="570" 
d="M161 123h-143l146 164l-146 164h143l145 -164zM403 123h-143l146 164l-146 164h143l145 -164z" />
    <glyph glyph-name="onequarter" unicode="&#xbc;" horiz-adv-x="872" 
d="M95 318v290h-72l17 98h166v-388h-111zM138 0l417 706h91l-417 -706h-91zM695 0v75h-235v2l151 311h188v-223h59v-90h-59v-75h-104zM608 165h87v188z" />
    <glyph glyph-name="onehalf" unicode="&#xbd;" horiz-adv-x="862" 
d="M95 318v290h-72l17 98h166v-388h-111zM138 0l417 706h91l-417 -706h-91zM500 0v5l176 186q28 30 38 46t10 33q0 44 -50 44q-56 0 -56 -58h-106q0 66 40.5 104.5t121.5 38.5q77 0 117 -33.5t40 -93.5q0 -52 -44 -96q-32 -32 -90 -80h137v-96h-334z" />
    <glyph glyph-name="threequarters" unicode="&#xbe;" horiz-adv-x="954" 
d="M347 426q0 -57 -43 -88t-122 -31q-87 0 -124.5 40t-37.5 116l97 -1q0 -71 62 -71q57 0 57 48q0 44 -67 44h-12v68h12q62 0 62 42q0 40 -50 40q-56 0 -56 -54h-98q0 66 42 102t120 36q70 0 109.5 -31t39.5 -82q0 -59 -65 -83q74 -20 74 -95zM637 706h91l-417 -706h-91z
M881 165h59v-90h-59v-75h-104v75h-235v2l151 311h188v-223zM777 165v188l-87 -188h87z" />
    <glyph glyph-name="questiondown" unicode="&#xbf;" horiz-adv-x="525" 
d="M275 527q39 0 64 -24.5t25 -62.5t-25 -62.5t-64 -24.5t-63.5 24.5t-24.5 62.5t24.5 62.5t63.5 24.5zM348 292q-104 -171 -133 -227.5t-29 -93.5q0 -75 82 -75q51 0 68.5 25t17.5 72h136q0 -206 -228 -206q-107 0 -165.5 47t-58.5 132q0 46 28 104t127 222h155z" />
    <glyph glyph-name="Agrave" unicode="&#xc0;" horiz-adv-x="680" 
d="M430 774h-131l-113 137h143zM523 0l-45 148h-275l-45 -148h-152l224 706h220l224 -706h-151zM237 261h207l-103 337h-2z" />
    <glyph glyph-name="Aacute" unicode="&#xc1;" horiz-adv-x="680" 
d="M495 911l-114 -137h-130l100 137h144zM523 0l-45 148h-275l-45 -148h-152l224 706h220l224 -706h-151zM237 261h207l-103 337h-2z" />
    <glyph glyph-name="Acircumflex" unicode="&#xc2;" horiz-adv-x="680" 
d="M339 849l-60 -75h-126l108 137h158l107 -137h-126zM523 0l-45 148h-275l-45 -148h-152l224 706h220l224 -706h-151zM237 261h207l-103 337h-2z" />
    <glyph glyph-name="Atilde" unicode="&#xc3;" horiz-adv-x="680" 
d="M269 826q-36 0 -43 -55h-75q6 142 107 142q43 0 89 -32q33 -24 59 -24q20 0 29.5 13.5t15.5 41.5h77q-5 -142 -104 -142q-40 0 -86 28q-49 28 -69 28zM523 0l-45 148h-275l-45 -148h-152l224 706h220l224 -706h-151zM237 261h207l-103 337h-2z" />
    <glyph glyph-name="Adieresis" unicode="&#xc4;" horiz-adv-x="680" 
d="M232 777q-31 0 -52 20t-21 49q0 31 20.5 51t52.5 20q30 0 51 -20.5t21 -50.5q0 -29 -21 -49t-51 -20zM449 777q-31 0 -51.5 20t-20.5 49q0 31 20.5 51t51.5 20t52 -20t21 -51q0 -29 -21 -49t-52 -20zM523 0l-45 148h-275l-45 -148h-152l224 706h220l224 -706h-151z
M237 261h207l-103 337h-2z" />
    <glyph glyph-name="Aring" unicode="&#xc5;" horiz-adv-x="680" 
d="M339 740q-58 0 -93.5 33t-35.5 86q0 54 35 86.5t94 32.5t94.5 -33t35.5 -86t-36 -86t-94 -33zM339 910q-23 0 -37 -14t-14 -37t14 -36.5t37 -13.5q24 0 38 13.5t14 36.5t-14 37t-38 14zM523 0l-45 148h-275l-45 -148h-152l224 706h220l224 -706h-151zM237 261h207
l-103 337h-2z" />
    <glyph glyph-name="AE" unicode="&#xc6;" horiz-adv-x="830" 
d="M776 586h-264l20 -168h241v-119h-227l22 -179h208v-120h-343l-16 150h-205l-53 -150h-153l264 706h506v-120zM252 262h153l-35 329h-2z" />
    <glyph glyph-name="Ccedilla" unicode="&#xc7;" horiz-adv-x="716" 
d="M677 255q-2 -114 -76 -186.5t-190 -83.5l-7 -24h9q46 0 72 -25t26 -65q0 -101 -144 -101q-52 0 -95 16l14 67q32 -13 70 -13q58 0 58 34t-60 34h-56l19 78q-139 19 -206 119t-67 248q0 78 18.5 143t56.5 116.5t103 81t151 29.5q132 0 214.5 -75.5t86.5 -200.5h-154
q-2 72 -42.5 111.5t-111.5 39.5q-49 0 -83.5 -19t-52 -55t-24.5 -76.5t-7 -93.5q0 -55 7 -96t25 -76.5t52 -54t84 -18.5q148 0 156 146h154z" />
    <glyph glyph-name="Egrave" unicode="&#xc8;" horiz-adv-x="563" 
d="M387 774h-131l-113 137h143zM80 0v706h430v-120h-283v-167h280v-120h-280v-179h283v-120h-430z" />
    <glyph glyph-name="Eacute" unicode="&#xc9;" horiz-adv-x="563" 
d="M208 774l100 137h144l-114 -137h-130zM80 0v706h430v-120h-283v-167h280v-120h-280v-179h283v-120h-430z" />
    <glyph glyph-name="Ecircumflex" unicode="&#xca;" horiz-adv-x="563" 
d="M110 774l108 137h158l107 -137h-126l-61 75l-60 -75h-126zM80 0v706h430v-120h-283v-167h280v-120h-280v-179h283v-120h-430z" />
    <glyph glyph-name="Edieresis" unicode="&#xcb;" horiz-adv-x="563" 
d="M189 777q-31 0 -52 20t-21 49q0 31 20.5 51t52.5 20q30 0 51 -20.5t21 -50.5q0 -29 -21 -49t-51 -20zM406 777q-31 0 -51.5 20t-20.5 49q0 31 20.5 51t51.5 20t52 -20t21 -51q0 -29 -21 -49t-52 -20zM80 0v706h430v-120h-283v-167h280v-120h-280v-179h283v-120h-430z" />
    <glyph glyph-name="Igrave" unicode="&#xcc;" horiz-adv-x="307" 
d="M243 774h-131l-113 137h143zM80 0v706h147v-706h-147z" />
    <glyph glyph-name="Iacute" unicode="&#xcd;" horiz-adv-x="307" 
d="M65 774l100 137h144l-114 -137h-130zM80 0v706h147v-706h-147z" />
    <glyph glyph-name="Icircumflex" unicode="&#xce;" horiz-adv-x="307" 
d="M-7 774l83 137h154l85 -137h-116l-45 75l-45 -75h-116zM80 0v706h147v-706h-147z" />
    <glyph glyph-name="Idieresis" unicode="&#xcf;" horiz-adv-x="307" 
d="M71 776q-29 0 -48.5 19.5t-19.5 48.5q0 30 19.5 49.5t48.5 19.5t48.5 -19.5t19.5 -49.5q0 -29 -19.5 -48.5t-48.5 -19.5zM237 776q-29 0 -48 19t-19 48q0 30 19 50t48 20t49 -20t20 -50q0 -28 -20 -47.5t-49 -19.5zM80 0v706h147v-706h-147z" />
    <glyph glyph-name="Eth" unicode="&#xd0;" horiz-adv-x="715" 
d="M342 706q88 0 153 -26.5t102.5 -75.5t55 -111.5t17.5 -139.5q0 -78 -18 -140.5t-55.5 -111t-102 -75t-152.5 -26.5h-262v311h-56v94h56v301h262zM318 120q112 0 154.5 60.5t42.5 172.5t-43 172.5t-154 60.5h-91v-181h151v-94h-151v-191h91z" />
    <glyph glyph-name="Ntilde" unicode="&#xd1;" horiz-adv-x="742" 
d="M456 770q-40 0 -86 28q-49 28 -69 28q-36 0 -43 -55h-75q6 142 107 142q43 0 89 -32q33 -24 59 -24q20 0 29.5 13.5t15.5 41.5h77q-5 -142 -104 -142zM80 0v706h146l294 -478v478h142v-706h-147l-293 479v-479h-142z" />
    <glyph glyph-name="Ograve" unicode="&#xd2;" horiz-adv-x="747" 
d="M463 774h-131l-113 137h143zM374 -17q-87 0 -152.5 29.5t-103 82t-56 117t-18.5 141.5q0 78 18.5 143t57 116.5t103.5 81t151 29.5q87 0 152 -29.5t102.5 -81.5t56 -117t18.5 -142q0 -78 -18.5 -143.5t-56.5 -117t-103 -80.5t-151 -29zM374 108q174 0 174 245t-174 245
q-42 0 -73.5 -13.5t-50.5 -35.5t-31 -54.5t-16 -66.5t-4 -75q0 -53 7.5 -94t26 -76.5t54.5 -55t87 -19.5z" />
    <glyph glyph-name="Oacute" unicode="&#xd3;" horiz-adv-x="747" 
d="M285 774l100 137h144l-114 -137h-130zM374 -17q-87 0 -152.5 29.5t-103 82t-56 117t-18.5 141.5q0 78 18.5 143t57 116.5t103.5 81t151 29.5q87 0 152 -29.5t102.5 -81.5t56 -117t18.5 -142q0 -78 -18.5 -143.5t-56.5 -117t-103 -80.5t-151 -29zM374 108q174 0 174 245
t-174 245q-42 0 -73.5 -13.5t-50.5 -35.5t-31 -54.5t-16 -66.5t-4 -75q0 -53 7.5 -94t26 -76.5t54.5 -55t87 -19.5z" />
    <glyph glyph-name="Ocircumflex" unicode="&#xd4;" horiz-adv-x="747" 
d="M187 774l108 137h158l107 -137h-126l-61 75l-60 -75h-126zM374 -17q-87 0 -152.5 29.5t-103 82t-56 117t-18.5 141.5q0 78 18.5 143t57 116.5t103.5 81t151 29.5q87 0 152 -29.5t102.5 -81.5t56 -117t18.5 -142q0 -78 -18.5 -143.5t-56.5 -117t-103 -80.5t-151 -29z
M374 108q174 0 174 245t-174 245q-42 0 -73.5 -13.5t-50.5 -35.5t-31 -54.5t-16 -66.5t-4 -75q0 -53 7.5 -94t26 -76.5t54.5 -55t87 -19.5z" />
    <glyph glyph-name="Otilde" unicode="&#xd5;" horiz-adv-x="747" 
d="M458 770q-40 0 -86 28q-49 28 -69 28q-36 0 -43 -55h-75q6 142 107 142q43 0 89 -32q33 -24 59 -24q20 0 29.5 13.5t15.5 41.5h77q-5 -142 -104 -142zM374 -17q-87 0 -152.5 29.5t-103 82t-56 117t-18.5 141.5q0 78 18.5 143t57 116.5t103.5 81t151 29.5q87 0 152 -29.5
t102.5 -81.5t56 -117t18.5 -142q0 -78 -18.5 -143.5t-56.5 -117t-103 -80.5t-151 -29zM374 108q174 0 174 245t-174 245q-42 0 -73.5 -13.5t-50.5 -35.5t-31 -54.5t-16 -66.5t-4 -75q0 -53 7.5 -94t26 -76.5t54.5 -55t87 -19.5z" />
    <glyph glyph-name="Odieresis" unicode="&#xd6;" horiz-adv-x="747" 
d="M266 777q-31 0 -52 20t-21 49q0 31 20.5 51t52.5 20q30 0 51 -20.5t21 -50.5q0 -29 -21 -49t-51 -20zM483 777q-31 0 -51.5 20t-20.5 49q0 31 20.5 51t51.5 20t52 -20t21 -51q0 -29 -21 -49t-52 -20zM374 -17q-87 0 -152.5 29.5t-103 82t-56 117t-18.5 141.5
q0 78 18.5 143t57 116.5t103.5 81t151 29.5q87 0 152 -29.5t102.5 -81.5t56 -117t18.5 -142q0 -78 -18.5 -143.5t-56.5 -117t-103 -80.5t-151 -29zM374 108q174 0 174 245t-174 245q-42 0 -73.5 -13.5t-50.5 -35.5t-31 -54.5t-16 -66.5t-4 -75q0 -53 7.5 -94t26 -76.5
t54.5 -55t87 -19.5z" />
    <glyph glyph-name="multiply" unicode="&#xd7;" horiz-adv-x="589" 
d="M517 439l-147 -147l147 -147l-76 -77l-147 148l-147 -147l-75 76l146 147l-146 147l75 76l147 -147l147 147z" />
    <glyph glyph-name="Oslash" unicode="&#xd8;" horiz-adv-x="747" 
d="M747 706l-105 -114q61 -92 61 -239q0 -78 -18.5 -143.5t-56.5 -117t-103 -80.5t-151 -29q-140 0 -223 77l-56 -60h-94l104 113q-61 96 -61 240q0 78 18.5 143t57 116.5t103.5 81t151 29.5q141 0 224 -77l55 60h94zM374 598q-42 0 -73.5 -13.5t-50.5 -35.5t-31 -54.5
t-16 -66.5t-4 -75q0 -78 16 -127l284 319q-43 53 -125 53zM374 108q174 0 174 245q0 77 -16 126l-284 -319q44 -52 126 -52z" />
    <glyph glyph-name="Ugrave" unicode="&#xd9;" horiz-adv-x="677" 
d="M429 774h-131l-113 137h143zM338 -17q-140 0 -207 64t-67 193v466h147v-456q0 -72 28.5 -106.5t98.5 -34.5q71 0 99.5 34.5t28.5 106.5v456h147v-466q0 -129 -67.5 -193t-207.5 -64z" />
    <glyph glyph-name="Uacute" unicode="&#xda;" horiz-adv-x="677" 
d="M251 774l100 137h144l-114 -137h-130zM338 -17q-140 0 -207 64t-67 193v466h147v-456q0 -72 28.5 -106.5t98.5 -34.5q71 0 99.5 34.5t28.5 106.5v456h147v-466q0 -129 -67.5 -193t-207.5 -64z" />
    <glyph glyph-name="Ucircumflex" unicode="&#xdb;" horiz-adv-x="677" 
d="M153 774l108 137h158l107 -137h-126l-61 75l-60 -75h-126zM338 -17q-140 0 -207 64t-67 193v466h147v-456q0 -72 28.5 -106.5t98.5 -34.5q71 0 99.5 34.5t28.5 106.5v456h147v-466q0 -129 -67.5 -193t-207.5 -64z" />
    <glyph glyph-name="Udieresis" unicode="&#xdc;" horiz-adv-x="677" 
d="M231 777q-31 0 -52 20t-21 49q0 31 20.5 51t52.5 20q30 0 51 -20.5t21 -50.5q0 -29 -21 -49t-51 -20zM448 777q-31 0 -51.5 20t-20.5 49q0 31 20.5 51t51.5 20t52 -20t21 -51q0 -29 -21 -49t-52 -20zM338 -17q-140 0 -207 64t-67 193v466h147v-456q0 -72 28.5 -106.5
t98.5 -34.5q71 0 99.5 34.5t28.5 106.5v456h147v-466q0 -129 -67.5 -193t-207.5 -64z" />
    <glyph glyph-name="Yacute" unicode="&#xdd;" horiz-adv-x="599" 
d="M211 774l100 137h144l-114 -137h-130zM226 0v303l-220 403h158l136 -260l136 260h157l-220 -403v-303h-147z" />
    <glyph glyph-name="Thorn" unicode="&#xde;" horiz-adv-x="603" 
d="M80 0v706h147v-107h104q250 0 250 -236q0 -243 -250 -243h-104v-120h-147zM227 235h69q72 0 103 32t31 96q0 61 -30.5 90.5t-103.5 29.5h-69v-248z" />
    <glyph glyph-name="germandbls" unicode="&#xdf;" horiz-adv-x="600" 
d="M436 401q66 -18 96.5 -69.5t30.5 -120.5q0 -99 -61.5 -155.5t-192.5 -56.5q-26 0 -56 2v108h25q74 0 106.5 29t32.5 85q0 116 -134 116h-27v103h24q113 0 113 93q0 39 -22.5 63t-68.5 24q-57 0 -77.5 -33.5t-20.5 -93.5v-495h-137v484q0 239 237 239q114 0 170.5 -50.5
t56.5 -130.5q0 -110 -95 -141z" />
    <glyph glyph-name="agrave" unicode="&#xe0;" horiz-adv-x="568" 
d="M363 571h-123l-103 156h137zM279 509q125 0 176 -54.5t51 -164.5v-290h-140v59q-50 -72 -158 -72q-86 0 -130 41t-44 112q0 88 63 124t188 36h81v11q0 52 -18 76t-67 24q-87 0 -87 -73h-142q0 82 58.5 126.5t168.5 44.5zM261 91q59 0 82 32t23 89v4h-71q-59 0 -86 -14
t-27 -49q0 -62 79 -62z" />
    <glyph glyph-name="aacute" unicode="&#xe1;" horiz-adv-x="568" 
d="M421 727l-103 -156h-123l90 156h136zM279 509q125 0 176 -54.5t51 -164.5v-290h-140v59q-50 -72 -158 -72q-86 0 -130 41t-44 112q0 88 63 124t188 36h81v11q0 52 -18 76t-67 24q-87 0 -87 -73h-142q0 82 58.5 126.5t168.5 44.5zM261 91q59 0 82 32t23 89v4h-71
q-59 0 -86 -14t-27 -49q0 -62 79 -62z" />
    <glyph glyph-name="acircumflex" unicode="&#xe2;" horiz-adv-x="568" 
d="M279 665l-57 -95h-124l101 158h162l100 -158h-123zM279 509q125 0 176 -54.5t51 -164.5v-290h-140v59q-50 -72 -158 -72q-86 0 -130 41t-44 112q0 88 63 124t188 36h81v11q0 52 -18 76t-67 24q-87 0 -87 -73h-142q0 82 58.5 126.5t168.5 44.5zM261 91q59 0 82 32t23 89v4
h-71q-59 0 -86 -14t-27 -49q0 -62 79 -62z" />
    <glyph glyph-name="atilde" unicode="&#xe3;" horiz-adv-x="568" 
d="M214 635q-32 0 -35 -64h-80q2 81 26 120t74 39q41 0 84 -36q41 -31 59 -31q19 0 26.5 15t9.5 50h80q-2 -82 -26 -120.5t-75 -38.5q-46 0 -83 34q-39 32 -60 32zM279 509q125 0 176 -54.5t51 -164.5v-290h-140v59q-50 -72 -158 -72q-86 0 -130 41t-44 112q0 88 63 124
t188 36h81v11q0 52 -18 76t-67 24q-87 0 -87 -73h-142q0 82 58.5 126.5t168.5 44.5zM261 91q59 0 82 32t23 89v4h-71q-59 0 -86 -14t-27 -49q0 -62 79 -62z" />
    <glyph glyph-name="adieresis" unicode="&#xe4;" horiz-adv-x="568" 
d="M177 573q-32 0 -53.5 20.5t-21.5 51.5t21.5 51.5t53.5 20.5t53 -20.5t21 -51.5t-21 -51.5t-53 -20.5zM381 573q-32 0 -53.5 20.5t-21.5 51.5t21.5 51.5t53.5 20.5q31 0 52.5 -20.5t21.5 -51.5t-21.5 -51.5t-52.5 -20.5zM279 509q125 0 176 -54.5t51 -164.5v-290h-140v59
q-50 -72 -158 -72q-86 0 -130 41t-44 112q0 88 63 124t188 36h81v11q0 52 -18 76t-67 24q-87 0 -87 -73h-142q0 82 58.5 126.5t168.5 44.5zM261 91q59 0 82 32t23 89v4h-71q-59 0 -86 -14t-27 -49q0 -62 79 -62z" />
    <glyph glyph-name="aring" unicode="&#xe5;" horiz-adv-x="568" 
d="M278 551q-58 0 -93.5 33t-35.5 86q0 54 35 86.5t94 32.5t94.5 -33t35.5 -86t-36 -86t-94 -33zM278 721q-23 0 -37 -14t-14 -37t14 -36.5t37 -13.5q24 0 38 13.5t14 36.5t-14 37t-38 14zM279 509q125 0 176 -54.5t51 -164.5v-290h-140v59q-50 -72 -158 -72q-86 0 -130 41
t-44 112q0 88 63 124t188 36h81v11q0 52 -18 76t-67 24q-87 0 -87 -73h-142q0 82 58.5 126.5t168.5 44.5zM261 91q59 0 82 32t23 89v4h-71q-59 0 -86 -14t-27 -49q0 -62 79 -62z" />
    <glyph glyph-name="ae" unicode="&#xe6;" horiz-adv-x="873" 
d="M605 93q68 0 83 60h144q-11 -79 -72 -122.5t-151 -43.5q-131 0 -191 88q-68 -88 -194 -88q-95 0 -142.5 40.5t-47.5 112.5q0 88 63 124t188 36h81v9q0 54 -17.5 78t-67.5 24q-87 0 -87 -73h-142q0 82 58.5 126.5t168.5 44.5q118 0 168 -52q59 52 151 52q155 0 213 -127
q25 -56 25 -166h-330q4 -60 26.5 -91.5t72.5 -31.5zM601 407q-46 0 -67.5 -27.5t-26.5 -79.5h185q-7 107 -91 107zM366 212v5h-71q-55 0 -84 -14t-29 -50q0 -30 22 -46t58 -16q60 0 82 30.5t22 90.5z" />
    <glyph glyph-name="ccedilla" unicode="&#xe7;" horiz-adv-x="560" 
d="M285 104q40 0 62.5 23.5t24.5 60.5h151q-4 -86 -58 -137.5t-142 -60.5l-8 -29h9q46 0 72 -25t26 -65q0 -101 -144 -101q-52 0 -95 16l14 67q32 -13 70 -13q58 0 58 34t-60 34h-56l21 84q-96 17 -144.5 86t-48.5 169q0 116 63 189t185 73q104 0 169 -53t69 -147h-151
q-2 40 -25 62t-62 22q-102 0 -102 -146q0 -143 102 -143z" />
    <glyph glyph-name="egrave" unicode="&#xe8;" horiz-adv-x="573" 
d="M369 571h-123l-103 156h137zM292 93q78 0 96 60h142q-12 -78 -76.5 -121.5t-158.5 -43.5q-130 0 -194 71.5t-64 189.5q0 115 62.5 187.5t185.5 72.5q82 0 140.5 -34t84.5 -96q25 -56 25 -164h-355q3 -60 27.5 -91t84.5 -31zM287 407q-92 0 -105 -106h209q-6 52 -30 79
t-74 27z" />
    <glyph glyph-name="eacute" unicode="&#xe9;" horiz-adv-x="573" 
d="M427 727l-103 -156h-123l90 156h136zM292 93q78 0 96 60h142q-12 -78 -76.5 -121.5t-158.5 -43.5q-130 0 -194 71.5t-64 189.5q0 115 62.5 187.5t185.5 72.5q82 0 140.5 -34t84.5 -96q25 -56 25 -164h-355q3 -60 27.5 -91t84.5 -31zM287 407q-92 0 -105 -106h209
q-6 52 -30 79t-74 27z" />
    <glyph glyph-name="ecircumflex" unicode="&#xea;" horiz-adv-x="573" 
d="M285 665l-57 -95h-124l101 158h162l100 -158h-123zM292 93q78 0 96 60h142q-12 -78 -76.5 -121.5t-158.5 -43.5q-130 0 -194 71.5t-64 189.5q0 115 62.5 187.5t185.5 72.5q82 0 140.5 -34t84.5 -96q25 -56 25 -164h-355q3 -60 27.5 -91t84.5 -31zM287 407
q-92 0 -105 -106h209q-6 52 -30 79t-74 27z" />
    <glyph glyph-name="edieresis" unicode="&#xeb;" horiz-adv-x="573" 
d="M184 573q-32 0 -53.5 20.5t-21.5 51.5t21.5 51.5t53.5 20.5t53 -20.5t21 -51.5t-21 -51.5t-53 -20.5zM388 573q-32 0 -53.5 20.5t-21.5 51.5t21.5 51.5t53.5 20.5q31 0 52.5 -20.5t21.5 -51.5t-21.5 -51.5t-52.5 -20.5zM292 93q78 0 96 60h142q-12 -78 -76.5 -121.5
t-158.5 -43.5q-130 0 -194 71.5t-64 189.5q0 115 62.5 187.5t185.5 72.5q82 0 140.5 -34t84.5 -96q25 -56 25 -164h-355q3 -60 27.5 -91t84.5 -31zM287 407q-92 0 -105 -106h209q-6 52 -30 79t-74 27z" />
    <glyph glyph-name="igrave" unicode="&#xec;" horiz-adv-x="271" 
d="M213 571h-118l-91 156h135zM67 0v496h137v-496h-137z" />
    <glyph glyph-name="iacute" unicode="&#xed;" horiz-adv-x="271" 
d="M59 571l73 156h136l-91 -156h-118zM67 0v496h137v-496h-137z" />
    <glyph glyph-name="icircumflex" unicode="&#xee;" horiz-adv-x="271" 
d="M-9 570l78 158h133l78 -158h-101l-43 92l-44 -92h-101zM67 0v496h137v-496h-137z" />
    <glyph glyph-name="idieresis" unicode="&#xef;" horiz-adv-x="271" 
d="M61 579q-28 0 -45.5 18.5t-17.5 48.5q0 31 17.5 49.5t45.5 18.5t45 -18.5t17 -49.5q0 -30 -17 -48.5t-45 -18.5zM210 579q-28 0 -45.5 18.5t-17.5 48.5q0 31 17.5 49.5t45.5 18.5t45 -18.5t17 -49.5q0 -30 -17 -48.5t-45 -18.5zM67 0v496h137v-496h-137z" />
    <glyph glyph-name="eth" unicode="&#xf0;" horiz-adv-x="583" 
d="M426 595q120 -169 120 -343q0 -125 -60.5 -194.5t-201.5 -69.5q-125 0 -186 63.5t-61 174.5q0 104 53.5 174t157.5 70q73 0 123 -37q-28 58 -72 121l-207 -68v86l155 51q-28 36 -68 81v2h160q24 -28 35 -42l119 39v-86zM294 101q106 0 106 133q0 132 -106 132
q-111 0 -111 -134q0 -131 111 -131z" />
    <glyph glyph-name="ntilde" unicode="&#xf1;" horiz-adv-x="583" 
d="M240 635q-32 0 -35 -64h-80q2 81 26 120t74 39q41 0 84 -36q41 -31 59 -31q19 0 26.5 15t9.5 50h80q-2 -82 -26 -120.5t-75 -38.5q-46 0 -83 34q-39 32 -60 32zM352 509q81 0 124.5 -48.5t43.5 -140.5v-320h-138v290q0 54 -20.5 78.5t-64.5 24.5q-93 0 -93 -106v-287
h-137v496h137v-63q49 76 148 76z" />
    <glyph glyph-name="ograve" unicode="&#xf2;" horiz-adv-x="577" 
d="M373 571h-123l-103 156h137zM289 -13q-125 0 -188.5 74.5t-63.5 187.5q0 114 64 187t188 73q126 0 188.5 -73.5t62.5 -186.5q0 -115 -63 -188.5t-188 -73.5zM289 104q61 0 83 39t22 106q0 68 -22.5 106t-82.5 38t-83 -38.5t-23 -105.5q0 -69 23.5 -107t82.5 -38z" />
    <glyph glyph-name="oacute" unicode="&#xf3;" horiz-adv-x="577" 
d="M205 571l90 156h136l-103 -156h-123zM289 -13q-125 0 -188.5 74.5t-63.5 187.5q0 114 64 187t188 73q126 0 188.5 -73.5t62.5 -186.5q0 -115 -63 -188.5t-188 -73.5zM289 104q61 0 83 39t22 106q0 68 -22.5 106t-82.5 38t-83 -38.5t-23 -105.5q0 -69 23.5 -107t82.5 -38z
" />
    <glyph glyph-name="ocircumflex" unicode="&#xf4;" horiz-adv-x="577" 
d="M107 570l101 158h162l100 -158h-123l-59 95l-57 -95h-124zM289 -13q-125 0 -188.5 74.5t-63.5 187.5q0 114 64 187t188 73q126 0 188.5 -73.5t62.5 -186.5q0 -115 -63 -188.5t-188 -73.5zM289 104q61 0 83 39t22 106q0 68 -22.5 106t-82.5 38t-83 -38.5t-23 -105.5
q0 -69 23.5 -107t82.5 -38z" />
    <glyph glyph-name="otilde" unicode="&#xf5;" horiz-adv-x="577" 
d="M367 569q-46 0 -83 34q-39 32 -60 32q-32 0 -35 -64h-80q2 81 26 120t74 39q41 0 84 -36q41 -31 59 -31q19 0 26.5 15t9.5 50h80q-2 -82 -26 -120.5t-75 -38.5zM289 -13q-125 0 -188.5 74.5t-63.5 187.5q0 114 64 187t188 73q126 0 188.5 -73.5t62.5 -186.5
q0 -115 -63 -188.5t-188 -73.5zM289 104q61 0 83 39t22 106q0 68 -22.5 106t-82.5 38t-83 -38.5t-23 -105.5q0 -69 23.5 -107t82.5 -38z" />
    <glyph glyph-name="odieresis" unicode="&#xf6;" horiz-adv-x="577" 
d="M187 573q-32 0 -53.5 20.5t-21.5 51.5t21.5 51.5t53.5 20.5t53 -20.5t21 -51.5t-21 -51.5t-53 -20.5zM391 573q-32 0 -53.5 20.5t-21.5 51.5t21.5 51.5t53.5 20.5q31 0 52.5 -20.5t21.5 -51.5t-21.5 -51.5t-52.5 -20.5zM289 -13q-125 0 -188.5 74.5t-63.5 187.5
q0 114 64 187t188 73q126 0 188.5 -73.5t62.5 -186.5q0 -115 -63 -188.5t-188 -73.5zM289 104q61 0 83 39t22 106q0 68 -22.5 106t-82.5 38t-83 -38.5t-23 -105.5q0 -69 23.5 -107t82.5 -38z" />
    <glyph glyph-name="divide" unicode="&#xf7;" horiz-adv-x="589" 
d="M295 419q-31 0 -49.5 18.5t-18.5 48.5t18.5 48t49.5 18q29 0 47.5 -18t18.5 -48t-18.5 -48.5t-47.5 -18.5zM55 237v109h478v-109h-478zM295 31q-31 0 -49.5 18.5t-18.5 47.5q0 31 18.5 48.5t49.5 17.5q29 0 47.5 -18t18.5 -48q0 -29 -18.5 -47.5t-47.5 -18.5z" />
    <glyph glyph-name="oslash" unicode="&#xf8;" horiz-adv-x="577" 
d="M546 496l-62 -69q56 -67 56 -178q0 -115 -63 -188.5t-188 -73.5q-91 0 -152 42l-27 -29h-81l64 71q-56 69 -56 178q0 114 64 187t188 73q91 0 151 -41l26 28h80zM289 393q-60 0 -83 -38.5t-23 -105.5q0 -41 7 -70l166 193q-24 21 -67 21zM289 104q61 0 83 39t22 106
q0 43 -8 71l-166 -193q25 -23 69 -23z" />
    <glyph glyph-name="ugrave" unicode="&#xf9;" horiz-adv-x="583" 
d="M376 571h-123l-103 156h137zM379 496h137v-496h-137v63q-49 -76 -148 -76q-81 0 -124.5 48.5t-43.5 140.5v320h138v-290q0 -54 20.5 -78.5t64.5 -24.5q93 0 93 106v287z" />
    <glyph glyph-name="uacute" unicode="&#xfa;" horiz-adv-x="583" 
d="M434 727l-103 -156h-123l90 156h136zM379 496h137v-496h-137v63q-49 -76 -148 -76q-81 0 -124.5 48.5t-43.5 140.5v320h138v-290q0 -54 20.5 -78.5t64.5 -24.5q93 0 93 106v287z" />
    <glyph glyph-name="ucircumflex" unicode="&#xfb;" horiz-adv-x="583" 
d="M291 665l-57 -95h-124l101 158h162l100 -158h-123zM379 496h137v-496h-137v63q-49 -76 -148 -76q-81 0 -124.5 48.5t-43.5 140.5v320h138v-290q0 -54 20.5 -78.5t64.5 -24.5q93 0 93 106v287z" />
    <glyph glyph-name="udieresis" unicode="&#xfc;" horiz-adv-x="583" 
d="M190 573q-32 0 -53.5 20.5t-21.5 51.5t21.5 51.5t53.5 20.5t53 -20.5t21 -51.5t-21 -51.5t-53 -20.5zM394 573q-32 0 -53.5 20.5t-21.5 51.5t21.5 51.5t53.5 20.5q31 0 52.5 -20.5t21.5 -51.5t-21.5 -51.5t-52.5 -20.5zM379 496h137v-496h-137v63q-49 -76 -148 -76
q-81 0 -124.5 48.5t-43.5 140.5v320h138v-290q0 -54 20.5 -78.5t64.5 -24.5q93 0 93 106v287z" />
    <glyph glyph-name="yacute" unicode="&#xfd;" horiz-adv-x="546" 
d="M416 727l-103 -156h-123l90 156h136zM385 496h148l-275 -696h-140l80 201l-185 495h151l109 -345z" />
    <glyph glyph-name="thorn" unicode="&#xfe;" horiz-adv-x="598" 
d="M351 509q106 0 158 -74t52 -186q0 -113 -52 -187t-158 -74q-99 0 -147 73v-262h-137v907h137v-270q48 73 147 73zM307 105q108 0 108 144t-108 144q-51 0 -77.5 -33.5t-26.5 -95.5v-30q0 -63 26.5 -96t77.5 -33z" />
    <glyph glyph-name="ydieresis" unicode="&#xff;" horiz-adv-x="546" 
d="M173 573q-32 0 -53.5 20.5t-21.5 51.5t21.5 51.5t53.5 20.5t53 -20.5t21 -51.5t-21 -51.5t-53 -20.5zM377 573q-32 0 -53.5 20.5t-21.5 51.5t21.5 51.5t53.5 20.5q31 0 52.5 -20.5t21.5 -51.5t-21.5 -51.5t-52.5 -20.5zM385 496h148l-275 -696h-140l80 201l-185 495h151
l109 -345z" />
    <glyph glyph-name="Amacron" unicode="&#x100;" horiz-adv-x="680" 
d="M494 888v-90h-308v90h308zM523 0l-45 148h-275l-45 -148h-152l224 706h220l224 -706h-151zM237 261h207l-103 337h-2z" />
    <glyph glyph-name="amacron" unicode="&#x101;" horiz-adv-x="568" 
d="M428 688v-89h-299v89h299zM279 509q125 0 176 -54.5t51 -164.5v-290h-140v59q-50 -72 -158 -72q-86 0 -130 41t-44 112q0 88 63 124t188 36h81v11q0 52 -18 76t-67 24q-87 0 -87 -73h-142q0 82 58.5 126.5t168.5 44.5zM261 91q59 0 82 32t23 89v4h-71q-59 0 -86 -14
t-27 -49q0 -62 79 -62z" />
    <glyph glyph-name="Abreve" unicode="&#x102;" horiz-adv-x="680" 
d="M341 767q-161 0 -170 144h97q7 -67 73 -67q34 0 51.5 15.5t25.5 51.5h91q-8 -144 -168 -144zM523 0l-45 148h-275l-45 -148h-152l224 706h220l224 -706h-151zM237 261h207l-103 337h-2z" />
    <glyph glyph-name="abreve" unicode="&#x103;" horiz-adv-x="568" 
d="M280 564q-166 0 -175 164h100q4 -45 21.5 -65.5t53.5 -20.5t53 20.5t22 65.5h98q-8 -164 -173 -164zM279 509q125 0 176 -54.5t51 -164.5v-290h-140v59q-50 -72 -158 -72q-86 0 -130 41t-44 112q0 88 63 124t188 36h81v11q0 52 -18 76t-67 24q-87 0 -87 -73h-142
q0 82 58.5 126.5t168.5 44.5zM261 91q59 0 82 32t23 89v4h-71q-59 0 -86 -14t-27 -49q0 -62 79 -62z" />
    <glyph glyph-name="Aogonek" unicode="&#x104;" horiz-adv-x="680" 
d="M637 -131q23 0 41 7v-77q-29 -12 -74 -12q-54 0 -85.5 23.5t-31.5 68.5q0 67 91 121h-55l-45 148h-275l-45 -148h-152l224 706h220l224 -706h1q-39 -29 -58 -50.5t-19 -45.5q0 -35 39 -35zM237 261h207l-103 337h-2z" />
    <glyph glyph-name="aogonek" unicode="&#x105;" horiz-adv-x="568" 
d="M468 -131q23 0 41 7v-77q-29 -12 -74 -12q-54 0 -85.5 23.5t-31.5 68.5q0 67 91 121h-43v59q-50 -72 -158 -72q-86 0 -130 41t-44 112q0 88 63 124t188 36h81v11q0 52 -18 76t-67 24q-87 0 -87 -73h-142q0 82 58.5 126.5t168.5 44.5q125 0 176 -54.5t51 -164.5v-290
q-39 -29 -58 -50.5t-19 -45.5q0 -35 39 -35zM261 91q59 0 82 32t23 89v4h-71q-59 0 -86 -14t-27 -49q0 -62 79 -62z" />
    <glyph glyph-name="Cacute" unicode="&#x106;" horiz-adv-x="716" 
d="M284 774l100 137h144l-114 -137h-130zM374 -17q-86 0 -151 29t-103.5 81t-57 117t-18.5 143t18.5 143t56.5 116.5t103 81t151 29.5q132 0 214.5 -75.5t86.5 -200.5h-154q-2 72 -42.5 111.5t-111.5 39.5q-49 0 -83.5 -19t-52 -55t-24.5 -76.5t-7 -93.5q0 -55 7 -96
t25 -76.5t52 -54t84 -18.5q148 0 156 146h154q-2 -123 -87.5 -197.5t-215.5 -74.5z" />
    <glyph glyph-name="cacute" unicode="&#x107;" horiz-adv-x="560" 
d="M201 571l90 156h136l-103 -156h-123zM285 -12q-123 0 -185.5 72.5t-62.5 186.5q0 116 63 189t185 73q104 0 169 -53t69 -147h-151q-2 40 -25 62t-62 22q-102 0 -102 -146q0 -143 102 -143q40 0 62.5 23.5t24.5 60.5h151q-4 -95 -69.5 -147.5t-168.5 -52.5z" />
    <glyph glyph-name="Ccircumflex" unicode="&#x108;" horiz-adv-x="716" 
d="M186 774l108 137h158l107 -137h-126l-61 75l-60 -75h-126zM374 -17q-86 0 -151 29t-103.5 81t-57 117t-18.5 143t18.5 143t56.5 116.5t103 81t151 29.5q132 0 214.5 -75.5t86.5 -200.5h-154q-2 72 -42.5 111.5t-111.5 39.5q-49 0 -83.5 -19t-52 -55t-24.5 -76.5t-7 -93.5
q0 -55 7 -96t25 -76.5t52 -54t84 -18.5q148 0 156 146h154q-2 -123 -87.5 -197.5t-215.5 -74.5z" />
    <glyph glyph-name="ccircumflex" unicode="&#x109;" horiz-adv-x="560" 
d="M104 570l101 158h162l100 -158h-123l-59 95l-57 -95h-124zM285 -12q-123 0 -185.5 72.5t-62.5 186.5q0 116 63 189t185 73q104 0 169 -53t69 -147h-151q-2 40 -25 62t-62 22q-102 0 -102 -146q0 -143 102 -143q40 0 62.5 23.5t24.5 60.5h151q-4 -95 -69.5 -147.5
t-168.5 -52.5z" />
    <glyph glyph-name="Cdotaccent" unicode="&#x10a;" horiz-adv-x="716" 
d="M374 777q-34 0 -55.5 20.5t-21.5 52.5t21.5 52.5t55.5 20.5q32 0 53.5 -21t21.5 -52t-21.5 -52t-53.5 -21zM374 -17q-86 0 -151 29t-103.5 81t-57 117t-18.5 143t18.5 143t56.5 116.5t103 81t151 29.5q132 0 214.5 -75.5t86.5 -200.5h-154q-2 72 -42.5 111.5t-111.5 39.5
q-49 0 -83.5 -19t-52 -55t-24.5 -76.5t-7 -93.5q0 -55 7 -96t25 -76.5t52 -54t84 -18.5q148 0 156 146h154q-2 -123 -87.5 -197.5t-215.5 -74.5z" />
    <glyph glyph-name="cdotaccent" unicode="&#x10b;" horiz-adv-x="560" 
d="M285 577q-34 0 -56 21t-22 53q0 33 22 54.5t56 21.5q33 0 55.5 -21.5t22.5 -54.5q0 -31 -22.5 -52.5t-55.5 -21.5zM285 -12q-123 0 -185.5 72.5t-62.5 186.5q0 116 63 189t185 73q104 0 169 -53t69 -147h-151q-2 40 -25 62t-62 22q-102 0 -102 -146q0 -143 102 -143
q40 0 62.5 23.5t24.5 60.5h151q-4 -95 -69.5 -147.5t-168.5 -52.5z" />
    <glyph glyph-name="Ccaron" unicode="&#x10c;" horiz-adv-x="716" 
d="M186 911h126l60 -75l61 75h126l-107 -137h-158zM374 -17q-86 0 -151 29t-103.5 81t-57 117t-18.5 143t18.5 143t56.5 116.5t103 81t151 29.5q132 0 214.5 -75.5t86.5 -200.5h-154q-2 72 -42.5 111.5t-111.5 39.5q-49 0 -83.5 -19t-52 -55t-24.5 -76.5t-7 -93.5
q0 -55 7 -96t25 -76.5t52 -54t84 -18.5q148 0 156 146h154q-2 -123 -87.5 -197.5t-215.5 -74.5z" />
    <glyph glyph-name="ccaron" unicode="&#x10d;" horiz-adv-x="560" 
d="M467 727l-101 -157h-162l-100 157h123l58 -94l58 94h124zM285 -12q-123 0 -185.5 72.5t-62.5 186.5q0 116 63 189t185 73q104 0 169 -53t69 -147h-151q-2 40 -25 62t-62 22q-102 0 -102 -146q0 -143 102 -143q40 0 62.5 23.5t24.5 60.5h151q-4 -95 -69.5 -147.5
t-168.5 -52.5z" />
    <glyph glyph-name="Dcaron" unicode="&#x10e;" horiz-adv-x="715" 
d="M160 911h126l60 -75l61 75h126l-107 -137h-158zM80 0v706h262q88 0 153 -26.5t102.5 -75.5t55 -111.5t17.5 -139.5q0 -78 -18 -140.5t-55.5 -111t-102 -75t-152.5 -26.5h-262zM227 120h91q112 0 154.5 60.5t42.5 172.5t-43 172.5t-154 60.5h-91v-466z" />
    <glyph glyph-name="dcaron" unicode="&#x10f;" horiz-adv-x="700" 
d="M394 438v268h137v-706h-134v64q-50 -76 -150 -76q-106 0 -158 73t-52 186q0 73 20 130t69 94.5t121 37.5q97 0 147 -71zM604 706h116l-39 -171h-102zM395 232v32q0 129 -103 129q-109 0 -109 -146q0 -143 109 -143q103 0 103 128z" />
    <glyph glyph-name="Dcroat" unicode="&#x110;" horiz-adv-x="715" 
d="M342 706q88 0 153 -26.5t102.5 -75.5t55 -111.5t17.5 -139.5q0 -78 -18 -140.5t-55.5 -111t-102 -75t-152.5 -26.5h-262v311h-56v94h56v301h262zM318 120q112 0 154.5 60.5t42.5 172.5t-43 172.5t-154 60.5h-91v-181h151v-94h-151v-191h91z" />
    <glyph glyph-name="dcroat" unicode="&#x111;" horiz-adv-x="598" 
d="M565 647v-82h-34v-565h-134v64q-50 -76 -150 -76q-106 0 -158 73t-52 186q0 73 20 130t69 94.5t121 37.5q97 0 147 -71v127h-180v82h180v59h137v-59h34zM395 232v32q0 129 -103 129q-109 0 -109 -146q0 -143 109 -143q103 0 103 128z" />
    <glyph glyph-name="Emacron" unicode="&#x112;" horiz-adv-x="563" 
d="M143 798v90h308v-90h-308zM80 0v706h430v-120h-283v-167h280v-120h-280v-179h283v-120h-430z" />
    <glyph glyph-name="emacron" unicode="&#x113;" horiz-adv-x="573" 
d="M435 688v-89h-299v89h299zM292 93q78 0 96 60h142q-12 -78 -76.5 -121.5t-158.5 -43.5q-130 0 -194 71.5t-64 189.5q0 115 62.5 187.5t185.5 72.5q82 0 140.5 -34t84.5 -96q25 -56 25 -164h-355q3 -60 27.5 -91t84.5 -31zM287 407q-92 0 -105 -106h209q-6 52 -30 79
t-74 27z" />
    <glyph glyph-name="Ebreve" unicode="&#x114;" horiz-adv-x="563" 
d="M298 767q-161 0 -170 144h97q7 -67 73 -67q34 0 51.5 15.5t25.5 51.5h91q-8 -144 -168 -144zM80 0v706h430v-120h-283v-167h280v-120h-280v-179h283v-120h-430z" />
    <glyph glyph-name="ebreve" unicode="&#x115;" horiz-adv-x="573" 
d="M286 564q-166 0 -175 164h100q4 -45 21.5 -65.5t53.5 -20.5t53 20.5t22 65.5h98q-8 -164 -173 -164zM292 93q78 0 96 60h142q-12 -78 -76.5 -121.5t-158.5 -43.5q-130 0 -194 71.5t-64 189.5q0 115 62.5 187.5t185.5 72.5q82 0 140.5 -34t84.5 -96q25 -56 25 -164h-355
q3 -60 27.5 -91t84.5 -31zM287 407q-92 0 -105 -106h209q-6 52 -30 79t-74 27z" />
    <glyph glyph-name="Edotaccent" unicode="&#x116;" horiz-adv-x="563" 
d="M298 777q-34 0 -55.5 20.5t-21.5 52.5t21.5 52.5t55.5 20.5q32 0 53.5 -21t21.5 -52t-21.5 -52t-53.5 -21zM80 0v706h430v-120h-283v-167h280v-120h-280v-179h283v-120h-430z" />
    <glyph glyph-name="edotaccent" unicode="&#x117;" horiz-adv-x="573" 
d="M285 577q-34 0 -56 21t-22 53q0 33 22 54.5t56 21.5q33 0 55.5 -21.5t22.5 -54.5q0 -31 -22.5 -52.5t-55.5 -21.5zM292 93q78 0 96 60h142q-12 -78 -76.5 -121.5t-158.5 -43.5q-130 0 -194 71.5t-64 189.5q0 115 62.5 187.5t185.5 72.5q82 0 140.5 -34t84.5 -96
q25 -56 25 -164h-355q3 -60 27.5 -91t84.5 -31zM287 407q-92 0 -105 -106h209q-6 52 -30 79t-74 27z" />
    <glyph glyph-name="Eogonek" unicode="&#x118;" horiz-adv-x="563" 
d="M472 -131q23 0 41 7v-77q-29 -12 -74 -12q-54 0 -85.5 23.5t-31.5 68.5q0 67 91 121h-333v706h430v-120h-283v-167h280v-120h-280v-179h283v-120q-39 -29 -58 -50.5t-19 -45.5q0 -35 39 -35z" />
    <glyph glyph-name="eogonek" unicode="&#x119;" horiz-adv-x="559" 
d="M292 93q79 0 96 60h142q-6 -38 -26.5 -70t-63.5 -70q-41 -37 -58 -59t-17 -45q0 -40 42 -40q22 0 39 8v-79q-34 -12 -75 -12q-53 0 -84.5 25.5t-31.5 72.5q0 58 59 104h-19q-130 0 -194 71.5t-64 189.5q0 115 62.5 187.5t185.5 72.5q82 0 140.5 -34t84.5 -96
q25 -56 25 -164h-355q3 -60 27.5 -91t84.5 -31zM287 407q-92 0 -105 -106h209q-6 52 -30 79t-74 27z" />
    <glyph glyph-name="Ecaron" unicode="&#x11a;" horiz-adv-x="563" 
d="M110 911h126l60 -75l61 75h126l-107 -137h-158zM80 0v706h430v-120h-283v-167h280v-120h-280v-179h283v-120h-430z" />
    <glyph glyph-name="ecaron" unicode="&#x11b;" horiz-adv-x="573" 
d="M366 570h-162l-100 157h123l58 -94l58 94h124zM292 93q78 0 96 60h142q-12 -78 -76.5 -121.5t-158.5 -43.5q-130 0 -194 71.5t-64 189.5q0 115 62.5 187.5t185.5 72.5q82 0 140.5 -34t84.5 -96q25 -56 25 -164h-355q3 -60 27.5 -91t84.5 -31zM287 407q-92 0 -105 -106
h209q-6 52 -30 79t-74 27z" />
    <glyph glyph-name="Gcircumflex" unicode="&#x11c;" horiz-adv-x="720" 
d="M372 849l-60 -75h-126l108 137h158l107 -137h-126zM377 381h299v-51q0 -73 -16.5 -133.5t-51 -109.5t-94.5 -76.5t-141 -27.5q-86 0 -151 29t-103 81t-56.5 117t-18.5 143q0 164 81.5 267t249.5 103q128 0 208 -70t87 -189h-146q-12 134 -152 134q-52 0 -87 -18.5
t-53.5 -54.5t-25.5 -76.5t-7 -95.5q0 -119 38.5 -182t139.5 -63q151 0 158 163h-158v110z" />
    <glyph glyph-name="gcircumflex" unicode="&#x11d;" horiz-adv-x="598" 
d="M289 665l-57 -95h-124l101 158h162l100 -158h-123zM397 496h134v-476q0 -234 -242 -234q-101 0 -165 40t-75 118h146q12 -54 92 -54q110 0 110 114v70q-51 -81 -156 -81q-103 0 -153.5 73.5t-50.5 185.5q0 113 50.5 185t153.5 72q105 0 156 -81v68zM395 232v33
q0 128 -106 128t-106 -142q0 -146 107 -146q105 0 105 127z" />
    <glyph glyph-name="Gbreve" unicode="&#x11e;" horiz-adv-x="720" 
d="M374 767q-161 0 -170 144h97q7 -67 73 -67q34 0 51.5 15.5t25.5 51.5h91q-8 -144 -168 -144zM377 381h299v-51q0 -73 -16.5 -133.5t-51 -109.5t-94.5 -76.5t-141 -27.5q-86 0 -151 29t-103 81t-56.5 117t-18.5 143q0 164 81.5 267t249.5 103q128 0 208 -70t87 -189h-146
q-12 134 -152 134q-52 0 -87 -18.5t-53.5 -54.5t-25.5 -76.5t-7 -95.5q0 -119 38.5 -182t139.5 -63q151 0 158 163h-158v110z" />
    <glyph glyph-name="gbreve" unicode="&#x11f;" horiz-adv-x="598" 
d="M290 564q-166 0 -175 164h100q4 -45 21.5 -65.5t53.5 -20.5t53 20.5t22 65.5h98q-8 -164 -173 -164zM397 496h134v-476q0 -234 -242 -234q-101 0 -165 40t-75 118h146q12 -54 92 -54q110 0 110 114v70q-51 -81 -156 -81q-103 0 -153.5 73.5t-50.5 185.5q0 113 50.5 185
t153.5 72q105 0 156 -81v68zM395 232v33q0 128 -106 128t-106 -142q0 -146 107 -146q105 0 105 127z" />
    <glyph glyph-name="Gdotaccent" unicode="&#x120;" horiz-adv-x="720" 
d="M374 777q-34 0 -55.5 20.5t-21.5 52.5t21.5 52.5t55.5 20.5q32 0 53.5 -21t21.5 -52t-21.5 -52t-53.5 -21zM377 381h299v-51q0 -73 -16.5 -133.5t-51 -109.5t-94.5 -76.5t-141 -27.5q-86 0 -151 29t-103 81t-56.5 117t-18.5 143q0 164 81.5 267t249.5 103q128 0 208 -70
t87 -189h-146q-12 134 -152 134q-52 0 -87 -18.5t-53.5 -54.5t-25.5 -76.5t-7 -95.5q0 -119 38.5 -182t139.5 -63q151 0 158 163h-158v110z" />
    <glyph glyph-name="gdotaccent" unicode="&#x121;" horiz-adv-x="598" 
d="M289 577q-34 0 -56 21t-22 53q0 33 22 54.5t56 21.5q33 0 55.5 -21.5t22.5 -54.5q0 -31 -22.5 -52.5t-55.5 -21.5zM397 496h134v-476q0 -234 -242 -234q-101 0 -165 40t-75 118h146q12 -54 92 -54q110 0 110 114v70q-51 -81 -156 -81q-103 0 -153.5 73.5t-50.5 185.5
q0 113 50.5 185t153.5 72q105 0 156 -81v68zM395 232v33q0 128 -106 128t-106 -142q0 -146 107 -146q105 0 105 127z" />
    <glyph glyph-name="uni0122" unicode="&#x122;" horiz-adv-x="720" 
d="M377 381h299v-51q0 -73 -16.5 -133.5t-51 -109.5t-94.5 -76.5t-141 -27.5q-86 0 -151 29t-103 81t-56.5 117t-18.5 143q0 164 81.5 267t249.5 103q128 0 208 -70t87 -189h-146q-12 134 -152 134q-52 0 -87 -18.5t-53.5 -54.5t-25.5 -76.5t-7 -95.5q0 -119 38.5 -182
t139.5 -63q151 0 158 163h-158v110zM267 -200l36 148h142l-52 -148h-126z" />
    <glyph glyph-name="uni0123" unicode="&#x123;" horiz-adv-x="598" 
d="M370 718l-37 -147h-141l52 147h126zM397 496h134v-476q0 -234 -242 -234q-101 0 -165 40t-75 118h146q12 -54 92 -54q110 0 110 114v70q-51 -81 -156 -81q-103 0 -153.5 73.5t-50.5 185.5q0 113 50.5 185t153.5 72q105 0 156 -81v68zM395 232v33q0 128 -106 128
t-106 -142q0 -146 107 -146q105 0 105 127z" />
    <glyph glyph-name="Hcircumflex" unicode="&#x124;" horiz-adv-x="721" 
d="M174 774l108 137h158l107 -137h-126l-61 75l-60 -75h-126zM80 0v706h147v-287h267v287h147v-706h-147v296h-267v-296h-147z" />
    <glyph glyph-name="hcircumflex" unicode="&#x125;" horiz-adv-x="583" 
d="M293 849l-60 -75h-126l108 137h158l107 -137h-126zM352 509q81 0 124.5 -48.5t43.5 -140.5v-320h-138v290q0 54 -20.5 78.5t-64.5 24.5q-93 0 -93 -106v-287h-137v706h137v-273q49 76 148 76z" />
    <glyph glyph-name="Hbar" unicode="&#x126;" horiz-adv-x="721" 
d="M494 706h147v-706h-147v296h-267v-296h-147v706h147v-100h267v100zM227 419h267v101h-267v-101z" />
    <glyph glyph-name="hbar" unicode="&#x127;" horiz-adv-x="583" 
d="M352 509q81 0 124.5 -48.5t43.5 -140.5v-320h-138v290q0 54 -20.5 78.5t-64.5 24.5q-93 0 -93 -106v-287h-137v565h-45v82h45v59h137v-59h169v-82h-169v-132q49 76 148 76z" />
    <glyph glyph-name="Itilde" unicode="&#x128;" horiz-adv-x="307" 
d="M215 771q-35 0 -65 28q-2 2 -6.5 5.5t-6.5 5t-5.5 4.5t-6 4.5t-5.5 3.5t-6 3t-6 1.5t-6 0.5q-28 0 -31 -54h-70q4 139 93 139q35 0 68 -31q24 -24 39 -24q17 0 23.5 12t10.5 42h72q-3 -72 -25 -106t-67 -34zM80 0v706h147v-706h-147z" />
    <glyph glyph-name="itilde" unicode="&#x129;" horiz-adv-x="271" 
d="M194 569q-40 0 -69 40q-21 28 -32 28q-25 0 -26 -66h-75q2 84 20 121.5t63 37.5q41 0 71 -41q18 -27 31 -27q25 0 26 66h76q-2 -84 -20.5 -121.5t-64.5 -37.5zM67 0v496h137v-496h-137z" />
    <glyph glyph-name="Imacron" unicode="&#x12a;" horiz-adv-x="307" 
d="M24 797v90h257v-90h-257zM80 0v706h147v-706h-147z" />
    <glyph glyph-name="imacron" unicode="&#x12b;" horiz-adv-x="271" 
d="M13 599v89h244v-89h-244zM67 0v496h137v-496h-137z" />
    <glyph glyph-name="Ibreve" unicode="&#x12c;" horiz-adv-x="307" 
d="M154 767q-147 0 -147 144h94q2 -36 14 -51t39 -15q26 0 38 15t13 51h95q0 -144 -146 -144zM80 0v706h147v-706h-147z" />
    <glyph glyph-name="ibreve" unicode="&#x12d;" horiz-adv-x="271" 
d="M136 563q-139 0 -139 165h88q0 -48 12 -67t39 -19q26 0 38 19t12 67h88q-2 -165 -138 -165zM67 0v496h137v-496h-137z" />
    <glyph glyph-name="Iogonek" unicode="&#x12e;" horiz-adv-x="307" 
d="M200 -131q16 0 31 7v-78q-26 -11 -64 -11q-49 0 -78 22t-29 62q0 72 72 129h-52v706h147v-706h-1q-55 -60 -55 -104q0 -27 29 -27z" />
    <glyph glyph-name="iogonek" unicode="&#x12f;" horiz-adv-x="271" 
d="M136 576q-34 0 -56 21.5t-22 53.5t22 54t56 22q33 0 55.5 -22t22.5 -54t-22.5 -53.5t-55.5 -21.5zM149 -104q0 -27 29 -27q16 0 31 7v-78q-26 -11 -64 -11q-49 0 -78 22t-29 62q0 72 72 129h-43v496h137v-496q-55 -60 -55 -104z" />
    <glyph glyph-name="Idotaccent" unicode="&#x130;" horiz-adv-x="307" 
d="M154 777q-34 0 -55.5 20.5t-21.5 52.5t21.5 52.5t55.5 20.5q32 0 53.5 -21t21.5 -52t-21.5 -52t-53.5 -21zM80 0v706h147v-706h-147z" />
    <glyph glyph-name="dotlessi" unicode="&#x131;" horiz-adv-x="271" 
d="M67 0v496h137v-496h-137z" />
    <glyph glyph-name="IJ" unicode="&#x132;" horiz-adv-x="688" 
d="M80 0v706h147v-706h-147zM390 -3q-34 0 -62 4v132q18 -3 41 -3q60 0 84 26.5t24 93.5v456h147v-476q0 -119 -55.5 -176t-178.5 -57z" />
    <glyph glyph-name="ij" unicode="&#x133;" horiz-adv-x="542" 
d="M136 576q-34 0 -56 21.5t-22 53.5t22 54t56 22q33 0 55.5 -22t22.5 -54t-22.5 -53.5t-55.5 -21.5zM407 576q-34 0 -56 21.5t-22 53.5t22 54t56 22q32 0 55 -22t23 -54q0 -31 -23 -53t-55 -22zM67 0v496h137v-496h-137zM316 -204q-43 0 -62 3v120q12 -2 32 -2
q27 0 39.5 13t12.5 42v524h137v-540q0 -85 -37.5 -122.5t-121.5 -37.5z" />
    <glyph glyph-name="Jcircumflex" unicode="&#x134;" horiz-adv-x="381" 
d="M82 774l83 137h154l85 -137h-116l-45 75l-45 -75h-116zM83 -3q-34 0 -62 4v132q18 -3 41 -3q60 0 84 26.5t24 93.5v456h147v-476q0 -119 -55.5 -176t-178.5 -57z" />
    <glyph glyph-name="jcircumflex" unicode="&#x135;" horiz-adv-x="271" 
d="M-9 570l78 158h133l78 -158h-101l-43 92l-44 -92h-101zM45 -204q-43 0 -62 3v120q12 -2 32 -2q27 0 39.5 13t12.5 42v524h137v-540q0 -85 -37.5 -122.5t-121.5 -37.5z" />
    <glyph glyph-name="uni0136" unicode="&#x136;" horiz-adv-x="664" 
d="M354 389l304 -389h-180l-251 330v-330h-147v706h147v-269l217 269h172zM233 -200l36 148h142l-52 -148h-126z" />
    <glyph glyph-name="uni0137" unicode="&#x137;" horiz-adv-x="535" 
d="M325 273l222 -273h-178l-165 219v-219h-137v706h137v-382l147 172h173zM177 -200l36 148h142l-52 -148h-126z" />
    <glyph glyph-name="kgreenlandic" unicode="&#x138;" horiz-adv-x="535" 
d="M547 0h-178l-165 219v-219h-137v496h137v-172l147 172h173l-199 -223z" />
    <glyph glyph-name="Lacute" unicode="&#x139;" horiz-adv-x="484" 
d="M59 774l100 137h144l-114 -137h-130zM80 0v706h147v-578h236v-128h-383z" />
    <glyph glyph-name="lacute" unicode="&#x13a;" horiz-adv-x="271" 
d="M47 774l100 137h144l-114 -137h-130zM67 0v706h137v-706h-137z" />
    <glyph glyph-name="uni013B" unicode="&#x13b;" horiz-adv-x="484" 
d="M80 0v706h147v-578h236v-128h-383zM146 -200l36 148h142l-52 -148h-126z" />
    <glyph glyph-name="uni013C" unicode="&#x13c;" horiz-adv-x="271" 
d="M67 0v706h137v-706h-137zM30 -200l36 148h142l-52 -148h-126z" />
    <glyph glyph-name="Lcaron" unicode="&#x13d;" horiz-adv-x="484" 
d="M80 0v706h147v-578h236v-128h-383zM290 535l25 171h116l-39 -171h-102z" />
    <glyph glyph-name="lcaron" unicode="&#x13e;" horiz-adv-x="363" 
d="M67 0v706h137v-706h-137zM244 535l25 171h116l-39 -171h-102z" />
    <glyph glyph-name="Ldot" unicode="&#x13f;" horiz-adv-x="566" 
d="M80 0v706h147v-578h236v-128h-383zM436 322q-39 0 -63.5 24.5t-24.5 62.5t24.5 62.5t63.5 24.5t64 -24.5t25 -62.5t-25 -62.5t-64 -24.5z" />
    <glyph glyph-name="ldot" unicode="&#x140;" horiz-adv-x="448" 
d="M67 0v706h137v-706h-137zM359 249q-39 0 -63.5 24t-24.5 62t24.5 62.5t63.5 24.5t64 -24.5t25 -62.5t-25 -62t-64 -24z" />
    <glyph glyph-name="Lslash" unicode="&#x141;" horiz-adv-x="484" 
d="M227 128h236v-128h-383v284l-58 -38v110l58 39v311h147v-237l129 86v-112l-129 -86v-229z" />
    <glyph glyph-name="lslash" unicode="&#x142;" horiz-adv-x="287" 
d="M282 522v-115l-70 -50v-357h-137v290l-69 -46v115l69 46v301h137v-232z" />
    <glyph glyph-name="Nacute" unicode="&#x143;" horiz-adv-x="742" 
d="M283 774l100 137h144l-114 -137h-130zM80 0v706h146l294 -478v478h142v-706h-147l-293 479v-479h-142z" />
    <glyph glyph-name="nacute" unicode="&#x144;" horiz-adv-x="583" 
d="M447 727l-103 -156h-123l90 156h136zM352 509q81 0 124.5 -48.5t43.5 -140.5v-320h-138v290q0 54 -20.5 78.5t-64.5 24.5q-93 0 -93 -106v-287h-137v496h137v-63q49 76 148 76z" />
    <glyph glyph-name="uni0145" unicode="&#x145;" horiz-adv-x="742" 
d="M80 0v706h146l294 -478v478h142v-706h-147l-293 479v-479h-142zM262 -200l36 148h142l-52 -148h-126z" />
    <glyph glyph-name="uni0146" unicode="&#x146;" horiz-adv-x="583" 
d="M352 509q81 0 124.5 -48.5t43.5 -140.5v-320h-138v290q0 54 -20.5 78.5t-64.5 24.5q-93 0 -93 -106v-287h-137v496h137v-63q49 76 148 76zM192 -200l36 148h142l-52 -148h-126z" />
    <glyph glyph-name="Ncaron" unicode="&#x147;" horiz-adv-x="742" 
d="M185 911h126l60 -75l61 75h126l-107 -137h-158zM80 0v706h146l294 -478v478h142v-706h-147l-293 479v-479h-142z" />
    <glyph glyph-name="ncaron" unicode="&#x148;" horiz-adv-x="583" 
d="M385 570h-162l-100 157h123l58 -94l58 94h124zM352 509q81 0 124.5 -48.5t43.5 -140.5v-320h-138v290q0 54 -20.5 78.5t-64.5 24.5q-93 0 -93 -106v-287h-137v496h137v-63q49 76 148 76z" />
    <glyph glyph-name="napostrophe" unicode="&#x149;" horiz-adv-x="757" 
d="M106 706h143l-104 -282h-107zM527 509q81 0 124 -48.5t43 -140.5v-320h-137v290q0 54 -21 78.5t-65 24.5q-92 0 -92 -106v-287h-138v496h138v-62q49 75 148 75z" />
    <glyph glyph-name="Eng" unicode="&#x14a;" horiz-adv-x="742" 
d="M520 706h142v-754q0 -82 -38.5 -119t-121.5 -37q-33 0 -66 3v115q20 -2 29 -2q55 0 55 57v33l-298 477v-479h-142v706h146l294 -472v472z" />
    <glyph glyph-name="eng" unicode="&#x14b;" horiz-adv-x="583" 
d="M352 509q81 0 124.5 -48.5t43.5 -140.5v-363q0 -85 -38 -123t-121 -38q-31 0 -63 3v119q14 -2 33 -2q51 0 51 55v319q0 54 -20.5 78.5t-64.5 24.5q-93 0 -93 -106v-287h-137v496h137v-63q49 76 148 76z" />
    <glyph glyph-name="Omacron" unicode="&#x14c;" horiz-adv-x="747" 
d="M219 798v90h308v-90h-308zM374 -17q-87 0 -152.5 29.5t-103 82t-56 117t-18.5 141.5q0 78 18.5 143t57 116.5t103.5 81t151 29.5q87 0 152 -29.5t102.5 -81.5t56 -117t18.5 -142q0 -78 -18.5 -143.5t-56.5 -117t-103 -80.5t-151 -29zM374 108q174 0 174 245t-174 245
q-42 0 -73.5 -13.5t-50.5 -35.5t-31 -54.5t-16 -66.5t-4 -75q0 -53 7.5 -94t26 -76.5t54.5 -55t87 -19.5z" />
    <glyph glyph-name="omacron" unicode="&#x14d;" horiz-adv-x="577" 
d="M139 599v89h299v-89h-299zM289 -13q-125 0 -188.5 74.5t-63.5 187.5q0 114 64 187t188 73q126 0 188.5 -73.5t62.5 -186.5q0 -115 -63 -188.5t-188 -73.5zM289 104q61 0 83 39t22 106q0 68 -22.5 106t-82.5 38t-83 -38.5t-23 -105.5q0 -69 23.5 -107t82.5 -38z" />
    <glyph glyph-name="Obreve" unicode="&#x14e;" horiz-adv-x="747" 
d="M375 767q-161 0 -170 144h97q7 -67 73 -67q34 0 51.5 15.5t25.5 51.5h91q-8 -144 -168 -144zM374 -17q-87 0 -152.5 29.5t-103 82t-56 117t-18.5 141.5q0 78 18.5 143t57 116.5t103.5 81t151 29.5q87 0 152 -29.5t102.5 -81.5t56 -117t18.5 -142q0 -78 -18.5 -143.5
t-56.5 -117t-103 -80.5t-151 -29zM374 108q174 0 174 245t-174 245q-42 0 -73.5 -13.5t-50.5 -35.5t-31 -54.5t-16 -66.5t-4 -75q0 -53 7.5 -94t26 -76.5t54.5 -55t87 -19.5z" />
    <glyph glyph-name="obreve" unicode="&#x14f;" horiz-adv-x="577" 
d="M290 564q-166 0 -175 164h100q4 -45 21.5 -65.5t53.5 -20.5t53 20.5t22 65.5h98q-8 -164 -173 -164zM289 -13q-125 0 -188.5 74.5t-63.5 187.5q0 114 64 187t188 73q126 0 188.5 -73.5t62.5 -186.5q0 -115 -63 -188.5t-188 -73.5zM289 104q61 0 83 39t22 106
q0 68 -22.5 106t-82.5 38t-83 -38.5t-23 -105.5q0 -69 23.5 -107t82.5 -38z" />
    <glyph glyph-name="Ohungarumlaut" unicode="&#x150;" horiz-adv-x="747" 
d="M227 774l98 137h119l-120 -137h-97zM398 774l98 137h119l-119 -137h-98zM374 -17q-87 0 -152.5 29.5t-103 82t-56 117t-18.5 141.5q0 78 18.5 143t57 116.5t103.5 81t151 29.5q87 0 152 -29.5t102.5 -81.5t56 -117t18.5 -142q0 -78 -18.5 -143.5t-56.5 -117t-103 -80.5
t-151 -29zM374 108q174 0 174 245t-174 245q-42 0 -73.5 -13.5t-50.5 -35.5t-31 -54.5t-16 -66.5t-4 -75q0 -53 7.5 -94t26 -76.5t54.5 -55t87 -19.5z" />
    <glyph glyph-name="ohungarumlaut" unicode="&#x151;" horiz-adv-x="577" 
d="M143 571l97 157h117l-119 -157h-95zM313 571l97 157h116l-118 -157h-95zM289 -13q-125 0 -188.5 74.5t-63.5 187.5q0 114 64 187t188 73q126 0 188.5 -73.5t62.5 -186.5q0 -115 -63 -188.5t-188 -73.5zM289 104q61 0 83 39t22 106q0 68 -22.5 106t-82.5 38t-83 -38.5
t-23 -105.5q0 -69 23.5 -107t82.5 -38z" />
    <glyph glyph-name="OE" unicode="&#x152;" horiz-adv-x="1013" 
d="M959 586h-282v-168h279v-119h-279v-179h282v-120h-405v58q-74 -69 -196 -69q-83 0 -145.5 28.5t-98.5 80t-53 115t-17 140.5t17.5 141t54 115t98.5 79.5t144 28.5q122 0 196 -69v58h405v-120zM366 109q49 0 83.5 19.5t52 55.5t24.5 76.5t7 92.5q0 53 -7.5 94t-25 76.5
t-51.5 54.5t-83 19q-50 0 -84 -19.5t-51.5 -55.5t-24.5 -76t-7 -93t7.5 -94t25 -76.5t51.5 -54.5t83 -19z" />
    <glyph glyph-name="oe" unicode="&#x153;" horiz-adv-x="880" 
d="M611 93q66 0 83 60h144q-12 -77 -72.5 -121.5t-150.5 -44.5q-111 0 -172 64q-60 -63 -165 -63q-120 0 -180.5 74t-60.5 187q0 114 61 187t180 73q105 0 165 -62q59 62 161 62q155 0 213 -127q26 -57 26 -167h-331q3 -58 25 -90t74 -32zM607 408q-47 0 -68 -27t-26 -79
h186q-4 51 -24.5 78.5t-67.5 27.5zM278 104q92 0 92 145q0 67 -19.5 105.5t-72.5 38.5q-95 0 -95 -144q0 -145 95 -145z" />
    <glyph glyph-name="Racute" unicode="&#x154;" horiz-adv-x="649" 
d="M473 911l-114 -137h-130l100 137h144zM475 0l-194 287h-54v-287h-147v706h279q230 0 230 -203q0 -175 -153 -208l202 -295h-163zM227 595v-202h90q65 0 93 26t28 80q0 51 -28.5 73.5t-92.5 22.5h-90z" />
    <glyph glyph-name="racute" unicode="&#x155;" horiz-adv-x="390" 
d="M368 727l-103 -156h-123l90 156h136zM326 503q28 0 49 -6v-122q-20 5 -47 5q-61 0 -92.5 -38.5t-31.5 -111.5v-230h-137v496h136v-65q40 72 123 72z" />
    <glyph glyph-name="uni0156" unicode="&#x156;" horiz-adv-x="649" 
d="M436 295l202 -295h-163l-194 287h-54v-287h-147v706h279q230 0 230 -203q0 -175 -153 -208zM227 595v-202h90q65 0 93 26t28 80q0 51 -28.5 73.5t-92.5 22.5h-90zM241 -200l36 148h142l-52 -148h-126z" />
    <glyph glyph-name="uni0157" unicode="&#x157;" horiz-adv-x="390" 
d="M326 503q28 0 49 -6v-122q-20 5 -47 5q-61 0 -92.5 -38.5t-31.5 -111.5v-230h-137v496h136v-65q40 72 123 72zM30 -200l36 148h142l-52 -148h-126z" />
    <glyph glyph-name="Rcaron" unicode="&#x158;" horiz-adv-x="649" 
d="M397 774h-158l-108 137h126l60 -75l61 75h126zM475 0l-194 287h-54v-287h-147v706h279q230 0 230 -203q0 -175 -153 -208l202 -295h-163zM227 595v-202h90q65 0 93 26t28 80q0 51 -28.5 73.5t-92.5 22.5h-90z" />
    <glyph glyph-name="rcaron" unicode="&#x159;" horiz-adv-x="390" 
d="M307 570h-162l-100 157h123l58 -94l58 94h124zM203 431q40 72 123 72q28 0 49 -6v-122q-20 5 -47 5q-61 0 -92.5 -38.5t-31.5 -111.5v-230h-137v496h136v-65z" />
    <glyph glyph-name="Sacute" unicode="&#x15a;" horiz-adv-x="619" 
d="M221 774l100 137h144l-114 -137h-130zM310 -17q-141 0 -209.5 65t-68.5 172h162q0 -59 26.5 -91.5t91.5 -32.5q57 0 86 25t29 67q0 47 -39.5 70t-153.5 59q-93 29 -139.5 73.5t-46.5 121.5q0 94 67 152.5t189 58.5q125 0 188.5 -61.5t63.5 -165.5h-153q0 118 -104 118
q-49 0 -75.5 -22.5t-26.5 -59.5q0 -16 4 -28t17 -22.5t23.5 -17t37.5 -16t43 -14.5t56 -17q110 -33 159.5 -77t49.5 -131q0 -106 -72 -166t-205 -60z" />
    <glyph glyph-name="sacute" unicode="&#x15b;" horiz-adv-x="495" 
d="M162 571l90 156h136l-103 -156h-123zM248 -16q-108 0 -160.5 48t-52.5 131h136q0 -82 76 -82q67 0 67 53q0 30 -25 44t-80 29q-78 22 -117 55t-39 96q0 72 50 111.5t143 39.5q96 0 145 -41.5t49 -116.5h-132q0 70 -64 70q-29 0 -44 -12.5t-15 -31.5q0 -28 23.5 -41.5
t87.5 -31.5q86 -25 125 -58t39 -98q0 -80 -56 -122t-156 -42z" />
    <glyph glyph-name="Scircumflex" unicode="&#x15c;" horiz-adv-x="619" 
d="M123 774l108 137h158l107 -137h-126l-61 75l-60 -75h-126zM310 -17q-141 0 -209.5 65t-68.5 172h162q0 -59 26.5 -91.5t91.5 -32.5q57 0 86 25t29 67q0 47 -39.5 70t-153.5 59q-93 29 -139.5 73.5t-46.5 121.5q0 94 67 152.5t189 58.5q125 0 188.5 -61.5t63.5 -165.5
h-153q0 118 -104 118q-49 0 -75.5 -22.5t-26.5 -59.5q0 -16 4 -28t17 -22.5t23.5 -17t37.5 -16t43 -14.5t56 -17q110 -33 159.5 -77t49.5 -131q0 -106 -72 -166t-205 -60z" />
    <glyph glyph-name="scircumflex" unicode="&#x15d;" horiz-adv-x="495" 
d="M65 570l101 158h162l100 -158h-123l-59 95l-57 -95h-124zM248 -16q-108 0 -160.5 48t-52.5 131h136q0 -82 76 -82q67 0 67 53q0 30 -25 44t-80 29q-78 22 -117 55t-39 96q0 72 50 111.5t143 39.5q96 0 145 -41.5t49 -116.5h-132q0 70 -64 70q-29 0 -44 -12.5t-15 -31.5
q0 -28 23.5 -41.5t87.5 -31.5q86 -25 125 -58t39 -98q0 -80 -56 -122t-156 -42z" />
    <glyph glyph-name="Scedilla" unicode="&#x15e;" horiz-adv-x="619" 
d="M587 209q0 -98 -62 -157t-177 -68l-7 -23h9q46 0 72 -25t26 -65q0 -101 -144 -101q-52 0 -95 16l14 67q32 -13 70 -13q58 0 58 34t-60 34h-56l19 78q-112 13 -167 75.5t-55 158.5h162q0 -59 26.5 -91.5t91.5 -32.5q57 0 86 25t29 67q0 47 -39.5 70t-153.5 59
q-93 29 -139.5 73.5t-46.5 121.5q0 94 67 152.5t189 58.5q125 0 188.5 -61.5t63.5 -165.5h-153q0 118 -104 118q-49 0 -75.5 -22.5t-26.5 -59.5q0 -16 4 -28t17 -22.5t23.5 -17t37.5 -16t43 -14.5t56 -17q110 -33 159.5 -77t49.5 -131z" />
    <glyph glyph-name="scedilla" unicode="&#x15f;" horiz-adv-x="495" 
d="M460 148q0 -71 -45 -112.5t-126 -49.5l-7 -25h9q46 0 72 -25t26 -65q0 -101 -144 -101q-52 0 -95 16l14 67q32 -13 70 -13q58 0 58 34t-60 34h-56l20 79q-81 12 -121 58t-40 118h136q0 -82 76 -82q67 0 67 53q0 30 -25 44t-80 29q-78 22 -117 55t-39 96q0 72 50 111.5
t143 39.5q96 0 145 -41.5t49 -116.5h-132q0 70 -64 70q-29 0 -44 -12.5t-15 -31.5q0 -28 23.5 -41.5t87.5 -31.5q86 -25 125 -58t39 -98z" />
    <glyph glyph-name="Scaron" unicode="&#x160;" horiz-adv-x="619" 
d="M123 911h126l60 -75l61 75h126l-107 -137h-158zM310 -17q-141 0 -209.5 65t-68.5 172h162q0 -59 26.5 -91.5t91.5 -32.5q57 0 86 25t29 67q0 47 -39.5 70t-153.5 59q-93 29 -139.5 73.5t-46.5 121.5q0 94 67 152.5t189 58.5q125 0 188.5 -61.5t63.5 -165.5h-153
q0 118 -104 118q-49 0 -75.5 -22.5t-26.5 -59.5q0 -16 4 -28t17 -22.5t23.5 -17t37.5 -16t43 -14.5t56 -17q110 -33 159.5 -77t49.5 -131q0 -106 -72 -166t-205 -60z" />
    <glyph glyph-name="scaron" unicode="&#x161;" horiz-adv-x="495" 
d="M428 727l-101 -157h-162l-100 157h123l58 -94l58 94h124zM248 -16q-108 0 -160.5 48t-52.5 131h136q0 -82 76 -82q67 0 67 53q0 30 -25 44t-80 29q-78 22 -117 55t-39 96q0 72 50 111.5t143 39.5q96 0 145 -41.5t49 -116.5h-132q0 70 -64 70q-29 0 -44 -12.5t-15 -31.5
q0 -28 23.5 -41.5t87.5 -31.5q86 -25 125 -58t39 -98q0 -80 -56 -122t-156 -42z" />
    <glyph glyph-name="uni0162" unicode="&#x162;" horiz-adv-x="558" 
d="M352 0h-29l-11 -39h9q46 0 72 -25t26 -65q0 -101 -144 -101q-52 0 -95 16l14 67q32 -13 70 -13q58 0 58 34t-60 34h-56l23 92h-23v586h-185v120h516v-120h-185v-586z" />
    <glyph glyph-name="uni0163" unicode="&#x163;" horiz-adv-x="368" 
d="M257 -39q46 0 72 -25t26 -65q0 -101 -144 -101q-52 0 -95 16l14 67q32 -13 70 -13q58 0 58 34t-60 34h-56l23 92q-44 14 -64 51t-20 103v232h-67v110h67v117h138v-117h119v-110h-119v-210q0 -38 15.5 -55t49.5 -17q20 0 52 7v-109q-29 -7 -80 -11l-8 -30h9z" />
    <glyph glyph-name="Tcaron" unicode="&#x164;" horiz-adv-x="558" 
d="M92 911h126l60 -75l61 75h126l-107 -137h-158zM206 0v586h-185v120h516v-120h-185v-586h-146z" />
    <glyph glyph-name="tcaron" unicode="&#x165;" horiz-adv-x="412" 
d="M251 536l25 171h116l-39 -171h-102zM238 -9q-83 0 -120 37.5t-37 125.5v232h-67v110h67v117h138v-117h119v-110h-119v-210q0 -38 15.5 -55t49.5 -17q20 0 52 7v-109q-47 -11 -98 -11z" />
    <glyph glyph-name="Tbar" unicode="&#x166;" horiz-adv-x="558" 
d="M537 586h-185v-157h116v-90h-116v-339h-146v339h-116v90h116v157h-185v120h516v-120z" />
    <glyph glyph-name="tbar" unicode="&#x167;" horiz-adv-x="368" 
d="M339 218h-120v-42q0 -38 15.5 -55t49.5 -17q20 0 52 7v-109q-47 -11 -98 -11q-83 0 -120 37.5t-37 125.5v64h-67v87h67v81h-67v110h67v117h138v-117h119v-110h-119v-81h120v-87z" />
    <glyph glyph-name="Utilde" unicode="&#x168;" horiz-adv-x="677" 
d="M424 770q-40 0 -86 28q-49 28 -69 28q-36 0 -43 -55h-75q6 142 107 142q43 0 89 -32q33 -24 59 -24q20 0 29.5 13.5t15.5 41.5h77q-5 -142 -104 -142zM338 -17q-140 0 -207 64t-67 193v466h147v-456q0 -72 28.5 -106.5t98.5 -34.5q71 0 99.5 34.5t28.5 106.5v456h147
v-466q0 -129 -67.5 -193t-207.5 -64z" />
    <glyph glyph-name="utilde" unicode="&#x169;" horiz-adv-x="583" 
d="M227 635q-32 0 -35 -64h-80q2 81 26 120t74 39q41 0 84 -36q41 -31 59 -31q19 0 26.5 15t9.5 50h80q-2 -82 -26 -120.5t-75 -38.5q-46 0 -83 34q-39 32 -60 32zM379 496h137v-496h-137v63q-49 -76 -148 -76q-81 0 -124.5 48.5t-43.5 140.5v320h138v-290q0 -54 20.5 -78.5
t64.5 -24.5q93 0 93 106v287z" />
    <glyph glyph-name="Umacron" unicode="&#x16a;" horiz-adv-x="677" 
d="M185 798v90h308v-90h-308zM338 -17q-140 0 -207 64t-67 193v466h147v-456q0 -72 28.5 -106.5t98.5 -34.5q71 0 99.5 34.5t28.5 106.5v456h147v-466q0 -129 -67.5 -193t-207.5 -64z" />
    <glyph glyph-name="umacron" unicode="&#x16b;" horiz-adv-x="583" 
d="M441 688v-89h-299v89h299zM379 496h137v-496h-137v63q-49 -76 -148 -76q-81 0 -124.5 48.5t-43.5 140.5v320h138v-290q0 -54 20.5 -78.5t64.5 -24.5q93 0 93 106v287z" />
    <glyph glyph-name="Ubreve" unicode="&#x16c;" horiz-adv-x="677" 
d="M340 767q-161 0 -170 144h97q7 -67 73 -67q34 0 51.5 15.5t25.5 51.5h91q-8 -144 -168 -144zM338 -17q-140 0 -207 64t-67 193v466h147v-456q0 -72 28.5 -106.5t98.5 -34.5q71 0 99.5 34.5t28.5 106.5v456h147v-466q0 -129 -67.5 -193t-207.5 -64z" />
    <glyph glyph-name="ubreve" unicode="&#x16d;" horiz-adv-x="583" 
d="M293 564q-166 0 -175 164h100q4 -45 21.5 -65.5t53.5 -20.5t53 20.5t22 65.5h98q-8 -164 -173 -164zM379 496h137v-496h-137v63q-49 -76 -148 -76q-81 0 -124.5 48.5t-43.5 140.5v320h138v-290q0 -54 20.5 -78.5t64.5 -24.5q93 0 93 106v287z" />
    <glyph glyph-name="Uring" unicode="&#x16e;" horiz-adv-x="677" 
d="M339 740q-58 0 -93.5 33t-35.5 86q0 54 35 86.5t94 32.5t94.5 -33t35.5 -86t-36 -86t-94 -33zM339 809q24 0 38 13.5t14 36.5t-14 37t-38 14q-23 0 -37 -14t-14 -37t14 -36.5t37 -13.5zM338 -17q-140 0 -207 64t-67 193v466h147v-456q0 -72 28.5 -106.5t98.5 -34.5
q71 0 99.5 34.5t28.5 106.5v456h147v-466q0 -129 -67.5 -193t-207.5 -64z" />
    <glyph glyph-name="uring" unicode="&#x16f;" horiz-adv-x="583" 
d="M291 551q-58 0 -93.5 33t-35.5 86q0 54 35 86.5t94 32.5t94.5 -33t35.5 -86t-36 -86t-94 -33zM291 721q-23 0 -37 -14t-14 -37t14 -36.5t37 -13.5q24 0 38 13.5t14 36.5t-14 37t-38 14zM379 496h137v-496h-137v63q-49 -76 -148 -76q-81 0 -124.5 48.5t-43.5 140.5v320
h138v-290q0 -54 20.5 -78.5t64.5 -24.5q93 0 93 106v287z" />
    <glyph glyph-name="Uhungarumlaut" unicode="&#x170;" horiz-adv-x="677" 
d="M192 774l98 137h119l-120 -137h-97zM363 774l98 137h119l-119 -137h-98zM338 -17q-140 0 -207 64t-67 193v466h147v-456q0 -72 28.5 -106.5t98.5 -34.5q71 0 99.5 34.5t28.5 106.5v456h147v-466q0 -129 -67.5 -193t-207.5 -64z" />
    <glyph glyph-name="uhungarumlaut" unicode="&#x171;" horiz-adv-x="583" 
d="M360 728l-119 -157h-95l97 157h117zM411 571h-95l97 157h116zM379 209v287h137v-496h-137v63q-49 -76 -148 -76q-81 0 -124.5 48.5t-43.5 140.5v320h138v-290q0 -54 20.5 -78.5t64.5 -24.5q93 0 93 106z" />
    <glyph glyph-name="Uogonek" unicode="&#x172;" horiz-adv-x="677" 
d="M466 706h147v-466q0 -84 -26 -137.5t-79 -92.5q-40 -31 -59 -54t-19 -49q0 -19 11.5 -30t28.5 -11q18 0 43 9v-77q-39 -12 -73 -12q-53 0 -85 25.5t-32 71.5q0 56 55 101q-13 -1 -40 -1q-140 0 -207 64t-67 193v466h147v-456q0 -72 28.5 -106.5t98.5 -34.5
q71 0 99.5 34.5t28.5 106.5v456z" />
    <glyph glyph-name="uogonek" unicode="&#x173;" horiz-adv-x="583" 
d="M478 -131q23 0 41 7v-77q-29 -12 -74 -12q-54 0 -85.5 23.5t-31.5 68.5q0 67 91 121h-40v63q-49 -76 -148 -76q-81 0 -124.5 48.5t-43.5 140.5v320h138v-290q0 -54 20.5 -78.5t64.5 -24.5q93 0 93 106v287h137v-496q-39 -29 -58 -50.5t-19 -45.5q0 -35 39 -35z" />
    <glyph glyph-name="Wcircumflex" unicode="&#x174;" horiz-adv-x="930" 
d="M465 849l-60 -75h-126l108 137h158l107 -137h-126zM780 706h144l-187 -706h-153l-118 506l-119 -506h-151l-190 706h144l123 -494l116 494h154l115 -493z" />
    <glyph glyph-name="wcircumflex" unicode="&#x175;" horiz-adv-x="808" 
d="M403 665l-57 -95h-124l101 158h162l100 -158h-123zM647 496h149l-172 -496h-132l-88 314l-88 -314h-133l-170 496h147l90 -318l95 318h116l95 -316z" />
    <glyph glyph-name="Ycircumflex" unicode="&#x176;" horiz-adv-x="599" 
d="M113 774l108 137h158l107 -137h-126l-61 75l-60 -75h-126zM226 0v303l-220 403h158l136 -260l136 260h157l-220 -403v-303h-147z" />
    <glyph glyph-name="ycircumflex" unicode="&#x177;" horiz-adv-x="546" 
d="M274 665l-57 -95h-124l101 158h162l100 -158h-123zM385 496h148l-275 -696h-140l80 201l-185 495h151l109 -345z" />
    <glyph glyph-name="Ydieresis" unicode="&#x178;" horiz-adv-x="599" 
d="M192 777q-31 0 -52 20t-21 49q0 31 20.5 51t52.5 20q30 0 51 -20.5t21 -50.5q0 -29 -21 -49t-51 -20zM409 777q-31 0 -51.5 20t-20.5 49q0 31 20.5 51t51.5 20t52 -20t21 -51q0 -29 -21 -49t-52 -20zM226 0v303l-220 403h158l136 -260l136 260h157l-220 -403v-303h-147z
" />
    <glyph glyph-name="Zacute" unicode="&#x179;" horiz-adv-x="602" 
d="M207 774l100 137h144l-114 -137h-130zM22 0l311 583h-294v123h519l-309 -583h323v-123h-550z" />
    <glyph glyph-name="zacute" unicode="&#x17a;" horiz-adv-x="474" 
d="M386 727l-103 -156h-123l90 156h136zM464 496l-236 -385h228v-111h-447l245 386h-222v110h432z" />
    <glyph glyph-name="Zdotaccent" unicode="&#x17b;" horiz-adv-x="602" 
d="M296 777q-34 0 -55.5 20.5t-21.5 52.5t21.5 52.5t55.5 20.5q32 0 53.5 -21t21.5 -52t-21.5 -52t-53.5 -21zM22 0l311 583h-294v123h519l-309 -583h323v-123h-550z" />
    <glyph glyph-name="zdotaccent" unicode="&#x17c;" horiz-adv-x="474" 
d="M244 577q-34 0 -56 21t-22 53q0 33 22 54.5t56 21.5q33 0 55.5 -21.5t22.5 -54.5q0 -31 -22.5 -52.5t-55.5 -21.5zM464 496l-236 -385h228v-111h-447l245 386h-222v110h432z" />
    <glyph glyph-name="Zcaron" unicode="&#x17d;" horiz-adv-x="602" 
d="M109 911h126l60 -75l61 75h126l-107 -137h-158zM22 0l311 583h-294v123h519l-309 -583h323v-123h-550z" />
    <glyph glyph-name="zcaron" unicode="&#x17e;" horiz-adv-x="474" 
d="M324 570h-162l-100 157h123l58 -94l58 94h124zM464 496l-236 -385h228v-111h-447l245 386h-222v110h432z" />
    <glyph glyph-name="uni018F" unicode="&#x18f;" horiz-adv-x="720" 
d="M345 723q168 0 249.5 -103t81.5 -267q0 -78 -18.5 -143t-56.5 -117t-103 -81t-151 -29q-81 0 -141 27.5t-94.5 76.5t-51 109.5t-16.5 133.5v51h477q-4 102 -42 159.5t-130 57.5q-141 0 -153 -134h-146q7 119 87 189t208 70zM343 108q84 0 123.5 43t50.5 124h-332
q4 -167 158 -167z" />
    <glyph glyph-name="florin" unicode="&#x192;" horiz-adv-x="397" 
d="M87 -8q-39 0 -69 8v110q24 -7 44 -7q70 0 70 70v194h-111v72h111v117q0 86 42.5 125.5t135.5 39.5q35 0 70 -7v-110q-20 7 -47 7q-67 0 -67 -74v-98h111v-72h-111v-210q0 -86 -42.5 -125.5t-136.5 -39.5z" />
    <glyph glyph-name="Aringacute" unicode="&#x1fa;" horiz-adv-x="680" 
d="M495 1183l-114 -137h-130l100 137h144zM339 740q-58 0 -93.5 33t-35.5 86q0 54 35 86.5t94 32.5t94.5 -33t35.5 -86t-36 -86t-94 -33zM339 910q-23 0 -37 -14t-14 -37t14 -36.5t37 -13.5q24 0 38 13.5t14 36.5t-14 37t-38 14zM523 0l-45 148h-275l-45 -148h-152l224 706
h220l224 -706h-151zM237 261h207l-103 337h-2z" />
    <glyph glyph-name="aringacute" unicode="&#x1fb;" horiz-adv-x="568" 
d="M421 1020l-103 -156h-123l90 156h136zM278 551q-58 0 -93.5 33t-35.5 86q0 54 35 86.5t94 32.5t94.5 -33t35.5 -86t-36 -86t-94 -33zM278 721q-23 0 -37 -14t-14 -37t14 -36.5t37 -13.5q24 0 38 13.5t14 36.5t-14 37t-38 14zM279 509q125 0 176 -54.5t51 -164.5v-290
h-140v59q-50 -72 -158 -72q-86 0 -130 41t-44 112q0 88 63 124t188 36h81v11q0 52 -18 76t-67 24q-87 0 -87 -73h-142q0 82 58.5 126.5t168.5 44.5zM261 91q59 0 82 32t23 89v4h-71q-59 0 -86 -14t-27 -49q0 -62 79 -62z" />
    <glyph glyph-name="AEacute" unicode="&#x1fc;" horiz-adv-x="830" 
d="M618 911l-114 -137h-130l100 137h144zM776 586h-264l20 -168h241v-119h-227l22 -179h208v-120h-343l-16 150h-205l-53 -150h-153l264 706h506v-120zM252 262h153l-35 329h-2z" />
    <glyph glyph-name="aeacute" unicode="&#x1fd;" horiz-adv-x="873" 
d="M587 727l-103 -156h-123l90 156h136zM605 93q68 0 83 60h144q-11 -79 -72 -122.5t-151 -43.5q-131 0 -191 88q-68 -88 -194 -88q-95 0 -142.5 40.5t-47.5 112.5q0 88 63 124t188 36h81v9q0 54 -17.5 78t-67.5 24q-87 0 -87 -73h-142q0 82 58.5 126.5t168.5 44.5
q118 0 168 -52q59 52 151 52q155 0 213 -127q25 -56 25 -166h-330q4 -60 26.5 -91.5t72.5 -31.5zM601 407q-46 0 -67.5 -27.5t-26.5 -79.5h185q-7 107 -91 107zM366 212v5h-71q-55 0 -84 -14t-29 -50q0 -30 22 -46t58 -16q60 0 82 30.5t22 90.5z" />
    <glyph glyph-name="Oslashacute" unicode="&#x1fe;" horiz-adv-x="747" 
d="M529 911l-114 -137h-130l100 137h144zM747 706l-105 -114q61 -92 61 -239q0 -78 -18.5 -143.5t-56.5 -117t-103 -80.5t-151 -29q-140 0 -223 77l-56 -60h-94l104 113q-61 96 -61 240q0 78 18.5 143t57 116.5t103.5 81t151 29.5q141 0 224 -77l55 60h94zM374 598
q-42 0 -73.5 -13.5t-50.5 -35.5t-31 -54.5t-16 -66.5t-4 -75q0 -78 16 -127l284 319q-43 53 -125 53zM374 108q174 0 174 245q0 77 -16 126l-284 -319q44 -52 126 -52z" />
    <glyph glyph-name="oslashacute" unicode="&#x1ff;" horiz-adv-x="577" 
d="M431 727l-103 -156h-123l90 156h136zM546 496l-62 -69q56 -67 56 -178q0 -115 -63 -188.5t-188 -73.5q-91 0 -152 42l-27 -29h-81l64 71q-56 69 -56 178q0 114 64 187t188 73q91 0 151 -41l26 28h80zM289 393q-60 0 -83 -38.5t-23 -105.5q0 -41 7 -70l166 193
q-24 21 -67 21zM289 104q61 0 83 39t22 106q0 43 -8 71l-166 -193q25 -23 69 -23z" />
    <glyph glyph-name="uni0218" unicode="&#x218;" horiz-adv-x="619" 
d="M310 -17q-141 0 -209.5 65t-68.5 172h162q0 -59 26.5 -91.5t91.5 -32.5q57 0 86 25t29 67q0 47 -39.5 70t-153.5 59q-93 29 -139.5 73.5t-46.5 121.5q0 94 67 152.5t189 58.5q125 0 188.5 -61.5t63.5 -165.5h-153q0 118 -104 118q-49 0 -75.5 -22.5t-26.5 -59.5
q0 -16 4 -28t17 -22.5t23.5 -17t37.5 -16t43 -14.5t56 -17q110 -33 159.5 -77t49.5 -131q0 -106 -72 -166t-205 -60zM204 -200l36 148h142l-52 -148h-126z" />
    <glyph glyph-name="uni0219" unicode="&#x219;" horiz-adv-x="495" 
d="M248 -16q-108 0 -160.5 48t-52.5 131h136q0 -82 76 -82q67 0 67 53q0 30 -25 44t-80 29q-78 22 -117 55t-39 96q0 72 50 111.5t143 39.5q96 0 145 -41.5t49 -116.5h-132q0 70 -64 70q-29 0 -44 -12.5t-15 -31.5q0 -28 23.5 -41.5t87.5 -31.5q86 -25 125 -58t39 -98
q0 -80 -56 -122t-156 -42zM145 -200l36 148h142l-52 -148h-126z" />
    <glyph glyph-name="uni021A" unicode="&#x21a;" horiz-adv-x="558" 
d="M206 0v586h-185v120h516v-120h-185v-586h-146zM175 -200l36 148h142l-52 -148h-126z" />
    <glyph glyph-name="uni021B" unicode="&#x21b;" horiz-adv-x="368" 
d="M238 -9q-83 0 -120 37.5t-37 125.5v232h-67v110h67v117h138v-117h119v-110h-119v-210q0 -38 15.5 -55t49.5 -17q20 0 52 7v-109q-47 -11 -98 -11zM111 -200l36 148h142l-52 -148h-126z" />
    <glyph glyph-name="uni0237" unicode="&#x237;" horiz-adv-x="271" 
d="M45 -204q-43 0 -62 3v120q12 -2 32 -2q27 0 39.5 13t12.5 42v524h137v-540q0 -85 -37.5 -122.5t-121.5 -37.5z" />
    <glyph glyph-name="uni0259" unicode="&#x259;" horiz-adv-x="573" 
d="M278 508q130 0 194 -71.5t64 -189.5q0 -115 -62.5 -187.5t-185.5 -72.5q-82 0 -140 34.5t-85 95.5q-25 56 -25 164h355q-3 60 -27.5 91t-84.5 31q-78 0 -95 -60h-143q12 78 76.5 121.5t158.5 43.5zM286 89q92 0 105 107h-209q5 -53 29 -80t75 -27z" />
    <glyph glyph-name="circumflex" unicode="&#x2c6;" horiz-adv-x="463" 
d="M50 570l101 158h162l100 -158h-123l-59 95l-57 -95h-124z" />
    <glyph glyph-name="caron" unicode="&#x2c7;" horiz-adv-x="463" 
d="M413 727l-101 -157h-162l-100 157h123l58 -94l58 94h124z" />
    <glyph glyph-name="uni02C9" unicode="&#x2c9;" horiz-adv-x="399" 
d="M50 599v89h299v-89h-299z" />
    <glyph glyph-name="breve" unicode="&#x2d8;" horiz-adv-x="448" 
d="M225 564q-166 0 -175 164h100q4 -45 21.5 -65.5t53.5 -20.5t53 20.5t22 65.5h98q-8 -164 -173 -164z" />
    <glyph glyph-name="dotaccent" unicode="&#x2d9;" horiz-adv-x="256" 
d="M128 577q-34 0 -56 21t-22 53q0 33 22 54.5t56 21.5q33 0 55.5 -21.5t22.5 -54.5q0 -31 -22.5 -52.5t-55.5 -21.5z" />
    <glyph glyph-name="ring" unicode="&#x2da;" horiz-adv-x="359" 
d="M179 551q-58 0 -93.5 33t-35.5 86q0 54 35 86.5t94 32.5t94.5 -33t35.5 -86t-36 -86t-94 -33zM179 620q24 0 38 13.5t14 36.5t-14 37t-38 14q-23 0 -37 -14t-14 -37t14 -36.5t37 -13.5z" />
    <glyph glyph-name="ogonek" unicode="&#x2db;" horiz-adv-x="291" 
d="M167 -213q-54 0 -85.5 23.5t-31.5 68.5q0 69 98 125l90 -4q-39 -29 -58 -50.5t-19 -45.5q0 -35 39 -35q23 0 41 7v-77q-29 -12 -74 -12z" />
    <glyph glyph-name="tilde" unicode="&#x2dc;" horiz-adv-x="459" 
d="M308 569q-46 0 -83 34q-39 32 -60 32q-32 0 -35 -64h-80q2 81 26 120t74 39q41 0 84 -36q41 -31 59 -31q19 0 26.5 15t9.5 50h80q-2 -82 -26 -120.5t-75 -38.5z" />
    <glyph glyph-name="hungarumlaut" unicode="&#x2dd;" horiz-adv-x="483" 
d="M50 571l97 157h117l-119 -157h-95zM220 571l97 157h116l-118 -157h-95z" />
    <glyph glyph-name="gravecomb" unicode="&#x300;" 
d="M-50 571h-123l-103 156h137z" />
    <glyph glyph-name="acutecomb" unicode="&#x301;" 
d="M-276 571l90 156h136l-103 -156h-123z" />
    <glyph glyph-name="uni0302" unicode="&#x302;" 
d="M-413 570l101 158h162l100 -158h-123l-59 95l-57 -95h-124z" />
    <glyph glyph-name="tildecomb" unicode="&#x303;" 
d="M-151 569q-46 0 -83 34q-39 32 -60 32q-32 0 -35 -64h-80q2 81 26 120t74 39q41 0 84 -36q41 -31 59 -31q19 0 26.5 15t9.5 50h80q-2 -82 -26 -120.5t-75 -38.5z" />
    <glyph glyph-name="uni0304" unicode="&#x304;" 
d="M-349 599v89h299v-89h-299z" />
    <glyph glyph-name="uni0306" unicode="&#x306;" 
d="M-223 564q-166 0 -175 164h100q4 -45 21.5 -65.5t53.5 -20.5t53 20.5t22 65.5h98q-8 -164 -173 -164z" />
    <glyph glyph-name="uni0307" unicode="&#x307;" 
d="M-128 577q-34 0 -56 21t-22 53q0 33 22 54.5t56 21.5q33 0 55.5 -21.5t22.5 -54.5q0 -31 -22.5 -52.5t-55.5 -21.5z" />
    <glyph glyph-name="uni0308" unicode="&#x308;" 
d="M-327 573q-32 0 -53.5 20.5t-21.5 51.5t21.5 51.5t53.5 20.5t53 -20.5t21 -51.5t-21 -51.5t-53 -20.5zM-123 573q-32 0 -53.5 20.5t-21.5 51.5t21.5 51.5t53.5 20.5q31 0 52.5 -20.5t21.5 -51.5t-21.5 -51.5t-52.5 -20.5z" />
    <glyph glyph-name="uni030A" unicode="&#x30a;" 
d="M-180 551q-58 0 -93.5 33t-35.5 86q0 54 35 86.5t94 32.5t94.5 -33t35.5 -86t-36 -86t-94 -33zM-180 620q24 0 38 13.5t14 36.5t-14 37t-38 14q-23 0 -37 -14t-14 -37t14 -36.5t37 -13.5z" />
    <glyph glyph-name="uni030B" unicode="&#x30b;" 
d="M-433 571l97 157h117l-119 -157h-95zM-263 571l97 157h116l-118 -157h-95z" />
    <glyph glyph-name="uni030C" unicode="&#x30c;" 
d="M-50 727l-101 -157h-162l-100 157h123l58 -94l58 94h124z" />
    <glyph glyph-name="uni0312" unicode="&#x312;" 
d="M-50 718l-37 -147h-141l52 147h126z" />
    <glyph glyph-name="uni0326" unicode="&#x326;" 
d="M-228 -200l36 148h142l-52 -148h-126z" />
    <glyph glyph-name="uni0327" unicode="&#x327;" 
d="M-148 -39q46 0 72 -25t26 -65q0 -101 -144 -101q-52 0 -95 16l14 67q32 -13 70 -13q58 0 58 34t-60 34h-56l24 97h94l-12 -44h9z" />
    <glyph glyph-name="uni0328" unicode="&#x328;" 
d="M-124 -213q-54 0 -85.5 23.5t-31.5 68.5q0 69 98 125l90 -4q-39 -29 -58 -50.5t-19 -45.5q0 -35 39 -35q23 0 41 7v-77q-29 -12 -74 -12z" />
    <glyph glyph-name="uni0335" unicode="&#x335;" 
d="M-375 290v87h325v-87h-325z" />
    <glyph glyph-name="uni0336" unicode="&#x336;" 
d="M-349 586v86h349v-86h-349z" />
    <glyph glyph-name="uni0337" unicode="&#x337;" 
d="M-128 315v119l128 88v-115zM-276 244v115l128 86v-116z" />
    <glyph glyph-name="uni0338" unicode="&#x338;" 
d="M-557 0l126 140v-2l239 278v3l72 77h80l-126 -140v3l-239 -278v-3l-71 -78h-81z" />
    <glyph glyph-name="uni0394" unicode="&#x394;" horiz-adv-x="680" 
d="M450 706l224 -706h-668l224 706h220zM193 114h295l-147 483h-2z" />
    <glyph glyph-name="uni0394" unicode="&#x3b4;" horiz-adv-x="680" 
d="M450 706l224 -706h-668l224 706h220zM193 114h295l-147 483h-2z" />
    <glyph glyph-name="uni03A9" unicode="&#x3a9;" horiz-adv-x="718" 
d="M512 164v-55h144v-109h-256v251q66 10 95.5 60t29.5 122q0 179 -166 179q-86 0 -126 -49t-40 -130q0 -73 30.5 -122.5t95.5 -59.5v-251h-256v109h143v55q-83 32 -122.5 103t-39.5 166q0 134 79 212t236 78q159 0 237 -77.5t78 -212.5q0 -96 -39.5 -167t-122.5 -102z" />
    <glyph glyph-name="uni03A9" unicode="&#x3c9;" horiz-adv-x="718" 
d="M512 164v-55h144v-109h-256v251q66 10 95.5 60t29.5 122q0 179 -166 179q-86 0 -126 -49t-40 -130q0 -73 30.5 -122.5t95.5 -59.5v-251h-256v109h143v55q-83 32 -122.5 103t-39.5 166q0 134 79 212t236 78q159 0 237 -77.5t78 -212.5q0 -96 -39.5 -167t-122.5 -102z" />
    <glyph glyph-name="uni03BC" unicode="&#x3bc;" horiz-adv-x="586" 
d="M384 496h135v-496h-133v67q-43 -80 -136 -80q-32 0 -57 11q8 -62 8 -122v-78h-134v698h134v-287q0 -57 21 -82.5t66 -25.5q96 0 96 109v286z" />
    <glyph glyph-name="pi" unicode="&#x3c0;" horiz-adv-x="700" 
d="M574 -9q-83 0 -119.5 37.5t-36.5 125.5v232h-136v-386h-137v386h-90v110h590v-110h-89v-210q0 -38 15.5 -55t49.5 -17q6 0 24 2v-109q-35 -6 -71 -6z" />
    <glyph glyph-name="Wgrave" unicode="&#x1e80;" horiz-adv-x="930" 
d="M556 774h-131l-113 137h143zM780 706h144l-187 -706h-153l-118 506l-119 -506h-151l-190 706h144l123 -494l116 494h154l115 -493z" />
    <glyph glyph-name="wgrave" unicode="&#x1e81;" horiz-adv-x="808" 
d="M487 571h-123l-103 156h137zM647 496h149l-172 -496h-132l-88 314l-88 -314h-133l-170 496h147l90 -318l95 318h116l95 -316z" />
    <glyph glyph-name="Wacute" unicode="&#x1e82;" horiz-adv-x="930" 
d="M621 911l-114 -137h-130l100 137h144zM780 706h144l-187 -706h-153l-118 506l-119 -506h-151l-190 706h144l123 -494l116 494h154l115 -493z" />
    <glyph glyph-name="wacute" unicode="&#x1e83;" horiz-adv-x="808" 
d="M545 727l-103 -156h-123l90 156h136zM647 496h149l-172 -496h-132l-88 314l-88 -314h-133l-170 496h147l90 -318l95 318h116l95 -316z" />
    <glyph glyph-name="Wdieresis" unicode="&#x1e84;" horiz-adv-x="930" 
d="M358 777q-31 0 -52 20t-21 49q0 31 20.5 51t52.5 20q30 0 51 -20.5t21 -50.5q0 -29 -21 -49t-51 -20zM575 777q-31 0 -51.5 20t-20.5 49q0 31 20.5 51t51.5 20t52 -20t21 -51q0 -29 -21 -49t-52 -20zM780 706h144l-187 -706h-153l-118 506l-119 -506h-151l-190 706h144
l123 -494l116 494h154l115 -493z" />
    <glyph glyph-name="wdieresis" unicode="&#x1e85;" horiz-adv-x="808" 
d="M301 573q-32 0 -53.5 20.5t-21.5 51.5t21.5 51.5t53.5 20.5t53 -20.5t21 -51.5t-21 -51.5t-53 -20.5zM505 573q-32 0 -53.5 20.5t-21.5 51.5t21.5 51.5t53.5 20.5q31 0 52.5 -20.5t21.5 -51.5t-21.5 -51.5t-52.5 -20.5zM647 496h149l-172 -496h-132l-88 314l-88 -314
h-133l-170 496h147l90 -318l95 318h116l95 -316z" />
    <glyph glyph-name="uni1E9E" unicode="&#x1e9e;" horiz-adv-x="676" 
d="M506 419q70 -19 104 -73.5t34 -126.5q0 -102 -63.5 -162.5t-188.5 -60.5q-52 0 -98 8v121q32 -5 65 -5q134 0 134 106q0 111 -127 111q-11 0 -31 -2v3l101 245h-209v-583h-147v706h542v-5z" />
    <glyph glyph-name="Ygrave" unicode="&#x1ef2;" horiz-adv-x="599" 
d="M390 774h-131l-113 137h143zM226 0v303l-220 403h158l136 -260l136 260h157l-220 -403v-303h-147z" />
    <glyph glyph-name="ygrave" unicode="&#x1ef3;" horiz-adv-x="546" 
d="M358 571h-123l-103 156h137zM385 496h148l-275 -696h-140l80 201l-185 495h151l109 -345z" />
    <glyph glyph-name="uni2009" unicode="&#x2009;" horiz-adv-x="74" 
 />
    <glyph glyph-name="uni2011" unicode="&#x2011;" horiz-adv-x="404" 
d="M55 233v117h293v-117h-293z" />
    <glyph glyph-name="endash" unicode="&#x2013;" horiz-adv-x="499" 
d="M55 234v118h389v-118h-389z" />
    <glyph glyph-name="emdash" unicode="&#x2014;" horiz-adv-x="968" 
d="M55 234v118h857v-118h-857z" />
    <glyph glyph-name="quoteleft" unicode="&#x2018;" horiz-adv-x="287" 
d="M249 706l-68 -282h-143l105 282h106z" />
    <glyph glyph-name="quoteright" unicode="&#x2019;" horiz-adv-x="287" 
d="M38 424l68 282h143l-104 -282h-107z" />
    <glyph glyph-name="quotesinglbase" unicode="&#x201a;" horiz-adv-x="287" 
d="M38 -136l68 282h143l-104 -282h-107z" />
    <glyph glyph-name="quotedblleft" unicode="&#x201c;" horiz-adv-x="501" 
d="M249 706l-68 -282h-143l105 282h106zM463 706l-68 -282h-143l104 282h107z" />
    <glyph glyph-name="quotedblright" unicode="&#x201d;" horiz-adv-x="501" 
d="M38 424l68 282h143l-104 -282h-107zM252 424l68 282h143l-105 -282h-106z" />
    <glyph glyph-name="quotedblbase" unicode="&#x201e;" horiz-adv-x="501" 
d="M38 -136l68 282h143l-104 -282h-107zM252 -136l68 282h143l-105 -282h-106z" />
    <glyph glyph-name="dagger" unicode="&#x2020;" horiz-adv-x="431" 
d="M400 551v-124h-113v-427h-142v427h-114v124h114v155h142v-155h113z" />
    <glyph glyph-name="daggerdbl" unicode="&#x2021;" horiz-adv-x="431" 
d="M400 439h-113v-172h113v-124h-113v-143h-142v143h-114v124h114v172h-114v124h114v143h142v-143h113v-124z" />
    <glyph glyph-name="bullet" unicode="&#x2022;" horiz-adv-x="452" 
d="M227 223q-62 0 -100.5 38.5t-38.5 100.5q0 63 37.5 99.5t101.5 36.5q61 0 98.5 -36.5t37.5 -99.5q0 -62 -37.5 -100.5t-98.5 -38.5z" />
    <glyph glyph-name="ellipsis" unicode="&#x2026;" horiz-adv-x="854" 
d="M156 -17q-39 0 -63.5 24.5t-24.5 62.5t24.5 62.5t63.5 24.5t64 -24.5t25 -62.5t-25 -62.5t-64 -24.5zM426 -17q-39 0 -63.5 24.5t-24.5 62.5t24.5 62.5t63.5 24.5t64 -24.5t25 -62.5t-25 -62.5t-64 -24.5zM697 -17q-39 0 -63.5 24.5t-24.5 62.5t24.5 62.5t63.5 24.5
t64 -24.5t25 -62.5t-25 -62.5t-64 -24.5z" />
    <glyph glyph-name="perthousand" unicode="&#x2030;" horiz-adv-x="1139" 
d="M184 393q-146 0 -146 161q0 73 35 116.5t111 43.5q145 0 145 -160q0 -161 -145 -161zM97 0l475 706h102l-476 -706h-101zM184 471q33 0 44 20.5t11 62.5q0 43 -11.5 62.5t-43.5 19.5q-34 0 -44.5 -20.5t-10.5 -61.5q0 -42 10.5 -62.5t44.5 -20.5zM588 -8q-146 0 -146 162
q0 73 35 116.5t111 43.5q145 0 145 -160q0 -162 -145 -162zM955 -8q-146 0 -146 162q0 73 35 116.5t111 43.5q145 0 145 -160q0 -162 -145 -162zM588 71q33 0 44 20.5t11 62.5q0 43 -11.5 62.5t-43.5 19.5q-34 0 -44.5 -20.5t-10.5 -61.5q0 -43 10.5 -63t44.5 -20zM955 71
q33 0 44 20.5t11 62.5q0 43 -11.5 62.5t-43.5 19.5q-34 0 -44.5 -20.5t-10.5 -61.5q0 -43 10.5 -63t44.5 -20z" />
    <glyph glyph-name="guilsinglleft" unicode="&#x2039;" horiz-adv-x="328" 
d="M166 123l-145 164l145 164h143l-145 -164l145 -164h-143z" />
    <glyph glyph-name="guilsinglright" unicode="&#x203a;" horiz-adv-x="328" 
d="M161 123h-143l146 164l-146 164h143l145 -164z" />
    <glyph glyph-name="fraction" unicode="&#x2044;" horiz-adv-x="218" 
d="M-145 0l417 706h91l-417 -706h-91z" />
    <glyph glyph-name="uni2070" unicode="&#x2070;" horiz-adv-x="438" 
d="M219 428q-177 0 -177 204t177 204q176 0 176 -204t-176 -204zM219 522q40 0 51.5 25.5t11.5 84.5t-11.5 84.5t-51.5 25.5t-51.5 -25.5t-11.5 -84.5q0 -60 11.5 -85t51.5 -25z" />
    <glyph glyph-name="uni2074" unicode="&#x2074;" horiz-adv-x="415" 
d="M238 438v75h-235v2l151 311h188v-223h59v-90h-59v-75h-104zM151 603h87v188z" />
    <glyph glyph-name="uni2075" unicode="&#x2075;" horiz-adv-x="387" 
d="M194 428q-83 0 -125 38.5t-42 107.5l104 -1q0 -62 61 -62q57 0 57 53q0 65 -122 65q-45 0 -83 -8l37 205h257l-14 -80h-155l-10 -56q25 5 54 5q73 0 110.5 -35.5t37.5 -93.5q0 -63 -44 -100.5t-123 -37.5z" />
    <glyph glyph-name="uni2076" unicode="&#x2076;" horiz-adv-x="426" 
d="M251 692q68 0 105.5 -34t37.5 -89q0 -62 -45 -101.5t-128 -39.5q-185 0 -185 202q0 206 186 206q136 0 162 -120h-102q-14 41 -59 41q-79 0 -79 -106q34 41 107 41zM219 508q30 0 45 15t15 39q0 54 -59 54q-29 0 -45 -14.5t-16 -40.5q0 -24 16 -38.5t44 -14.5z" />
    <glyph glyph-name="uni2077" unicode="&#x2077;" horiz-adv-x="366" 
d="M50 438l135 292h-162v96h329l-180 -388h-122z" />
    <glyph glyph-name="uni2078" unicode="&#x2078;" horiz-adv-x="393" 
d="M291 646q75 -17 75 -95q0 -60 -44 -91.5t-125 -31.5t-125.5 31.5t-44.5 91.5q0 77 75 95q-32 10 -49 33t-17 53q0 48 43.5 76t117.5 28q73 0 117 -28t44 -76q0 -30 -17.5 -53t-49.5 -33zM197 768q-54 0 -54 -44t54 -44t54 44t-54 44zM197 505q28 0 44 13.5t16 36.5
q0 48 -60 48t-60 -48q0 -50 60 -50z" />
    <glyph glyph-name="uni2079" unicode="&#x2079;" horiz-adv-x="426" 
d="M205 836q185 0 185 -202q0 -206 -185 -206q-137 0 -163 120h102q14 -41 59 -41q79 0 79 106q-34 -41 -107 -41q-68 0 -105.5 34t-37.5 89q0 62 45 101.5t128 39.5zM206 648q29 0 45 14.5t16 40.5q0 24 -16 38.5t-44 14.5q-30 0 -45 -15t-15 -39q0 -54 59 -54z" />
    <glyph glyph-name="uni207A" unicode="&#x207a;" horiz-adv-x="357" 
d="M324 673v-78h-107v-99h-78v99h-105v78h105v99h78v-99h107z" />
    <glyph glyph-name="uni207B" unicode="&#x207b;" horiz-adv-x="357" 
d="M34 595v78h290v-78h-290z" />
    <glyph glyph-name="uni207C" unicode="&#x207c;" horiz-adv-x="355" 
d="M34 655v67h287v-67h-287zM34 545v68h287v-68h-287z" />
    <glyph glyph-name="uni207D" unicode="&#x207d;" horiz-adv-x="261" 
d="M146 359q-80 130 -80 273q0 81 19.5 144t60.5 129h87q-82 -136 -82 -273q0 -136 82 -273h-87z" />
    <glyph glyph-name="uni207E" unicode="&#x207e;" horiz-adv-x="261" 
d="M115 359h-88q83 136 83 273q0 139 -83 273h88q41 -66 60.5 -129t19.5 -144q0 -143 -80 -273z" />
    <glyph glyph-name="uni207F" unicode="&#x207f;" horiz-adv-x="396" 
d="M245 749q50 0 77 -29t27 -82v-200h-103v176q0 25 -11 35.5t-34 10.5q-47 0 -47 -49v-173h-104v302h104v-33q33 42 91 42z" />
    <glyph glyph-name="uni2080" unicode="&#x2080;" horiz-adv-x="438" 
d="M219 -130q-177 0 -177 204t177 204q176 0 176 -204t-176 -204zM219 -36q40 0 51.5 25.5t11.5 84.5t-11.5 84.5t-51.5 25.5t-51.5 -25.5t-11.5 -84.5q0 -60 11.5 -85t51.5 -25z" />
    <glyph glyph-name="uni2081" unicode="&#x2081;" horiz-adv-x="283" 
d="M95 -120v290h-72l17 98h166v-388h-111z" />
    <glyph glyph-name="uni2082" unicode="&#x2082;" horiz-adv-x="379" 
d="M17 -120v5l176 186q28 30 38 46t10 33q0 44 -50 44q-56 0 -56 -58h-106q0 66 40.5 104.5t121.5 38.5q77 0 117 -33.5t40 -93.5q0 -52 -44 -96q-32 -32 -90 -80h137v-96h-334z" />
    <glyph glyph-name="uni2083" unicode="&#x2083;" horiz-adv-x="374" 
d="M273 83q74 -20 74 -95q0 -57 -43 -88t-122 -31q-87 0 -124.5 40t-37.5 116l97 -1q0 -71 62 -71q57 0 57 48q0 44 -67 44h-12v68h12q62 0 62 42q0 40 -50 40q-56 0 -56 -54h-98q0 66 42 102t120 36q70 0 109.5 -31t39.5 -82q0 -59 -65 -83z" />
    <glyph glyph-name="uni2084" unicode="&#x2084;" horiz-adv-x="415" 
d="M238 -120v75h-235v2l151 311h188v-223h59v-90h-59v-75h-104zM151 45h87v188z" />
    <glyph glyph-name="uni2085" unicode="&#x2085;" horiz-adv-x="387" 
d="M194 -130q-83 0 -125 38.5t-42 107.5l104 -1q0 -62 61 -62q57 0 57 53q0 65 -122 65q-45 0 -83 -8l37 205h257l-14 -80h-155l-10 -56q25 5 54 5q73 0 110.5 -35.5t37.5 -93.5q0 -63 -44 -100.5t-123 -37.5z" />
    <glyph glyph-name="uni2086" unicode="&#x2086;" horiz-adv-x="426" 
d="M251 134q68 0 105.5 -34t37.5 -89q0 -62 -45 -101.5t-128 -39.5q-185 0 -185 202q0 206 186 206q136 0 162 -120h-102q-14 41 -59 41q-79 0 -79 -106q34 41 107 41zM219 -50q30 0 45 15t15 39q0 54 -59 54q-29 0 -45 -14.5t-16 -40.5q0 -24 16 -38.5t44 -14.5z" />
    <glyph glyph-name="uni2087" unicode="&#x2087;" horiz-adv-x="366" 
d="M50 -120l135 292h-162v96h329l-180 -388h-122z" />
    <glyph glyph-name="uni2088" unicode="&#x2088;" horiz-adv-x="393" 
d="M291 88q75 -17 75 -95q0 -60 -44 -91.5t-125 -31.5t-125.5 31.5t-44.5 91.5q0 77 75 95q-32 10 -49 33t-17 53q0 48 43.5 76t117.5 28q73 0 117 -28t44 -76q0 -30 -17.5 -53t-49.5 -33zM197 210q-54 0 -54 -44t54 -44t54 44t-54 44zM197 -53q28 0 44 13.5t16 36.5
q0 48 -60 48t-60 -48q0 -50 60 -50z" />
    <glyph glyph-name="uni2089" unicode="&#x2089;" horiz-adv-x="427" 
d="M206 278q185 0 185 -202q0 -206 -186 -206q-136 0 -162 120h102q14 -41 59 -41q79 0 79 106q-34 -41 -107 -41q-68 0 -105.5 34t-37.5 89q0 62 45 101.5t128 39.5zM207 90q29 0 45 14.5t16 40.5q0 24 -16 38.5t-44 14.5q-30 0 -45 -15t-15 -39q0 -54 59 -54z" />
    <glyph glyph-name="uni208A" unicode="&#x208a;" horiz-adv-x="357" 
d="M324 115v-78h-107v-99h-78v99h-105v78h105v99h78v-99h107z" />
    <glyph glyph-name="uni208B" unicode="&#x208b;" horiz-adv-x="357" 
d="M34 37v78h290v-78h-290z" />
    <glyph glyph-name="uni208C" unicode="&#x208c;" horiz-adv-x="355" 
d="M34 97v67h287v-67h-287zM34 -13v68h287v-68h-287z" />
    <glyph glyph-name="uni208D" unicode="&#x208d;" horiz-adv-x="261" 
d="M146 -199q-80 130 -80 273q0 81 19.5 144t60.5 129h87q-82 -136 -82 -273q0 -136 82 -273h-87z" />
    <glyph glyph-name="uni208E" unicode="&#x208e;" horiz-adv-x="261" 
d="M115 -199h-88q83 136 83 273q0 139 -83 273h88q41 -66 60.5 -129t19.5 -144q0 -143 -80 -273z" />
    <glyph glyph-name="uni2099" unicode="&#x2099;" horiz-adv-x="396" 
d="M245 191q50 0 77 -29t27 -82v-200h-103v176q0 25 -11 35.5t-34 10.5q-47 0 -47 -49v-173h-104v302h104v-33q33 42 91 42z" />
    <glyph glyph-name="Euro" unicode="&#x20ac;" horiz-adv-x="752" 
d="M558 255h154q-1 -123 -86.5 -197.5t-215.5 -74.5q-141 0 -220.5 73.5t-101.5 197.5h-52v67h45q-1 11 -1 32q0 25 1 38h-45v67h53q23 121 102.5 193t217.5 72q132 0 214.5 -75.5t86.5 -200.5h-155q-1 72 -41.5 111.5t-111.5 39.5q-130 0 -158 -140h213v-67h-221
q-1 -12 -1 -37q0 -22 1 -33h221v-67h-214q25 -145 160 -145q149 0 155 146z" />
    <glyph glyph-name="uni20B9" unicode="&#x20b9;" horiz-adv-x="673" 
d="M544 441q-15 -169 -199 -179l232 -262h-171l-302 350h172q61 0 90.5 23t34.5 68h-336v72h335q-14 86 -114 86h-222v107h590v-72h-161q45 -42 51 -121h111v-72h-111z" />
    <glyph glyph-name="uni20BA" unicode="&#x20ba;" horiz-adv-x="609" 
d="M451 306h136q0 -150 -63.5 -228t-220.5 -78h-195v248l-72 -33v77l72 34v85l-72 -33v77l72 34v217h144v-160l175 80v-77l-175 -79v-85l175 79v-78l-175 -79v-185h36q96 0 129.5 45.5t33.5 138.5z" />
    <glyph glyph-name="uni20BC" unicode="&#x20bc;" horiz-adv-x="836" 
d="M491 615q146 -6 205.5 -77t59.5 -208v-330h-146v336q0 75 -25 117t-94 48v-501h-146v501q-68 -6 -93 -48t-25 -117v-336h-147v330q0 136 59.5 207.5t205.5 77.5v91h146v-91z" />
    <glyph glyph-name="uni2113" unicode="&#x2113;" horiz-adv-x="484" 
d="M210 192q7 -48 32.5 -68t76.5 -20q53 0 100 19v-110q-59 -21 -130 -21q-203 0 -219 185q-16 -1 -50 -1v99q34 0 49 1v186q0 134 45 193t147 59t146.5 -52t44.5 -168q0 -131 -57 -203.5t-185 -98.5zM207 511v-216q60 20 83 65.5t23 133.5q0 73 -12.5 98t-40.5 25
t-40.5 -23t-12.5 -83z" />
    <glyph glyph-name="uni2117" unicode="&#x2117;" horiz-adv-x="808" 
d="M405 -17q-172 0 -266.5 106.5t-94.5 263.5q0 158 96 264t266 106q168 0 263 -105.5t95 -264.5q0 -158 -95 -264t-264 -106zM405 43q95 0 162.5 43.5t98.5 112t31 152.5q0 138 -75 225t-216 87q-143 0 -219.5 -87.5t-76.5 -221.5q0 -133 77 -222t218 -89zM256 121v467h188
q104 0 138 -73q13 -33 13 -73q0 -43 -13 -74q-34 -72 -138 -72h-74v-175h-114zM370 382h48q41 0 52 27q6 10 6 33q0 22 -6 33q-11 26 -52 26h-48v-119z" />
    <glyph glyph-name="trademark" unicode="&#x2122;" horiz-adv-x="685" 
d="M79 396v235h-66v75h221v-75h-65v-235h-90zM266 396v310h107l79 -187l79 187h105v-310h-85v186l-79 -186h-41l-80 186v-186h-85z" />
    <glyph glyph-name="uni2126" unicode="&#x2126;" horiz-adv-x="718" 
d="M512 164v-55h144v-109h-256v251q66 10 95.5 60t29.5 122q0 179 -166 179q-86 0 -126 -49t-40 -130q0 -73 30.5 -122.5t95.5 -59.5v-251h-256v109h143v55q-83 32 -122.5 103t-39.5 166q0 134 79 212t236 78q159 0 237 -77.5t78 -212.5q0 -96 -39.5 -167t-122.5 -102z" />
    <glyph glyph-name="estimated" unicode="&#x212e;" horiz-adv-x="856" 
d="M433 -11q-100 0 -186 42.5t-139.5 121.5t-53.5 177q0 145 110.5 243t268.5 98q156 0 267 -99.5t111 -247.5h-608q-10 0 -10 -11v-197q47 -51 110 -78.5t130 -27.5q73 0 139 32.5t113 88.5h57q-56 -68 -138 -105t-171 -37zM203 347h461q9 0 9 11v184q-44 51 -108 79.5
t-132 28.5q-70 0 -133 -28.5t-107 -78.5v-185q0 -11 10 -11z" />
    <glyph glyph-name="partialdiff" unicode="&#x2202;" horiz-adv-x="627" 
d="M308 723q65 0 115.5 -19.5t82.5 -52t52.5 -80t29 -98.5t8.5 -112q0 -64 -9.5 -118.5t-32 -103t-56.5 -82.5t-86 -54t-118 -20q-130 0 -199 70.5t-69 181.5q0 104 59 166.5t171 62.5q137 0 194 -95v8q0 234 -147 234q-49 0 -78.5 -26.5t-38.5 -67.5h-141q14 96 83 151
t180 55zM302 99q63 0 94 37t31 93q0 59 -32.5 95t-94.5 36t-92.5 -36t-30.5 -93q0 -59 31 -95.5t94 -36.5z" />
    <glyph glyph-name="uni2206" unicode="&#x2206;" horiz-adv-x="680" 
d="M450 706l224 -706h-668l224 706h220zM193 114h295l-147 483h-2z" />
    <glyph glyph-name="product" unicode="&#x220f;" horiz-adv-x="728" 
d="M80 -201v907h567v-907h-146v785h-274v-785h-147z" />
    <glyph glyph-name="summation" unicode="&#x2211;" horiz-adv-x="596" 
d="M31 -200l231 470l-225 436h472v-121h-245l157 -315l-166 -349h271v-121h-495z" />
    <glyph glyph-name="minus" unicode="&#x2212;" horiz-adv-x="589" 
d="M55 237v109h478v-109h-478z" />
    <glyph glyph-name="uni2215" unicode="&#x2215;" horiz-adv-x="589" 
d="M128 0l292 706h126l-292 -706h-126z" />
    <glyph glyph-name="uni2219" unicode="&#x2219;" horiz-adv-x="589" 
d="M294 282q-39 0 -63.5 24.5t-24.5 62.5t24.5 62.5t63.5 24.5t64 -24.5t25 -62.5t-25 -62.5t-64 -24.5z" />
    <glyph glyph-name="radical" unicode="&#x221a;" horiz-adv-x="714" 
d="M556 706h152l-290 -909h-154l-159 430l-95 -29v138l196 53l135 -408z" />
    <glyph glyph-name="infinity" unicode="&#x221e;" horiz-adv-x="830" 
d="M603 462q92 0 141 -61.5t49 -152.5q0 -92 -48 -153t-142 -61q-63 0 -107 30t-81 84q-38 -54 -82 -84t-106 -30q-93 0 -141.5 61.5t-48.5 152.5q0 92 48.5 153t141.5 61q62 0 106 -30t82 -84q78 114 188 114zM241 155q34 0 58.5 23.5t49.5 69.5q-25 46 -49.5 69.5
t-58.5 23.5q-37 0 -55.5 -26t-18.5 -67t19 -67t55 -26zM589 155q36 0 55 26t19 67t-18.5 67t-55.5 26q-34 0 -58.5 -23.5t-49.5 -69.5q25 -46 49.5 -69.5t58.5 -23.5z" />
    <glyph glyph-name="integral" unicode="&#x222b;" horiz-adv-x="388" 
d="M77 -207q-47 0 -77 6l22 118q14 -1 33 -1q50 0 56 53l43 579q7 84 47.5 123.5t123.5 39.5q38 0 63 -5l-24 -121q-14 2 -22 2q-46 0 -50 -55l-45 -579q-7 -83 -47 -121.5t-123 -38.5z" />
    <glyph glyph-name="approxequal" unicode="&#x2248;" horiz-adv-x="589" 
d="M389 310q-11 0 -22 2t-18 3.5t-18.5 6.5t-15 6.5t-16.5 8.5l-13 7q-43 25 -67 25q-42 0 -48 -56h-92q10 157 120 157q42 0 104 -33q41 -25 66 -25q42 0 47 54h93q-9 -156 -120 -156zM389 113q-42 0 -103 34q-46 25 -67 25q-41 0 -48 -56h-92q10 156 120 156q44 0 104 -32
q43 -26 66 -26q42 0 47 55h93q-9 -156 -120 -156z" />
    <glyph glyph-name="notequal" unicode="&#x2260;" horiz-adv-x="589" 
d="M533 337h-162l-60 -91h222v-109h-286l-69 -105h-77l68 105h-114v109h178l61 91h-239v108h302l69 106h78l-68 -106h97v-108z" />
    <glyph glyph-name="lessequal" unicode="&#x2264;" horiz-adv-x="589" 
d="M533 552v-113l-403 -79l403 -80v-112l-477 107v168zM55 31v110h478v-110h-478z" />
    <glyph glyph-name="greaterequal" unicode="&#x2265;" horiz-adv-x="589" 
d="M55 552l478 -109v-168l-478 -107v112l404 80l-404 79v113zM55 31v110h478v-110h-478z" />
    <glyph glyph-name="lozenge" unicode="&#x25ca;" horiz-adv-x="557" 
d="M200 -201l-179 454l179 453h158l178 -453l-178 -454h-158zM279 -64l117 317l-117 315l-116 -315z" />
    <glyph glyph-name="uniFB00" unicode="&#xfb00;" horiz-adv-x="703" 
d="M80 0v386h-62v110h62v56q0 89 42 129t138 40q37 0 70 -7v-112q-20 6 -45 6q-68 0 -68 -70v-42h110v-110h-110v-386h-137zM436 0v386h-62v110h62v56q0 89 42 129t138 40q37 0 70 -7v-112q-20 6 -45 6q-68 0 -68 -70v-42h110v-110h-110v-386h-137z" />
    <glyph glyph-name="fi" unicode="&#xfb01;" horiz-adv-x="619" 
d="M484 576q-34 0 -56 21.5t-22 53.5t22 54t56 22q33 0 55.5 -22t22.5 -54t-22.5 -53.5t-55.5 -21.5zM80 0v386h-62v110h62v56q0 89 42 129t138 40q37 0 70 -7v-112q-20 6 -45 6q-68 0 -68 -70v-42h110v-110h-110v-386h-137zM415 0v496h137v-496h-137z" />
    <glyph glyph-name="fl" unicode="&#xfb02;" horiz-adv-x="619" 
d="M80 0v386h-62v110h62v56q0 89 42 129t138 40q37 0 70 -7v-112q-20 6 -45 6q-68 0 -68 -70v-42h110v-110h-110v-386h-137zM415 0v706h137v-706h-137z" />
    <glyph glyph-name="uniFB03" unicode="&#xfb03;" horiz-adv-x="974" 
d="M839 576q-34 0 -56 21.5t-22 53.5t22 54t56 22q33 0 55.5 -22t22.5 -54t-22.5 -53.5t-55.5 -21.5zM80 0v386h-62v110h62v56q0 89 42 129t138 40q37 0 70 -7v-112q-20 6 -45 6q-68 0 -68 -70v-42h110v-110h-110v-386h-137zM436 0v386h-62v110h62v56q0 89 42 129t138 40
q37 0 70 -7v-112q-20 6 -45 6q-68 0 -68 -70v-42h110v-110h-110v-386h-137zM770 0v496h138v-496h-138z" />
    <glyph glyph-name="uniFB04" unicode="&#xfb04;" horiz-adv-x="974" 
d="M80 0v386h-62v110h62v56q0 89 42 129t138 40q37 0 70 -7v-112q-20 6 -45 6q-68 0 -68 -70v-42h110v-110h-110v-386h-137zM436 0v386h-62v110h62v56q0 89 42 129t138 40q37 0 70 -7v-112q-20 6 -45 6q-68 0 -68 -70v-42h110v-110h-110v-386h-137zM770 0v706h138v-706h-138
z" />
    <glyph glyph-name="uniFEFF" unicode="&#xfeff;" 
 />
    <glyph glyph-name="uni00A40301" horiz-adv-x="381" 
d="M154 774l100 137h144l-114 -137h-130zM83 -3q-34 0 -62 4v132q18 -3 41 -3q60 0 84 26.5t24 93.5v456h147v-476q0 -119 -55.5 -176t-178.5 -57z" />
    <glyph glyph-name="M.ss01" horiz-adv-x="844" 
d="M80 0v706h182l163 -275l159 275h180v-706h-142v531l-167 -286h-64l-169 286v-531h-142z" />
    <glyph glyph-name="Q.ss02" horiz-adv-x="747" 
d="M703 353q0 -115 -39.5 -202t-121.5 -131l68 -126l-129 -60l-74 150q-11 -1 -33 -1q-87 0 -152.5 29.5t-103 82t-56 117t-18.5 141.5q0 78 18.5 143t57 116.5t103.5 81t151 29.5q87 0 152 -29.5t102.5 -81.5t56 -117t18.5 -142zM199 353q0 -53 7.5 -94t26 -76.5t54.5 -55
t87 -19.5q174 0 174 245t-174 245q-42 0 -73.5 -13.5t-50.5 -35.5t-31 -54.5t-16 -66.5t-4 -75z" />
    <glyph glyph-name="Oslash.ss04" horiz-adv-x="747" 
d="M725 707l-87 -108q65 -95 65 -246q0 -78 -18.5 -143.5t-56.5 -117t-103 -80.5t-151 -29q-98 0 -167 37l-79 -102l-104 80l87 107q-67 96 -67 248q0 78 18.5 143t57 116.5t103.5 81t151 29.5q96 0 169 -38l79 102zM374 108q174 0 174 245t-174 245q-42 0 -73.5 -13.5
t-50.5 -35.5t-31 -54.5t-16 -66.5t-4 -75q0 -53 7.5 -94t26 -76.5t54.5 -55t87 -19.5z" />
    <glyph glyph-name="i.loclTRK" horiz-adv-x="271" 
d="M136 576q-34 0 -56 21.5t-22 53.5t22 54t56 22q33 0 55.5 -22t22.5 -54t-22.5 -53.5t-55.5 -21.5zM67 0v496h137v-496h-137z" />
    <glyph glyph-name="uni006A0301" horiz-adv-x="271" 
d="M58 571l73 156h136l-91 -156h-118zM45 -204q-43 0 -62 3v120q12 -2 32 -2q27 0 39.5 13t12.5 42v524h137v-540q0 -85 -37.5 -122.5t-121.5 -37.5z" />
    <glyph glyph-name="oslash.ss04" horiz-adv-x="577" 
d="M480 433q60 -70 60 -184q0 -115 -63 -188.5t-188 -73.5q-54 0 -98 15l-47 -76l-101 58l55 80q-61 70 -61 185q0 114 64 187t188 73q55 0 98 -15l47 75l100 -57zM289 104q61 0 83 39t22 106q0 68 -22.5 106t-82.5 38t-83 -38.5t-23 -105.5q0 -69 23.5 -107t82.5 -38z" />
    <glyph glyph-name="f_i" horiz-adv-x="619" 
d="M484 576q-34 0 -56 21.5t-22 53.5t22 54t56 22q33 0 55.5 -22t22.5 -54t-22.5 -53.5t-55.5 -21.5zM80 0v386h-62v110h62v56q0 89 42 129t138 40q37 0 70 -7v-112q-20 6 -45 6q-68 0 -68 -70v-42h110v-110h-110v-386h-137zM415 0v496h137v-496h-137z" />
    <glyph glyph-name="f_l" horiz-adv-x="619" 
d="M80 0v386h-62v110h62v56q0 89 42 129t138 40q37 0 70 -7v-112q-20 6 -45 6q-68 0 -68 -70v-42h110v-110h-110v-386h-137zM415 0v706h137v-706h-137z" />
    <glyph glyph-name="a.sc" horiz-adv-x="604" 
d="M451 0l-34 111h-230l-34 -111h-147l189 588h214l189 -588h-147zM221 221h162l-80 260h-2z" />
    <glyph glyph-name="aacute.sc" horiz-adv-x="604" 
d="M444 819l-103 -156h-123l90 156h136zM451 0l-34 111h-230l-34 -111h-147l189 588h214l189 -588h-147zM221 221h162l-80 260h-2z" />
    <glyph glyph-name="abreve.sc" horiz-adv-x="604" 
d="M303 656q-166 0 -175 164h100q4 -45 21.5 -65.5t53.5 -20.5t53 20.5t22 65.5h98q-8 -164 -173 -164zM451 0l-34 111h-230l-34 -111h-147l189 588h214l189 -588h-147zM221 221h162l-80 260h-2z" />
    <glyph glyph-name="acircumflex.sc" horiz-adv-x="604" 
d="M301 757l-57 -95h-124l101 158h162l100 -158h-123zM451 0l-34 111h-230l-34 -111h-147l189 588h214l189 -588h-147zM221 221h162l-80 260h-2z" />
    <glyph glyph-name="adieresis.sc" horiz-adv-x="604" 
d="M200 665q-32 0 -53.5 20.5t-21.5 51.5t21.5 51.5t53.5 20.5t53 -20.5t21 -51.5t-21 -51.5t-53 -20.5zM404 665q-32 0 -53.5 20.5t-21.5 51.5t21.5 51.5t53.5 20.5q31 0 52.5 -20.5t21.5 -51.5t-21.5 -51.5t-52.5 -20.5zM451 0l-34 111h-230l-34 -111h-147l189 588h214
l189 -588h-147zM221 221h162l-80 260h-2z" />
    <glyph glyph-name="agrave.sc" horiz-adv-x="604" 
d="M386 663h-123l-103 156h137zM451 0l-34 111h-230l-34 -111h-147l189 588h214l189 -588h-147zM221 221h162l-80 260h-2z" />
    <glyph glyph-name="amacron.sc" horiz-adv-x="604" 
d="M451 780v-89h-299v89h299zM451 0l-34 111h-230l-34 -111h-147l189 588h214l189 -588h-147zM221 221h162l-80 260h-2z" />
    <glyph glyph-name="aogonek.sc" horiz-adv-x="604" 
d="M560 -131q23 0 41 7v-77q-29 -12 -74 -12q-54 0 -85.5 23.5t-31.5 68.5q0 67 91 121h-50l-34 111h-230l-34 -111h-147l189 588h214l189 -588q-39 -29 -58 -50.5t-19 -45.5q0 -35 39 -35zM221 221h162l-80 260h-2z" />
    <glyph glyph-name="aring.sc" horiz-adv-x="604" 
d="M301 643q-58 0 -93.5 33t-35.5 86q0 54 35 86.5t94 32.5t94.5 -33t35.5 -86t-36 -86t-94 -33zM301 813q-23 0 -37 -14t-14 -37t14 -36.5t37 -13.5q24 0 38 13.5t14 36.5t-14 37t-38 14zM451 0l-34 111h-230l-34 -111h-147l189 588h214l189 -588h-147zM221 221h162
l-80 260h-2z" />
    <glyph glyph-name="aringacute.sc" horiz-adv-x="604" 
d="M444 1111l-103 -156h-123l90 156h136zM301 643q-58 0 -93.5 33t-35.5 86q0 54 35 86.5t94 32.5t94.5 -33t35.5 -86t-36 -86t-94 -33zM301 813q-23 0 -37 -14t-14 -37t14 -36.5t37 -13.5q24 0 38 13.5t14 36.5t-14 37t-38 14zM451 0l-34 111h-230l-34 -111h-147l189 588
h214l189 -588h-147zM221 221h162l-80 260h-2z" />
    <glyph glyph-name="atilde.sc" horiz-adv-x="604" 
d="M237 727q-32 0 -35 -64h-80q2 81 26 120t74 39q41 0 84 -36q41 -31 59 -31q19 0 26.5 15t9.5 50h80q-2 -82 -26 -120.5t-75 -38.5q-46 0 -83 34q-39 32 -60 32zM451 0l-34 111h-230l-34 -111h-147l189 588h214l189 -588h-147zM221 221h162l-80 260h-2z" />
    <glyph glyph-name="ae.sc" horiz-adv-x="736" 
d="M682 470h-219l14 -113h202v-118h-188l15 -122h176v-117h-306l-12 113h-170l-40 -113h-148l222 588h454v-118zM233 222h119l-28 252h-2z" />
    <glyph glyph-name="aeacute.sc" horiz-adv-x="736" 
d="M547 819l-103 -156h-123l90 156h136zM682 470h-219l14 -113h202v-118h-188l15 -122h176v-117h-306l-12 113h-170l-40 -113h-148l222 588h454v-118zM233 222h119l-28 252h-2z" />
    <glyph glyph-name="b.sc" horiz-adv-x="569" 
d="M415 315q120 -36 120 -149q0 -78 -51 -122t-151 -44h-253v588h255q89 0 134.5 -40.5t45.5 -104.5q0 -100 -100 -128zM222 491v-137h60q88 0 88 70q0 67 -91 67h-57zM279 98q107 0 107 77q0 81 -104 81h-60v-158h57z" />
    <glyph glyph-name="c.sc" horiz-adv-x="637" 
d="M332 -15q-146 0 -217 86t-71 223q0 136 71 222t217 86q115 0 187.5 -64.5t75.5 -170.5h-150q-2 53 -33 83t-86 30q-40 0 -67 -14.5t-40.5 -41.5t-19 -57.5t-5.5 -71.5q0 -90 28 -138t104 -48q116 0 121 105h150q-1 -103 -76 -166t-189 -63z" />
    <glyph glyph-name="cacute.sc" horiz-adv-x="637" 
d="M248 663l90 156h136l-103 -156h-123zM332 -15q-146 0 -217 86t-71 223q0 136 71 222t217 86q115 0 187.5 -64.5t75.5 -170.5h-150q-2 53 -33 83t-86 30q-40 0 -67 -14.5t-40.5 -41.5t-19 -57.5t-5.5 -71.5q0 -90 28 -138t104 -48q116 0 121 105h150q-1 -103 -76 -166
t-189 -63z" />
    <glyph glyph-name="ccaron.sc" horiz-adv-x="637" 
d="M513 819l-101 -157h-162l-100 157h123l58 -94l58 94h124zM332 -15q-146 0 -217 86t-71 223q0 136 71 222t217 86q115 0 187.5 -64.5t75.5 -170.5h-150q-2 53 -33 83t-86 30q-40 0 -67 -14.5t-40.5 -41.5t-19 -57.5t-5.5 -71.5q0 -90 28 -138t104 -48q116 0 121 105h150
q-1 -103 -76 -166t-189 -63z" />
    <glyph glyph-name="ccedilla.sc" horiz-adv-x="637" 
d="M597 214q-1 -94 -64.5 -155t-162.5 -72l-7 -26h9q46 0 72 -25t26 -65q0 -101 -144 -101q-52 0 -95 16l14 67q32 -13 70 -13q58 0 58 34t-60 34h-56l20 81q-118 16 -175.5 99t-57.5 206q0 136 71 222t217 86q115 0 187.5 -64.5t75.5 -170.5h-150q-2 53 -33 83t-86 30
q-40 0 -67 -14.5t-40.5 -41.5t-19 -57.5t-5.5 -71.5q0 -90 28 -138t104 -48q116 0 121 105h150z" />
    <glyph glyph-name="ccircumflex.sc" horiz-adv-x="637" 
d="M150 662l101 158h162l100 -158h-123l-59 95l-57 -95h-124zM332 -15q-146 0 -217 86t-71 223q0 136 71 222t217 86q115 0 187.5 -64.5t75.5 -170.5h-150q-2 53 -33 83t-86 30q-40 0 -67 -14.5t-40.5 -41.5t-19 -57.5t-5.5 -71.5q0 -90 28 -138t104 -48q116 0 121 105h150
q-1 -103 -76 -166t-189 -63z" />
    <glyph glyph-name="cdotaccent.sc" horiz-adv-x="637" 
d="M332 669q-34 0 -56 21t-22 53q0 33 22 54.5t56 21.5q33 0 55.5 -21.5t22.5 -54.5q0 -31 -22.5 -52.5t-55.5 -21.5zM332 -15q-146 0 -217 86t-71 223q0 136 71 222t217 86q115 0 187.5 -64.5t75.5 -170.5h-150q-2 53 -33 83t-86 30q-40 0 -67 -14.5t-40.5 -41.5t-19 -57.5
t-5.5 -71.5q0 -90 28 -138t104 -48q116 0 121 105h150q-1 -103 -76 -166t-189 -63z" />
    <glyph glyph-name="d.sc" horiz-adv-x="644" 
d="M80 0v588h235q148 0 216.5 -80t68.5 -214q0 -135 -68.5 -214.5t-216.5 -79.5h-235zM222 117h69q91 0 125 46t34 131t-34.5 130.5t-124.5 45.5h-69v-353z" />
    <glyph glyph-name="eth.sc" horiz-adv-x="644" 
d="M315 588q148 0 216.5 -80t68.5 -214q0 -135 -68.5 -214.5t-216.5 -79.5h-235v259h-52v87h52v242h235zM291 117q91 0 125 46t34 131t-34.5 130.5t-124.5 45.5h-69v-124h131v-87h-131v-142h69z" />
    <glyph glyph-name="dcaron.sc" horiz-adv-x="644" 
d="M500 819l-101 -157h-162l-100 157h123l58 -94l58 94h124zM80 0v588h235q148 0 216.5 -80t68.5 -214q0 -135 -68.5 -214.5t-216.5 -79.5h-235zM222 117h69q91 0 125 46t34 131t-34.5 130.5t-124.5 45.5h-69v-353z" />
    <glyph glyph-name="dcroat.sc" horiz-adv-x="644" 
d="M315 588q148 0 216.5 -80t68.5 -214q0 -135 -68.5 -214.5t-216.5 -79.5h-235v259h-52v87h52v242h235zM291 117q91 0 125 46t34 131t-34.5 130.5t-124.5 45.5h-69v-124h131v-87h-131v-142h69z" />
    <glyph glyph-name="e.sc" horiz-adv-x="512" 
d="M80 0v588h378v-118h-236v-114h233v-117h-233v-122h236v-117h-378z" />
    <glyph glyph-name="eacute.sc" horiz-adv-x="512" 
d="M187 663l90 156h136l-103 -156h-123zM80 0v588h378v-118h-236v-114h233v-117h-233v-122h236v-117h-378z" />
    <glyph glyph-name="ebreve.sc" horiz-adv-x="512" 
d="M272 656q-166 0 -175 164h100q4 -45 21.5 -65.5t53.5 -20.5t53 20.5t22 65.5h98q-8 -164 -173 -164zM80 0v588h378v-118h-236v-114h233v-117h-233v-122h236v-117h-378z" />
    <glyph glyph-name="ecaron.sc" horiz-adv-x="512" 
d="M453 819l-101 -157h-162l-100 157h123l58 -94l58 94h124zM80 0v588h378v-118h-236v-114h233v-117h-233v-122h236v-117h-378z" />
    <glyph glyph-name="ecircumflex.sc" horiz-adv-x="512" 
d="M90 662l101 158h162l100 -158h-123l-59 95l-57 -95h-124zM80 0v588h378v-118h-236v-114h233v-117h-233v-122h236v-117h-378z" />
    <glyph glyph-name="edieresis.sc" horiz-adv-x="512" 
d="M169 665q-32 0 -53.5 20.5t-21.5 51.5t21.5 51.5t53.5 20.5t53 -20.5t21 -51.5t-21 -51.5t-53 -20.5zM373 665q-32 0 -53.5 20.5t-21.5 51.5t21.5 51.5t53.5 20.5q31 0 52.5 -20.5t21.5 -51.5t-21.5 -51.5t-52.5 -20.5zM80 0v588h378v-118h-236v-114h233v-117h-233v-122
h236v-117h-378z" />
    <glyph glyph-name="edotaccent.sc" horiz-adv-x="512" 
d="M271 669q-34 0 -56 21t-22 53q0 33 22 54.5t56 21.5q33 0 55.5 -21.5t22.5 -54.5q0 -31 -22.5 -52.5t-55.5 -21.5zM80 0v588h378v-118h-236v-114h233v-117h-233v-122h236v-117h-378z" />
    <glyph glyph-name="egrave.sc" horiz-adv-x="512" 
d="M355 663h-123l-103 156h137zM80 0v588h378v-118h-236v-114h233v-117h-233v-122h236v-117h-378z" />
    <glyph glyph-name="emacron.sc" horiz-adv-x="512" 
d="M121 691v89h299v-89h-299zM80 0v588h378v-118h-236v-114h233v-117h-233v-122h236v-117h-378z" />
    <glyph glyph-name="eogonek.sc" horiz-adv-x="512" 
d="M420 -131q23 0 41 7v-77q-29 -12 -74 -12q-54 0 -85.5 23.5t-31.5 68.5q0 67 91 121h-281v588h378v-118h-236v-114h233v-117h-233v-122h236v-117q-39 -29 -58 -50.5t-19 -45.5q0 -35 39 -35z" />
    <glyph glyph-name="uni0259.sc" horiz-adv-x="621" 
d="M298 602q140 0 209 -86.5t69 -223.5q0 -135 -68 -221t-209 -86q-131 0 -193 82t-62 210v42h382q-3 77 -30 120t-95 43q-101 0 -111 -100h-141q6 101 74 160.5t175 59.5zM295 106q59 0 88 27.5t39 81.5h-241q7 -109 114 -109z" />
    <glyph glyph-name="f.sc" horiz-adv-x="481" 
d="M80 0v588h359v-118h-217v-114h215v-117h-215v-239h-142z" />
    <glyph glyph-name="g.sc" horiz-adv-x="640" 
d="M331 322h265v-44q0 -131 -64 -212t-200 -81q-146 0 -217 86.5t-71 222.5t72 222t218 86q111 0 181 -59t77 -159h-142q-11 99 -120 99q-42 0 -70 -14t-42 -41.5t-19.5 -59t-5.5 -74.5q0 -95 29.5 -142t112.5 -47q64 0 92.5 28t32.5 83h-129v106z" />
    <glyph glyph-name="gbreve.sc" horiz-adv-x="640" 
d="M333 656q-166 0 -175 164h100q4 -45 21.5 -65.5t53.5 -20.5t53 20.5t22 65.5h98q-8 -164 -173 -164zM331 322h265v-44q0 -131 -64 -212t-200 -81q-146 0 -217 86.5t-71 222.5t72 222t218 86q111 0 181 -59t77 -159h-142q-11 99 -120 99q-42 0 -70 -14t-42 -41.5
t-19.5 -59t-5.5 -74.5q0 -95 29.5 -142t112.5 -47q64 0 92.5 28t32.5 83h-129v106z" />
    <glyph glyph-name="gcircumflex.sc" horiz-adv-x="640" 
d="M331 757l-57 -95h-124l101 158h162l100 -158h-123zM331 322h265v-44q0 -131 -64 -212t-200 -81q-146 0 -217 86.5t-71 222.5t72 222t218 86q111 0 181 -59t77 -159h-142q-11 99 -120 99q-42 0 -70 -14t-42 -41.5t-19.5 -59t-5.5 -74.5q0 -95 29.5 -142t112.5 -47
q64 0 92.5 28t32.5 83h-129v106z" />
    <glyph glyph-name="uni0123.sc" horiz-adv-x="640" 
d="M331 322h265v-44q0 -131 -64 -212t-200 -81q-146 0 -217 86.5t-71 222.5t72 222t218 86q111 0 181 -59t77 -159h-142q-11 99 -120 99q-42 0 -70 -14t-42 -41.5t-19.5 -59t-5.5 -74.5q0 -95 29.5 -142t112.5 -47q64 0 92.5 28t32.5 83h-129v106zM226 -200l36 148h142
l-52 -148h-126z" />
    <glyph glyph-name="gdotaccent.sc" horiz-adv-x="640" 
d="M332 669q-34 0 -56 21t-22 53q0 33 22 54.5t56 21.5q33 0 55.5 -21.5t22.5 -54.5q0 -31 -22.5 -52.5t-55.5 -21.5zM331 322h265v-44q0 -131 -64 -212t-200 -81q-146 0 -217 86.5t-71 222.5t72 222t218 86q111 0 181 -59t77 -159h-142q-11 99 -120 99q-42 0 -70 -14
t-42 -41.5t-19.5 -59t-5.5 -74.5q0 -95 29.5 -142t112.5 -47q64 0 92.5 28t32.5 83h-129v106z" />
    <glyph glyph-name="h.sc" horiz-adv-x="659" 
d="M80 0v588h142v-231h215v231h142v-588h-142v236h-215v-236h-142z" />
    <glyph glyph-name="hbar.sc" horiz-adv-x="659" 
d="M437 588h142v-588h-142v236h-215v-236h-142v588h142v-75h215v75zM222 357h215v70h-215v-70z" />
    <glyph glyph-name="hcircumflex.sc" horiz-adv-x="659" 
d="M149 662l101 158h162l100 -158h-123l-59 95l-57 -95h-124zM80 0v588h142v-231h215v231h142v-588h-142v236h-215v-236h-142z" />
    <glyph glyph-name="i.sc" horiz-adv-x="302" 
d="M80 0v588h142v-588h-142z" />
    <glyph glyph-name="dotlessi.sc" horiz-adv-x="302" 
d="M80 0v588h142v-588h-142z" />
    <glyph glyph-name="iacute.sc" horiz-adv-x="302" 
d="M74 663l73 156h136l-91 -156h-118zM80 0v588h142v-588h-142z" />
    <glyph glyph-name="ibreve.sc" horiz-adv-x="302" 
d="M151 655q-139 0 -139 165h88q0 -48 12 -67t39 -19q26 0 38 19t12 67h88q-2 -165 -138 -165zM80 0v588h142v-588h-142z" />
    <glyph glyph-name="icircumflex.sc" horiz-adv-x="302" 
d="M6 662l78 158h133l78 -158h-101l-43 92l-44 -92h-101zM80 0v588h142v-588h-142z" />
    <glyph glyph-name="idieresis.sc" horiz-adv-x="302" 
d="M76 671q-28 0 -45.5 18.5t-17.5 48.5q0 31 17.5 49.5t45.5 18.5t45 -18.5t17 -49.5q0 -30 -17 -48.5t-45 -18.5zM225 671q-28 0 -45.5 18.5t-17.5 48.5q0 31 17.5 49.5t45.5 18.5t45 -18.5t17 -49.5q0 -30 -17 -48.5t-45 -18.5zM80 0v588h142v-588h-142z" />
    <glyph glyph-name="i.sc.loclTRK" horiz-adv-x="302" 
d="M151 668q-34 0 -56 21.5t-22 53.5t22 54t56 22q33 0 55.5 -22t22.5 -54t-22.5 -53.5t-55.5 -21.5zM80 0v588h142v-588h-142z" />
    <glyph glyph-name="igrave.sc" horiz-adv-x="302" 
d="M228 663h-118l-91 156h135zM80 0v588h142v-588h-142z" />
    <glyph glyph-name="ij.sc" horiz-adv-x="651" 
d="M80 0v588h142v-588h-142zM376 -3q-29 0 -53 4v129q20 -2 34 -2q49 0 68.5 20t19.5 71v369h141v-388q0 -104 -49.5 -153.5t-160.5 -49.5z" />
    <glyph glyph-name="imacron.sc" horiz-adv-x="302" 
d="M29 691v89h244v-89h-244zM80 0v588h142v-588h-142z" />
    <glyph glyph-name="iogonek.sc" horiz-adv-x="302" 
d="M195 -131q16 0 31 7v-78q-26 -11 -64 -11q-49 0 -78 22t-29 62q0 72 72 129h-47v588h142v-588h-1q-55 -60 -55 -104q0 -27 29 -27z" />
    <glyph glyph-name="itilde.sc" horiz-adv-x="302" 
d="M209 661q-40 0 -69 40q-21 28 -32 28q-24 0 -26 -66h-75q2 84 20 121.5t63 37.5q41 0 71 -41q18 -27 31 -27q14 0 19.5 15.5t6.5 50.5h76q-2 -84 -20.5 -121.5t-64.5 -37.5zM80 0v588h142v-588h-142z" />
    <glyph glyph-name="j.sc" horiz-adv-x="349" 
d="M74 -3q-29 0 -53 4v129q20 -2 34 -2q49 0 68.5 20t19.5 71v369h141v-388q0 -104 -49.5 -153.5t-160.5 -49.5z" />
    <glyph glyph-name="uni006A0301.sc" horiz-adv-x="349" 
d="M137 663l73 156h136l-91 -156h-118zM74 -3q-29 0 -53 4v129q20 -2 34 -2q49 0 68.5 20t19.5 71v369h141v-388q0 -104 -49.5 -153.5t-160.5 -49.5z" />
    <glyph glyph-name="jcircumflex.sc" horiz-adv-x="349" 
d="M69 662l78 158h133l78 -158h-101l-43 92l-44 -92h-101zM74 -3q-29 0 -53 4v129q20 -2 34 -2q49 0 68.5 20t19.5 71v369h141v-388q0 -104 -49.5 -153.5t-160.5 -49.5z" />
    <glyph glyph-name="k.sc" horiz-adv-x="608" 
d="M602 0h-174l-206 268v-268h-142v588h142v-217l178 217h165l-220 -263z" />
    <glyph glyph-name="uni0137.sc" horiz-adv-x="608" 
d="M345 325l257 -325h-174l-206 268v-268h-142v588h142v-217l178 217h165zM207 -200l36 148h142l-52 -148h-126z" />
    <glyph glyph-name="kgreenlandic.sc" horiz-adv-x="608" 
d="M602 0h-174l-206 268v-268h-142v588h142v-217l178 217h165l-220 -263z" />
    <glyph glyph-name="l.sc" horiz-adv-x="437" 
d="M80 0v588h142v-462h194v-126h-336z" />
    <glyph glyph-name="lacute.sc" horiz-adv-x="437" 
d="M94 663l90 156h136l-103 -156h-123zM80 0v588h142v-462h194v-126h-336z" />
    <glyph glyph-name="lcaron.sc" horiz-adv-x="437" 
d="M80 0v588h142v-462h194v-126h-336zM261 417l25 171h116l-39 -171h-102z" />
    <glyph glyph-name="uni013C.sc" horiz-adv-x="437" 
d="M80 0v588h142v-462h194v-126h-336zM145 -200l36 148h142l-52 -148h-126z" />
    <glyph glyph-name="ldot.sc" horiz-adv-x="513" 
d="M80 0v588h142v-462h194v-126h-336zM394 277q-39 0 -63.5 24t-24.5 62t24.5 62.5t63.5 24.5t64 -24.5t25 -62.5t-25 -62t-64 -24z" />
    <glyph glyph-name="lslash.sc" horiz-adv-x="437" 
d="M222 126h194v-126h-336v223l-60 -39v110l60 40v254h142v-183l132 88v-112l-132 -88v-167z" />
    <glyph glyph-name="m.sc" horiz-adv-x="804" 
d="M80 0v588h166l156 -356l157 356h164v-588h-134v359l-156 -359h-63l-157 359v-359h-133z" />
    <glyph glyph-name="n.sc" horiz-adv-x="676" 
d="M80 0v588h140l238 -363v363h137v-588h-141l-237 364v-364h-137z" />
    <glyph glyph-name="nacute.sc" horiz-adv-x="676" 
d="M254 663l90 156h136l-103 -156h-123zM80 0v588h140l238 -363v363h137v-588h-141l-237 364v-364h-137z" />
    <glyph glyph-name="napostrophe.sc" horiz-adv-x="877" 
d="M38 424l68 282h143l-104 -282h-107zM299 0v588h140l238 -363v363h137v-588h-141l-237 364v-364h-137z" />
    <glyph glyph-name="ncaron.sc" horiz-adv-x="676" 
d="M520 819l-101 -157h-162l-100 157h123l58 -94l58 94h124zM80 0v588h140l238 -363v363h137v-588h-141l-237 364v-364h-137z" />
    <glyph glyph-name="uni0146.sc" horiz-adv-x="676" 
d="M80 0v588h140l238 -363v363h137v-588h-141l-237 364v-364h-137zM230 -200l36 148h142l-52 -148h-126z" />
    <glyph glyph-name="eng.sc" horiz-adv-x="676" 
d="M458 588h137v-619q0 -72 -34.5 -105.5t-111.5 -33.5q-30 0 -60 3v112q18 -2 25 -2q45 0 45 41v19l-242 360v-363h-137v588h140l238 -359v359z" />
    <glyph glyph-name="ntilde.sc" horiz-adv-x="676" 
d="M417 661q-46 0 -83 34q-39 32 -60 32q-32 0 -35 -64h-80q2 81 26 120t74 39q41 0 84 -36q41 -31 59 -31q19 0 26.5 15t9.5 50h80q-2 -82 -26 -120.5t-75 -38.5zM80 0v588h140l238 -363v363h137v-588h-141l-237 364v-364h-137z" />
    <glyph glyph-name="o.sc" horiz-adv-x="665" 
d="M332 -15q-146 0 -217 87t-71 222q0 65 16.5 119.5t50 97.5t90 67t131.5 24q147 0 218 -86.5t71 -221.5q0 -137 -71 -223t-218 -86zM332 108q139 0 139 186t-139 186q-78 0 -108 -50.5t-30 -135.5q0 -186 138 -186z" />
    <glyph glyph-name="oacute.sc" horiz-adv-x="665" 
d="M248 663l90 156h136l-103 -156h-123zM332 -15q-146 0 -217 87t-71 222q0 65 16.5 119.5t50 97.5t90 67t131.5 24q147 0 218 -86.5t71 -221.5q0 -137 -71 -223t-218 -86zM332 108q139 0 139 186t-139 186q-78 0 -108 -50.5t-30 -135.5q0 -186 138 -186z" />
    <glyph glyph-name="obreve.sc" horiz-adv-x="665" 
d="M333 656q-166 0 -175 164h100q4 -45 21.5 -65.5t53.5 -20.5t53 20.5t22 65.5h98q-8 -164 -173 -164zM332 -15q-146 0 -217 87t-71 222q0 65 16.5 119.5t50 97.5t90 67t131.5 24q147 0 218 -86.5t71 -221.5q0 -137 -71 -223t-218 -86zM332 108q139 0 139 186t-139 186
q-78 0 -108 -50.5t-30 -135.5q0 -186 138 -186z" />
    <glyph glyph-name="ocircumflex.sc" horiz-adv-x="665" 
d="M151 662l101 158h162l100 -158h-123l-59 95l-57 -95h-124zM332 -15q-146 0 -217 87t-71 222q0 65 16.5 119.5t50 97.5t90 67t131.5 24q147 0 218 -86.5t71 -221.5q0 -137 -71 -223t-218 -86zM332 108q139 0 139 186t-139 186q-78 0 -108 -50.5t-30 -135.5
q0 -186 138 -186z" />
    <glyph glyph-name="odieresis.sc" horiz-adv-x="665" 
d="M231 665q-32 0 -53.5 20.5t-21.5 51.5t21.5 51.5t53.5 20.5t53 -20.5t21 -51.5t-21 -51.5t-53 -20.5zM435 665q-32 0 -53.5 20.5t-21.5 51.5t21.5 51.5t53.5 20.5q31 0 52.5 -20.5t21.5 -51.5t-21.5 -51.5t-52.5 -20.5zM332 -15q-146 0 -217 87t-71 222q0 65 16.5 119.5
t50 97.5t90 67t131.5 24q147 0 218 -86.5t71 -221.5q0 -137 -71 -223t-218 -86zM332 108q139 0 139 186t-139 186q-78 0 -108 -50.5t-30 -135.5q0 -186 138 -186z" />
    <glyph glyph-name="ograve.sc" horiz-adv-x="665" 
d="M416 663h-123l-103 156h137zM332 -15q-146 0 -217 87t-71 222q0 65 16.5 119.5t50 97.5t90 67t131.5 24q147 0 218 -86.5t71 -221.5q0 -137 -71 -223t-218 -86zM332 108q139 0 139 186t-139 186q-78 0 -108 -50.5t-30 -135.5q0 -186 138 -186z" />
    <glyph glyph-name="ohungarumlaut.sc" horiz-adv-x="665" 
d="M186 663l97 157h117l-119 -157h-95zM356 663l97 157h116l-118 -157h-95zM332 -15q-146 0 -217 87t-71 222q0 65 16.5 119.5t50 97.5t90 67t131.5 24q147 0 218 -86.5t71 -221.5q0 -137 -71 -223t-218 -86zM332 108q139 0 139 186t-139 186q-78 0 -108 -50.5t-30 -135.5
q0 -186 138 -186z" />
    <glyph glyph-name="omacron.sc" horiz-adv-x="665" 
d="M183 691v89h299v-89h-299zM332 -15q-146 0 -217 87t-71 222q0 65 16.5 119.5t50 97.5t90 67t131.5 24q147 0 218 -86.5t71 -221.5q0 -137 -71 -223t-218 -86zM332 108q139 0 139 186t-139 186q-78 0 -108 -50.5t-30 -135.5q0 -186 138 -186z" />
    <glyph glyph-name="oslash.sc" horiz-adv-x="665" 
d="M637 588l-77 -85q61 -81 61 -209q0 -137 -71 -223t-218 -86q-109 0 -179 51l-33 -36h-92l76 85q-60 80 -60 209q0 65 16.5 119.5t50 97.5t90 67t131.5 24q108 0 180 -51l34 37h91zM332 480q-78 0 -108 -50.5t-30 -135.5q0 -60 13 -98l216 253q-34 31 -91 31zM332 108
q139 0 139 186q0 55 -13 97l-218 -252q34 -31 92 -31z" />
    <glyph glyph-name="oslashacute.sc" horiz-adv-x="665" 
d="M474 819l-103 -156h-123l90 156h136zM637 588l-77 -85q61 -81 61 -209q0 -137 -71 -223t-218 -86q-109 0 -179 51l-33 -36h-92l76 85q-60 80 -60 209q0 65 16.5 119.5t50 97.5t90 67t131.5 24q108 0 180 -51l34 37h91zM332 480q-78 0 -108 -50.5t-30 -135.5q0 -60 13 -98
l216 253q-34 31 -91 31zM332 108q139 0 139 186q0 55 -13 97l-218 -252q34 -31 92 -31z" />
    <glyph glyph-name="otilde.sc" horiz-adv-x="665" 
d="M411 661q-46 0 -83 34q-39 32 -60 32q-32 0 -35 -64h-80q2 81 26 120t74 39q41 0 84 -36q41 -31 59 -31q19 0 26.5 15t9.5 50h80q-2 -82 -26 -120.5t-75 -38.5zM332 -15q-146 0 -217 87t-71 222q0 65 16.5 119.5t50 97.5t90 67t131.5 24q147 0 218 -86.5t71 -221.5
q0 -137 -71 -223t-218 -86zM332 108q139 0 139 186t-139 186q-78 0 -108 -50.5t-30 -135.5q0 -186 138 -186z" />
    <glyph glyph-name="oe.sc" horiz-adv-x="889" 
d="M835 470h-236v-113h234v-118h-234v-122h236v-117h-353v42q-64 -51 -163 -51q-73 0 -127 23.5t-86 66t-47 95.5t-15 118q0 135 68 218.5t207 83.5q101 0 163 -51v43h353v-118zM327 108q40 0 67 14.5t41 42t19.5 58.5t5.5 71q0 86 -28.5 136t-104.5 50t-104.5 -50
t-28.5 -136q0 -41 6 -72t20 -58t41 -41.5t66 -14.5z" />
    <glyph glyph-name="p.sc" horiz-adv-x="545" 
d="M80 0v588h246q197 0 197 -177q0 -185 -197 -185h-104v-226h-142zM222 334h62q49 0 71 17.5t22 56.5q0 38 -22 55t-71 17h-62v-146z" />
    <glyph glyph-name="thorn.sc" horiz-adv-x="545" 
d="M80 0v588h142v-84h87q214 0 214 -200q0 -209 -214 -209h-87v-95h-142zM222 208h51q57 0 80.5 24t23.5 72q0 45 -23.5 66t-80.5 21h-51v-183z" />
    <glyph glyph-name="q.sc" horiz-adv-x="665" 
d="M621 294q0 -188 -120 -265l66 -96l-102 -65l-76 121q-24 -4 -57 -4q-146 0 -217 87t-71 222q0 65 16.5 119.5t50 97.5t90 67t131.5 24q147 0 218 -86.5t71 -221.5zM194 294q0 -174 120 -185l-23 37l89 59l45 -65q46 45 46 154q0 186 -139 186q-78 0 -108 -50.5
t-30 -135.5z" />
    <glyph glyph-name="r.sc" horiz-adv-x="584" 
d="M415 0l-158 228h-35v-228h-142v588h250q199 0 199 -174q0 -144 -122 -177l166 -237h-158zM222 480v-151h66q51 0 73 19.5t22 61.5q0 38 -22.5 54t-72.5 16h-66z" />
    <glyph glyph-name="racute.sc" horiz-adv-x="584" 
d="M432 819l-103 -156h-123l90 156h136zM415 0l-158 228h-35v-228h-142v588h250q199 0 199 -174q0 -144 -122 -177l166 -237h-158zM222 480v-151h66q51 0 73 19.5t22 61.5q0 38 -22.5 54t-72.5 16h-66z" />
    <glyph glyph-name="rcaron.sc" horiz-adv-x="584" 
d="M370 662h-162l-100 157h123l58 -94l58 94h124zM415 0l-158 228h-35v-228h-142v588h250q199 0 199 -174q0 -144 -122 -177l166 -237h-158zM222 480v-151h66q51 0 73 19.5t22 61.5q0 38 -22.5 54t-72.5 16h-66z" />
    <glyph glyph-name="uni0157.sc" horiz-adv-x="584" 
d="M407 237l166 -237h-158l-158 228h-35v-228h-142v588h250q199 0 199 -174q0 -144 -122 -177zM222 480v-151h66q51 0 73 19.5t22 61.5q0 38 -22.5 54t-72.5 16h-66zM210 -200l36 148h142l-52 -148h-126z" />
    <glyph glyph-name="s.sc" horiz-adv-x="551" 
d="M275 -15q-122 0 -182.5 53.5t-60.5 140.5h157q0 -40 20 -62t69 -22q43 0 64.5 17t21.5 45q0 33 -31.5 50.5t-131.5 50.5q-77 25 -116 62.5t-39 100.5q0 81 59 131t167 50q109 0 164.5 -50t55.5 -136h-147q0 80 -78 80q-38 0 -57.5 -15t-19.5 -39q0 -30 31 -45.5
t121 -41.5q93 -28 135 -65.5t42 -109.5q0 -92 -63 -143.5t-181 -51.5z" />
    <glyph glyph-name="sacute.sc" horiz-adv-x="551" 
d="M193 663l90 156h136l-103 -156h-123zM275 -15q-122 0 -182.5 53.5t-60.5 140.5h157q0 -40 20 -62t69 -22q43 0 64.5 17t21.5 45q0 33 -31.5 50.5t-131.5 50.5q-77 25 -116 62.5t-39 100.5q0 81 59 131t167 50q109 0 164.5 -50t55.5 -136h-147q0 80 -78 80
q-38 0 -57.5 -15t-19.5 -39q0 -30 31 -45.5t121 -41.5q93 -28 135 -65.5t42 -109.5q0 -92 -63 -143.5t-181 -51.5z" />
    <glyph glyph-name="scaron.sc" horiz-adv-x="551" 
d="M458 819l-101 -157h-162l-100 157h123l58 -94l58 94h124zM275 -15q-122 0 -182.5 53.5t-60.5 140.5h157q0 -40 20 -62t69 -22q43 0 64.5 17t21.5 45q0 33 -31.5 50.5t-131.5 50.5q-77 25 -116 62.5t-39 100.5q0 81 59 131t167 50q109 0 164.5 -50t55.5 -136h-147
q0 80 -78 80q-38 0 -57.5 -15t-19.5 -39q0 -30 31 -45.5t121 -41.5q93 -28 135 -65.5t42 -109.5q0 -92 -63 -143.5t-181 -51.5z" />
    <glyph glyph-name="scedilla.sc" horiz-adv-x="551" 
d="M519 180q0 -84 -52.5 -134.5t-151.5 -58.5l-7 -26h9q46 0 72 -25t26 -65q0 -101 -144 -101q-52 0 -95 16l14 67q32 -13 70 -13q58 0 58 34t-60 34h-56l20 80q-95 12 -142.5 63t-47.5 128h157q0 -40 20 -62t69 -22q43 0 64.5 17t21.5 45q0 33 -31.5 50.5t-131.5 50.5
q-77 25 -116 62.5t-39 100.5q0 81 59 131t167 50q109 0 164.5 -50t55.5 -136h-147q0 80 -78 80q-38 0 -57.5 -15t-19.5 -39q0 -30 31 -45.5t121 -41.5q93 -28 135 -65.5t42 -109.5z" />
    <glyph glyph-name="scircumflex.sc" horiz-adv-x="551" 
d="M95 662l101 158h162l100 -158h-123l-59 95l-57 -95h-124zM275 -15q-122 0 -182.5 53.5t-60.5 140.5h157q0 -40 20 -62t69 -22q43 0 64.5 17t21.5 45q0 33 -31.5 50.5t-131.5 50.5q-77 25 -116 62.5t-39 100.5q0 81 59 131t167 50q109 0 164.5 -50t55.5 -136h-147
q0 80 -78 80q-38 0 -57.5 -15t-19.5 -39q0 -30 31 -45.5t121 -41.5q93 -28 135 -65.5t42 -109.5q0 -92 -63 -143.5t-181 -51.5z" />
    <glyph glyph-name="uni0219.sc" horiz-adv-x="551" 
d="M275 -15q-122 0 -182.5 53.5t-60.5 140.5h157q0 -40 20 -62t69 -22q43 0 64.5 17t21.5 45q0 33 -31.5 50.5t-131.5 50.5q-77 25 -116 62.5t-39 100.5q0 81 59 131t167 50q109 0 164.5 -50t55.5 -136h-147q0 80 -78 80q-38 0 -57.5 -15t-19.5 -39q0 -30 31 -45.5
t121 -41.5q93 -28 135 -65.5t42 -109.5q0 -92 -63 -143.5t-181 -51.5zM171 -200l36 148h142l-52 -148h-126z" />
    <glyph glyph-name="germandbls.sc" horiz-adv-x="610" 
d="M467 351q56 -18 83 -62.5t27 -102.5q0 -86 -55.5 -138t-163.5 -52q-41 0 -83 7v118q14 -3 50 -3q106 0 106 76q0 81 -100 81q-7 0 -25 -2v3l77 191h-161v-467h-142v588h480v-5z" />
    <glyph glyph-name="t.sc" horiz-adv-x="488" 
d="M174 0v470h-153v118h446v-118h-152v-470h-141z" />
    <glyph glyph-name="tbar.sc" horiz-adv-x="488" 
d="M467 470h-152v-112h92v-87h-92v-271h-141v271h-92v87h92v112h-153v118h446v-118z" />
    <glyph glyph-name="tcaron.sc" horiz-adv-x="491" 
d="M426 819l-101 -157h-162l-100 157h123l58 -94l58 94h124zM174 0v470h-153v118h446v-118h-152v-470h-141z" />
    <glyph glyph-name="uni0163.sc" horiz-adv-x="488" 
d="M315 0h-28l-11 -39h9q46 0 72 -25t26 -65q0 -101 -144 -101q-52 0 -95 16l14 67q32 -13 70 -13q58 0 58 34t-60 34h-56l23 92h-19v470h-153v118h446v-118h-152v-470z" />
    <glyph glyph-name="uni021B.sc" horiz-adv-x="488" 
d="M174 0v470h-153v118h446v-118h-152v-470h-141zM139 -200l36 148h142l-52 -148h-126z" />
    <glyph glyph-name="u.sc" horiz-adv-x="616" 
d="M307 -15q-124 0 -183.5 55.5t-59.5 166.5v381h143v-370q0 -56 22 -82.5t78 -26.5q58 0 80.5 26.5t22.5 82.5v370h141v-381q0 -111 -59.5 -166.5t-184.5 -55.5z" />
    <glyph glyph-name="uacute.sc" horiz-adv-x="616" 
d="M225 663l90 156h136l-103 -156h-123zM307 -15q-124 0 -183.5 55.5t-59.5 166.5v381h143v-370q0 -56 22 -82.5t78 -26.5q58 0 80.5 26.5t22.5 82.5v370h141v-381q0 -111 -59.5 -166.5t-184.5 -55.5z" />
    <glyph glyph-name="ubreve.sc" horiz-adv-x="616" 
d="M310 656q-166 0 -175 164h100q4 -45 21.5 -65.5t53.5 -20.5t53 20.5t22 65.5h98q-8 -164 -173 -164zM307 -15q-124 0 -183.5 55.5t-59.5 166.5v381h143v-370q0 -56 22 -82.5t78 -26.5q58 0 80.5 26.5t22.5 82.5v370h141v-381q0 -111 -59.5 -166.5t-184.5 -55.5z" />
    <glyph glyph-name="ucircumflex.sc" horiz-adv-x="616" 
d="M128 662l101 158h162l100 -158h-123l-59 95l-57 -95h-124zM307 -15q-124 0 -183.5 55.5t-59.5 166.5v381h143v-370q0 -56 22 -82.5t78 -26.5q58 0 80.5 26.5t22.5 82.5v370h141v-381q0 -111 -59.5 -166.5t-184.5 -55.5z" />
    <glyph glyph-name="udieresis.sc" horiz-adv-x="616" 
d="M208 665q-32 0 -53.5 20.5t-21.5 51.5t21.5 51.5t53.5 20.5t53 -20.5t21 -51.5t-21 -51.5t-53 -20.5zM412 665q-32 0 -53.5 20.5t-21.5 51.5t21.5 51.5t53.5 20.5q31 0 52.5 -20.5t21.5 -51.5t-21.5 -51.5t-52.5 -20.5zM307 -15q-124 0 -183.5 55.5t-59.5 166.5v381h143
v-370q0 -56 22 -82.5t78 -26.5q58 0 80.5 26.5t22.5 82.5v370h141v-381q0 -111 -59.5 -166.5t-184.5 -55.5z" />
    <glyph glyph-name="ugrave.sc" horiz-adv-x="616" 
d="M393 663h-123l-103 156h137zM307 -15q-124 0 -183.5 55.5t-59.5 166.5v381h143v-370q0 -56 22 -82.5t78 -26.5q58 0 80.5 26.5t22.5 82.5v370h141v-381q0 -111 -59.5 -166.5t-184.5 -55.5z" />
    <glyph glyph-name="uhungarumlaut.sc" horiz-adv-x="616" 
d="M163 663l97 157h117l-119 -157h-95zM333 663l97 157h116l-118 -157h-95zM307 -15q-124 0 -183.5 55.5t-59.5 166.5v381h143v-370q0 -56 22 -82.5t78 -26.5q58 0 80.5 26.5t22.5 82.5v370h141v-381q0 -111 -59.5 -166.5t-184.5 -55.5z" />
    <glyph glyph-name="umacron.sc" horiz-adv-x="616" 
d="M160 691v89h299v-89h-299zM307 -15q-124 0 -183.5 55.5t-59.5 166.5v381h143v-370q0 -56 22 -82.5t78 -26.5q58 0 80.5 26.5t22.5 82.5v370h141v-381q0 -111 -59.5 -166.5t-184.5 -55.5z" />
    <glyph glyph-name="uogonek.sc" horiz-adv-x="616" 
d="M410 588h141v-381q0 -131 -92 -199q-77 -55 -77 -96q0 -35 39 -35q23 0 41 7v-77q-29 -12 -74 -12q-54 0 -85.5 23.5t-31.5 68.5q0 54 57 98h-21q-124 0 -183.5 55.5t-59.5 166.5v381h143v-370q0 -56 22 -82.5t78 -26.5q58 0 80.5 26.5t22.5 82.5v370z" />
    <glyph glyph-name="uring.sc" horiz-adv-x="616" 
d="M308 643q-58 0 -93.5 33t-35.5 86q0 54 35 86.5t94 32.5t94.5 -33t35.5 -86t-36 -86t-94 -33zM308 712q24 0 38 13.5t14 36.5t-14 37t-38 14q-23 0 -37 -14t-14 -37t14 -36.5t37 -13.5zM307 -15q-124 0 -183.5 55.5t-59.5 166.5v381h143v-370q0 -56 22 -82.5t78 -26.5
q58 0 80.5 26.5t22.5 82.5v370h141v-381q0 -111 -59.5 -166.5t-184.5 -55.5z" />
    <glyph glyph-name="utilde.sc" horiz-adv-x="616" 
d="M387 661q-46 0 -83 34q-39 32 -60 32q-32 0 -35 -64h-80q2 81 26 120t74 39q41 0 84 -36q41 -31 59 -31q19 0 26.5 15t9.5 50h80q-2 -82 -26 -120.5t-75 -38.5zM307 -15q-124 0 -183.5 55.5t-59.5 166.5v381h143v-370q0 -56 22 -82.5t78 -26.5q58 0 80.5 26.5t22.5 82.5
v370h141v-381q0 -111 -59.5 -166.5t-184.5 -55.5z" />
    <glyph glyph-name="v.sc" horiz-adv-x="588" 
d="M435 588h147l-217 -588h-141l-218 588h148l141 -417z" />
    <glyph glyph-name="w.sc" horiz-adv-x="814" 
d="M669 588h139l-160 -588h-147l-93 390l-94 -390h-146l-162 588h139l98 -381l91 381h148l90 -378z" />
    <glyph glyph-name="wacute.sc" horiz-adv-x="814" 
d="M550 819l-103 -156h-123l90 156h136zM669 588h139l-160 -588h-147l-93 390l-94 -390h-146l-162 588h139l98 -381l91 381h148l90 -378z" />
    <glyph glyph-name="wcircumflex.sc" horiz-adv-x="814" 
d="M407 757l-57 -95h-124l101 158h162l100 -158h-123zM669 588h139l-160 -588h-147l-93 390l-94 -390h-146l-162 588h139l98 -381l91 381h148l90 -378z" />
    <glyph glyph-name="wdieresis.sc" horiz-adv-x="814" 
d="M306 665q-32 0 -53.5 20.5t-21.5 51.5t21.5 51.5t53.5 20.5t53 -20.5t21 -51.5t-21 -51.5t-53 -20.5zM510 665q-32 0 -53.5 20.5t-21.5 51.5t21.5 51.5t53.5 20.5q31 0 52.5 -20.5t21.5 -51.5t-21.5 -51.5t-52.5 -20.5zM669 588h139l-160 -588h-147l-93 390l-94 -390
h-146l-162 588h139l98 -381l91 381h148l90 -378z" />
    <glyph glyph-name="wgrave.sc" horiz-adv-x="814" 
d="M492 663h-123l-103 156h137zM669 588h139l-160 -588h-147l-93 390l-94 -390h-146l-162 588h139l98 -381l91 381h148l90 -378z" />
    <glyph glyph-name="x.sc" horiz-adv-x="618" 
d="M6 0l218 317l-191 271h165l112 -165l112 165h165l-191 -275l216 -313h-166l-136 199l-137 -199h-167z" />
    <glyph glyph-name="y.sc" horiz-adv-x="529" 
d="M194 0v252l-188 336h152l107 -196l107 196h151l-188 -336v-252h-141z" />
    <glyph glyph-name="yacute.sc" horiz-adv-x="529" 
d="M181 663l90 156h136l-103 -156h-123zM194 0v252l-188 336h152l107 -196l107 196h151l-188 -336v-252h-141z" />
    <glyph glyph-name="ycircumflex.sc" horiz-adv-x="529" 
d="M84 662l101 158h162l100 -158h-123l-59 95l-57 -95h-124zM194 0v252l-188 336h152l107 -196l107 196h151l-188 -336v-252h-141z" />
    <glyph glyph-name="ydieresis.sc" horiz-adv-x="529" 
d="M163 665q-32 0 -53.5 20.5t-21.5 51.5t21.5 51.5t53.5 20.5t53 -20.5t21 -51.5t-21 -51.5t-53 -20.5zM367 665q-32 0 -53.5 20.5t-21.5 51.5t21.5 51.5t53.5 20.5q31 0 52.5 -20.5t21.5 -51.5t-21.5 -51.5t-52.5 -20.5zM194 0v252l-188 336h152l107 -196l107 196h151
l-188 -336v-252h-141z" />
    <glyph glyph-name="ygrave.sc" horiz-adv-x="529" 
d="M349 663h-123l-103 156h137zM194 0v252l-188 336h152l107 -196l107 196h151l-188 -336v-252h-141z" />
    <glyph glyph-name="z.sc" horiz-adv-x="535" 
d="M22 0l254 467h-239v121h455l-251 -467h264v-121h-483z" />
    <glyph glyph-name="zacute.sc" horiz-adv-x="535" 
d="M178 663l90 156h136l-103 -156h-123zM22 0l254 467h-239v121h455l-251 -467h264v-121h-483z" />
    <glyph glyph-name="zcaron.sc" horiz-adv-x="535" 
d="M444 819l-101 -157h-162l-100 157h123l58 -94l58 94h124zM22 0l254 467h-239v121h455l-251 -467h264v-121h-483z" />
    <glyph glyph-name="zdotaccent.sc" horiz-adv-x="535" 
d="M262 669q-34 0 -56 21t-22 53q0 33 22 54.5t56 21.5q33 0 55.5 -21.5t22.5 -54.5q0 -31 -22.5 -52.5t-55.5 -21.5zM22 0l254 467h-239v121h455l-251 -467h264v-121h-483z" />
    <glyph glyph-name="m.sc.ss01" horiz-adv-x="768" 
d="M80 0v588h175l132 -213l128 213h172v-588h-137v414l-135 -222h-61l-137 222v-414h-137z" />
    <glyph glyph-name="q.sc.ss02" horiz-adv-x="665" 
d="M621 294q0 -91 -32.5 -162.5t-98.5 -109.5l57 -102l-124 -59l-64 125q-8 -1 -27 -1q-146 0 -217 87t-71 222q0 65 16.5 119.5t50 97.5t90 67t131.5 24q147 0 218 -86.5t71 -221.5zM194 294q0 -186 138 -186q139 0 139 186t-139 186q-78 0 -108 -50.5t-30 -135.5z" />
    <glyph glyph-name="oslash.sc.ss04" horiz-adv-x="665" 
d="M630 599l-71 -95q62 -79 62 -210q0 -137 -71 -223t-218 -86q-73 0 -131 24l-63 -88l-102 69l70 93q-62 81 -62 211q0 65 16.5 119.5t50 97.5t90 67t131.5 24q73 0 132 -24l65 90zM332 108q139 0 139 186t-139 186q-78 0 -108 -50.5t-30 -135.5q0 -186 138 -186z" />
    <glyph glyph-name="A.subs" horiz-adv-x="422" 
d="M304 -120l-20 65h-147l-20 -65h-112l124 388h164l124 -388h-113zM162 29h97l-48 157h-1z" />
    <glyph glyph-name="B.subs" horiz-adv-x="404" 
d="M298 90q80 -27 80 -99q0 -51 -35 -81t-101 -30h-182v388h183q60 0 90.5 -27t30.5 -68q0 -64 -66 -83zM169 198v-81h30q57 0 57 42q0 39 -58 39h-29zM198 -50q70 0 70 48q0 52 -69 52h-30v-100h29z" />
    <glyph glyph-name="C.subs" horiz-adv-x="441" 
d="M230 -131q-98 0 -147.5 57t-49.5 148t49 148t148 57q78 0 128 -44.5t52 -115.5h-115q-1 31 -19 48.5t-51 17.5q-45 0 -61 -29t-16 -81q0 -55 15.5 -83t61.5 -28q67 0 72 59h115q-1 -68 -53 -111t-129 -43z" />
    <glyph glyph-name="D.subs" horiz-adv-x="454" 
d="M60 -120v388h167q100 0 146.5 -52.5t46.5 -141.5t-47 -141.5t-146 -52.5h-167zM169 -30h39q56 0 76.5 27t20.5 77q0 51 -21 78t-76 27h-39v-209z" />
    <glyph glyph-name="E.subs" horiz-adv-x="361" 
d="M60 -120v388h261v-84h-152v-65h151v-85h-151v-69h152v-85h-261z" />
    <glyph glyph-name="F.subs" horiz-adv-x="339" 
d="M60 -120v388h247v-84h-138v-71h136v-84h-136v-149h-109z" />
    <glyph glyph-name="G.subs" horiz-adv-x="443" 
d="M227 96h183v-29q0 -86 -44 -142t-136 -56q-99 0 -148 57.5t-49 147.5t49 147.5t148 57.5q75 0 123.5 -40.5t53.5 -105.5h-109q-6 55 -71 55q-47 0 -63 -29.5t-16 -84.5q0 -59 17 -87t67 -28q68 0 73 59h-78v78z" />
    <glyph glyph-name="H.subs" horiz-adv-x="470" 
d="M60 -120v388h109v-146h131v146h109v-388h-109v149h-131v-149h-109z" />
    <glyph glyph-name="I.subs" horiz-adv-x="230" 
d="M60 -120v388h109v-388h-109z" />
    <glyph glyph-name="J.subs" horiz-adv-x="250" 
d="M52 -122q-12 0 -36 2v100q6 -1 20 -1q32 0 44 11.5t12 42.5v235h109v-250q0 -71 -35.5 -105.5t-113.5 -34.5z" />
    <glyph glyph-name="K.subs" horiz-adv-x="437" 
d="M432 -120h-133l-130 170v-170h-109v388h109v-137l112 137h127l-145 -172z" />
    <glyph glyph-name="L.subs" horiz-adv-x="306" 
d="M60 -120v388h109v-291h122v-97h-231z" />
    <glyph glyph-name="M.subs" horiz-adv-x="566" 
d="M60 -120v388h122l102 -218l101 218h121v-388h-103v222l-101 -222h-38l-101 222v-222h-103z" />
    <glyph glyph-name="N.subs" horiz-adv-x="480" 
d="M60 -120v388h108l146 -222v222h106v-388h-108l-146 223v-223h-106z" />
    <glyph glyph-name="O.subs" horiz-adv-x="462" 
d="M230 -131q-99 0 -148 57.5t-49 147.5q0 91 49.5 148t147.5 57q100 0 149 -57.5t49 -147.5t-49 -147.5t-149 -57.5zM230 -36q83 0 83 110t-83 110q-48 0 -65 -29.5t-17 -80.5t17.5 -80.5t64.5 -29.5z" />
    <glyph glyph-name="P.subs" horiz-adv-x="385" 
d="M60 -120v388h175q134 0 134 -119q0 -128 -134 -128h-66v-141h-109zM169 95h32q60 0 60 50q0 49 -60 49h-32v-99z" />
    <glyph glyph-name="Q.subs" horiz-adv-x="462" 
d="M428 74q0 -119 -76 -172l41 -59l-70 -44l-47 74q-19 -4 -46 -4q-99 0 -148 57.5t-49 147.5q0 91 49.5 148t147.5 57q100 0 149 -57.5t49 -147.5zM148 74q0 -103 70 -109l-15 23l61 40l27 -39q22 27 22 85q0 110 -83 110q-48 0 -65 -29.5t-17 -80.5z" />
    <glyph glyph-name="R.subs" horiz-adv-x="411" 
d="M282 -120l-99 142h-14v-142h-109v388h176q135 0 135 -118q0 -95 -75 -119l106 -151h-120zM169 194v-102h34q29 0 42.5 12t13.5 39t-13.5 39t-42.5 12h-34z" />
    <glyph glyph-name="S.subs" horiz-adv-x="385" 
d="M192 -131q-83 0 -125.5 35t-42.5 92h121q0 -42 50 -42q45 0 45 31q0 18 -19.5 29.5t-78.5 30.5q-55 18 -81.5 44t-26.5 69q0 54 41 87.5t116 33.5q73 0 112 -32.5t39 -89.5h-114q0 41 -43 41q-41 0 -41 -29q0 -15 18.5 -25.5t71.5 -25.5q63 -19 95 -47t32 -76
q0 -58 -44.5 -92t-124.5 -34z" />
    <glyph glyph-name="T.subs" horiz-adv-x="334" 
d="M113 -120v299h-97v89h302v-89h-96v-299h-109z" />
    <glyph glyph-name="U.subs" horiz-adv-x="437" 
d="M218 -131q-169 0 -169 153v246h109v-237q0 -34 13 -50.5t47 -16.5q35 0 48.5 16.5t13.5 50.5v237h108v-246q0 -153 -170 -153z" />
    <glyph glyph-name="V.subs" horiz-adv-x="409" 
d="M292 268h113l-146 -388h-108l-146 388h114l87 -256z" />
    <glyph glyph-name="W.subs" horiz-adv-x="559" 
d="M447 268h108l-107 -388h-113l-55 235l-56 -235h-111l-108 388h106l61 -236l55 236h107l54 -235z" />
    <glyph glyph-name="X.subs" horiz-adv-x="430" 
d="M5 -120l144 210l-126 178h126l66 -95l67 95h126l-126 -181l143 -207h-128l-82 119l-82 -119h-128z" />
    <glyph glyph-name="Y.subs" horiz-adv-x="367" 
d="M129 -120v166l-124 222h116l64 -114l62 114h115l-124 -222v-166h-109z" />
    <glyph glyph-name="Z.subs" horiz-adv-x="370" 
d="M16 -120l157 296h-147v92h314l-156 -296h163v-92h-331z" />
    <glyph glyph-name="a.subs" horiz-adv-x="383" 
d="M187 191q83 0 116 -33.5t33 -103.5v-174h-103v33q-31 -41 -98 -41q-54 0 -81.5 25t-27.5 69q0 55 40.5 78t121.5 23h45v4q0 25 -9.5 37t-35.5 12q-43 0 -45 -31h-106q5 102 150 102zM177 -55q56 0 56 60v5h-37q-32 0 -46 -7.5t-14 -25.5q0 -32 41 -32z" />
    <glyph glyph-name="b.subs" horiz-adv-x="402" 
d="M241 191q68 0 100.5 -45.5t32.5 -115.5q0 -69 -33 -113.5t-100 -44.5q-60 0 -91 41v-33h-100v424h104v-150q31 37 87 37zM207 -40q34 0 45.5 18.5t11.5 51.5q0 35 -12 53.5t-45 18.5q-55 0 -55 -61v-21q0 -60 55 -60z" />
    <glyph glyph-name="c.subs" horiz-adv-x="374" 
d="M190 -128q-81 0 -121.5 44t-40.5 114q0 72 41 116.5t121 44.5q68 0 111 -33t46 -93h-114q-3 37 -43 37q-53 0 -53 -72q0 -70 53 -70q20 0 31.5 11t11.5 27h114q-3 -60 -46.5 -93t-110.5 -33z" />
    <glyph glyph-name="d.subs" horiz-adv-x="402" 
d="M248 304h104v-424h-101v33q-31 -41 -91 -41q-66 0 -99 44.5t-33 113.5q0 70 32.5 115.5t99.5 45.5q57 0 88 -37v150zM249 20v21q0 61 -54 61q-33 0 -45 -18.5t-12 -53.5q0 -34 11.5 -52t45.5 -18q54 0 54 60z" />
    <glyph glyph-name="e.subs" horiz-adv-x="380" 
d="M193 -57q47 0 51 33h105q-3 -48 -46 -76t-107 -28q-85 0 -126.5 43.5t-41.5 116.5q0 71 40 115t120 44q54 0 93 -22t56 -61q15 -33 15 -102h-217q5 -63 58 -63zM190 120q-48 0 -54 -55h109q-3 28 -15.5 41.5t-39.5 13.5z" />
    <glyph glyph-name="f.subs" horiz-adv-x="231" 
d="M49 -120v218h-36v84h36v24q0 57 28 83t93 26q28 0 48 -6v-76q-16 4 -28 4q-38 0 -38 -35v-20h64v-84h-64v-218h-103z" />
    <glyph glyph-name="g.subs" horiz-adv-x="402" 
d="M251 182h101v-285q0 -146 -159 -146q-66 0 -108 25t-50 74h109q8 -28 47 -28q57 0 57 56v40q-31 -42 -93 -42q-65 0 -96 45t-31 113q0 69 31.5 113t95.5 44t96 -46v37zM247 20v22q0 60 -55 60q-32 0 -43 -18t-11 -51q0 -35 11 -53.5t43 -18.5q55 0 55 59z" />
    <glyph glyph-name="h.subs" horiz-adv-x="396" 
d="M245 191q50 0 77 -29t27 -82v-200h-103v176q0 25 -11 35.5t-34 10.5q-47 0 -47 -49v-173h-104v424h104v-155q33 42 91 42z" />
    <glyph glyph-name="i.subs" horiz-adv-x="203" 
d="M101 218q-24 0 -40 15.5t-16 37.5q0 23 16 38.5t40 15.5q23 0 39.5 -15.5t16.5 -38.5q0 -22 -16.5 -37.5t-39.5 -15.5zM50 -120v302h103v-302h-103z" />
    <glyph glyph-name="j.subs" horiz-adv-x="203" 
d="M102 218q-24 0 -40 15.5t-16 37.5q0 23 15.5 38.5t40.5 15.5q23 0 39 -15.5t16 -38.5q0 -22 -16 -37.5t-39 -15.5zM45 -242q-25 0 -44 3v90q7 -2 20 -2q29 0 29 28v305h104v-318q0 -56 -26 -81t-83 -25z" />
    <glyph glyph-name="k.subs" horiz-adv-x="369" 
d="M378 -120h-134l-90 122v-122h-104v424h104v-219l80 97h129l-120 -137z" />
    <glyph glyph-name="l.subs" horiz-adv-x="203" 
d="M50 -120v424h103v-424h-103z" />
    <glyph glyph-name="m.subs" horiz-adv-x="580" 
d="M432 191q101 0 101 -113v-198h-103v175q0 47 -42 47q-45 0 -45 -51v-171h-103v175q0 47 -43 47t-43 -51v-171h-104v302h104v-33q30 42 91 42q69 0 89 -48q32 48 98 48z" />
    <glyph glyph-name="n.subs" horiz-adv-x="396" 
d="M245 191q50 0 77 -29t27 -82v-200h-103v176q0 25 -11 35.5t-34 10.5q-47 0 -47 -49v-173h-104v302h104v-33q33 42 91 42z" />
    <glyph glyph-name="o.subs" horiz-adv-x="384" 
d="M193 -128q-82 0 -123.5 45t-41.5 114q0 71 41.5 115.5t123.5 44.5t123 -44.5t41 -115.5t-41.5 -115t-122.5 -44zM193 -40q33 0 44 18.5t11 52.5q0 35 -11 53t-44 18t-44 -17.5t-11 -53.5q0 -35 11.5 -53t43.5 -18z" />
    <glyph glyph-name="p.subs" horiz-adv-x="402" 
d="M241 191q68 0 100.5 -45t32.5 -114t-33 -114.5t-100 -45.5q-59 0 -87 37v-150h-104v423h100v-34q31 43 91 43zM207 -39q34 0 45.5 18.5t11.5 52.5t-12 52t-45 18q-55 0 -55 -60v-20q0 -61 55 -61z" />
    <glyph glyph-name="q.subs" horiz-adv-x="402" 
d="M251 182h101v-423h-104v150q-30 -37 -88 -37q-66 0 -99 45.5t-33 114.5t32.5 114t99.5 45q60 0 91 -41v32zM195 -39q54 0 54 61v20q0 60 -54 60q-33 0 -45 -18t-12 -52t11.5 -52.5t45.5 -18.5z" />
    <glyph glyph-name="r.subs" horiz-adv-x="271" 
d="M229 187q18 0 31 -5v-92q-11 3 -30 3q-76 0 -76 -92v-121h-104v302h102v-39q26 44 77 44z" />
    <glyph glyph-name="s.subs" horiz-adv-x="332" 
d="M166 -131q-71 0 -105.5 29t-34.5 81h103q0 -38 36 -38q31 0 31 22q0 13 -13 20.5t-47 16.5q-50 14 -74.5 34t-24.5 60q0 46 33.5 71.5t95.5 25.5t94 -25.5t32 -71.5h-98q0 31 -30 31q-27 0 -27 -20q0 -11 12 -17t52 -18q55 -16 79.5 -36.5t24.5 -60.5q0 -51 -36.5 -77.5
t-102.5 -26.5z" />
    <glyph glyph-name="t.subs" horiz-adv-x="244" 
d="M154 -126q-56 0 -80 23.5t-24 80.5v120h-39v84h39v70h104v-70h68v-84h-68v-103q0 -19 8.5 -27t27.5 -8q14 0 31 3v-82q-37 -7 -67 -7z" />
    <glyph glyph-name="u.subs" horiz-adv-x="396" 
d="M242 182h104v-302h-104v33q-33 -42 -91 -42q-50 0 -77 29t-27 82v200h103v-176q0 -25 11 -35.5t34 -10.5q47 0 47 49v173z" />
    <glyph glyph-name="v.subs" horiz-adv-x="360" 
d="M120 -120l-111 302h112l59 -179l59 179h112l-111 -302h-120z" />
    <glyph glyph-name="w.subs" horiz-adv-x="533" 
d="M412 182h111l-109 -302h-99l-49 166l-49 -166h-100l-108 302h111l48 -167l55 167h85l54 -169z" />
    <glyph glyph-name="x.subs" horiz-adv-x="379" 
d="M8 -120l119 156l-115 146h123l55 -77l55 77h122l-114 -146l118 -156h-120l-61 83l-61 -83h-121z" />
    <glyph glyph-name="y.subs" horiz-adv-x="360" 
d="M241 182h110l-169 -422h-105l48 122l-116 300h113l59 -189z" />
    <glyph glyph-name="z.subs" horiz-adv-x="313" 
d="M305 182l-134 -218h128v-84h-292l142 218h-128v84h284z" />
    <glyph glyph-name="A.sups" horiz-adv-x="422" 
d="M304 438l-20 65h-147l-20 -65h-112l124 388h164l124 -388h-113zM162 587h97l-48 157h-1z" />
    <glyph glyph-name="B.sups" horiz-adv-x="404" 
d="M298 648q80 -27 80 -99q0 -51 -35 -81t-101 -30h-182v388h183q60 0 90.5 -27t30.5 -68q0 -64 -66 -83zM169 756v-81h30q57 0 57 42q0 39 -58 39h-29zM198 508q70 0 70 48q0 52 -69 52h-30v-100h29z" />
    <glyph glyph-name="C.sups" horiz-adv-x="441" 
d="M230 427q-98 0 -147.5 57t-49.5 148t49 148t148 57q78 0 128 -44.5t52 -115.5h-115q-1 31 -19 48.5t-51 17.5q-45 0 -61 -28.5t-16 -81.5q0 -55 15.5 -83t61.5 -28q67 0 72 59h115q-1 -68 -53 -111t-129 -43z" />
    <glyph glyph-name="D.sups" horiz-adv-x="454" 
d="M60 438v388h167q100 0 146.5 -52.5t46.5 -141.5t-47 -141.5t-146 -52.5h-167zM169 528h39q56 0 76.5 27t20.5 77q0 51 -21 78t-76 27h-39v-209z" />
    <glyph glyph-name="E.sups" horiz-adv-x="361" 
d="M60 438v388h261v-84h-152v-65h151v-85h-151v-69h152v-85h-261z" />
    <glyph glyph-name="F.sups" horiz-adv-x="339" 
d="M60 438v388h247v-84h-138v-71h136v-84h-136v-149h-109z" />
    <glyph glyph-name="G.sups" horiz-adv-x="443" 
d="M227 654h183v-29q0 -86 -44 -142t-136 -56q-99 0 -148 57.5t-49 147.5t49 147.5t148 57.5q75 0 123.5 -40.5t53.5 -105.5h-109q-6 55 -71 55q-47 0 -63 -29.5t-16 -84.5q0 -59 17 -87t67 -28q68 0 73 59h-78v78z" />
    <glyph glyph-name="H.sups" horiz-adv-x="470" 
d="M60 438v388h109v-146h131v146h109v-388h-109v149h-131v-149h-109z" />
    <glyph glyph-name="I.sups" horiz-adv-x="230" 
d="M60 438v388h109v-388h-109z" />
    <glyph glyph-name="J.sups" horiz-adv-x="250" 
d="M52 436q-12 0 -36 2v100q6 -1 20 -1q32 0 44 11.5t12 42.5v235h109v-250q0 -71 -35.5 -105.5t-113.5 -34.5z" />
    <glyph glyph-name="K.sups" horiz-adv-x="437" 
d="M432 438h-133l-130 170v-170h-109v388h109v-137l112 137h127l-145 -172z" />
    <glyph glyph-name="L.sups" horiz-adv-x="306" 
d="M60 438v388h109v-291h122v-97h-231z" />
    <glyph glyph-name="M.sups" horiz-adv-x="566" 
d="M60 438v388h122l102 -218l101 218h121v-388h-103v222l-101 -222h-38l-101 222v-222h-103z" />
    <glyph glyph-name="N.sups" horiz-adv-x="480" 
d="M60 438v388h108l146 -222v222h106v-388h-108l-146 223v-223h-106z" />
    <glyph glyph-name="O.sups" horiz-adv-x="462" 
d="M230 427q-99 0 -148 57.5t-49 147.5q0 91 49.5 148t147.5 57q100 0 149 -57.5t49 -147.5t-49 -147.5t-149 -57.5zM230 522q83 0 83 110t-83 110q-48 0 -65 -29.5t-17 -80.5t17.5 -80.5t64.5 -29.5z" />
    <glyph glyph-name="P.sups" horiz-adv-x="385" 
d="M60 438v388h175q134 0 134 -119q0 -128 -134 -128h-66v-141h-109zM169 653h32q60 0 60 50q0 49 -60 49h-32v-99z" />
    <glyph glyph-name="Q.sups" horiz-adv-x="462" 
d="M428 632q0 -119 -76 -172l41 -59l-70 -44l-47 74q-19 -4 -46 -4q-99 0 -148 57.5t-49 147.5q0 91 49.5 148t147.5 57q100 0 149 -57.5t49 -147.5zM148 632q0 -103 70 -109l-15 23l61 40l27 -39q22 27 22 85q0 110 -83 110q-48 0 -65 -29.5t-17 -80.5z" />
    <glyph glyph-name="R.sups" horiz-adv-x="411" 
d="M282 438l-99 142h-14v-142h-109v388h176q135 0 135 -118q0 -95 -75 -119l106 -151h-120zM169 752v-102h34q29 0 42.5 12t13.5 39t-13.5 39t-42.5 12h-34z" />
    <glyph glyph-name="S.sups" horiz-adv-x="385" 
d="M192 427q-83 0 -125.5 35t-42.5 92h121q0 -42 50 -42q45 0 45 31q0 18 -19.5 29.5t-78.5 30.5q-55 18 -81.5 44t-26.5 69q0 54 41 87.5t116 33.5q73 0 112 -32.5t39 -89.5h-114q0 41 -43 41q-41 0 -41 -29q0 -15 18.5 -25.5t71.5 -25.5q63 -19 95 -47t32 -76
q0 -58 -44.5 -92t-124.5 -34z" />
    <glyph glyph-name="T.sups" horiz-adv-x="334" 
d="M113 438v299h-97v89h302v-89h-96v-299h-109z" />
    <glyph glyph-name="U.sups" horiz-adv-x="437" 
d="M218 427q-169 0 -169 153v246h109v-237q0 -34 13 -50.5t47 -16.5q35 0 48.5 16.5t13.5 50.5v237h108v-246q0 -153 -170 -153z" />
    <glyph glyph-name="V.sups" horiz-adv-x="409" 
d="M292 826h113l-146 -388h-108l-146 388h114l87 -256z" />
    <glyph glyph-name="W.sups" horiz-adv-x="559" 
d="M447 826h108l-107 -388h-113l-55 235l-56 -235h-111l-108 388h106l61 -236l55 236h107l54 -235z" />
    <glyph glyph-name="X.sups" horiz-adv-x="430" 
d="M5 438l144 210l-126 178h126l66 -95l67 95h126l-126 -181l143 -207h-128l-82 119l-82 -119h-128z" />
    <glyph glyph-name="Y.sups" horiz-adv-x="367" 
d="M129 438v166l-124 222h116l64 -114l62 114h115l-124 -222v-166h-109z" />
    <glyph glyph-name="Z.sups" horiz-adv-x="370" 
d="M16 438l157 296h-147v92h314l-156 -296h163v-92h-331z" />
    <glyph glyph-name="a.sups" horiz-adv-x="383" 
d="M187 749q83 0 116 -33.5t33 -103.5v-174h-103v33q-31 -41 -98 -41q-54 0 -81.5 25t-27.5 69q0 55 40.5 78t121.5 23h45v4q0 25 -9.5 37t-35.5 12q-43 0 -45 -31h-106q5 102 150 102zM177 503q56 0 56 60v5h-37q-32 0 -46 -7.5t-14 -25.5q0 -32 41 -32z" />
    <glyph glyph-name="b.sups" horiz-adv-x="402" 
d="M241 749q68 0 100.5 -45.5t32.5 -115.5q0 -69 -33 -113.5t-100 -44.5q-60 0 -91 41v-33h-100v424h104v-150q31 37 87 37zM207 518q34 0 45.5 18.5t11.5 51.5q0 35 -12 53.5t-45 18.5q-55 0 -55 -61v-21q0 -60 55 -60z" />
    <glyph glyph-name="c.sups" horiz-adv-x="374" 
d="M190 430q-81 0 -121.5 44t-40.5 114q0 72 41 116.5t121 44.5q68 0 111 -33t46 -93h-114q-3 37 -43 37q-53 0 -53 -72q0 -70 53 -70q20 0 31.5 11t11.5 27h114q-3 -60 -46.5 -93t-110.5 -33z" />
    <glyph glyph-name="d.sups" horiz-adv-x="402" 
d="M248 862h104v-424h-100v33q-31 -41 -91 -41q-67 0 -100 44.5t-33 113.5q0 70 32.5 115.5t100.5 45.5q56 0 87 -37v150zM250 578v21q0 61 -55 61q-33 0 -45 -18.5t-12 -53.5q0 -33 11.5 -51.5t45.5 -18.5q55 0 55 60z" />
    <glyph glyph-name="e.sups" horiz-adv-x="380" 
d="M193 501q47 0 51 33h105q-3 -48 -46 -76t-107 -28q-85 0 -126.5 43.5t-41.5 116.5q0 71 40 115t120 44q54 0 93 -22t56 -61q15 -33 15 -102h-217q5 -63 58 -63zM190 678q-48 0 -54 -55h109q-3 28 -15.5 41.5t-39.5 13.5z" />
    <glyph glyph-name="f.sups" horiz-adv-x="231" 
d="M49 438v218h-36v84h36v24q0 57 28 83t93 26q28 0 48 -6v-76q-16 4 -28 4q-38 0 -38 -35v-20h64v-84h-64v-218h-103z" />
    <glyph glyph-name="g.sups" horiz-adv-x="402" 
d="M251 740h101v-285q0 -146 -159 -146q-66 0 -108 25t-50 74h109q8 -28 47 -28q57 0 57 56v40q-31 -42 -93 -42q-65 0 -96 45t-31 113q0 69 31.5 113t95.5 44t96 -46v37zM247 578v22q0 60 -55 60q-32 0 -43 -18t-11 -51q0 -35 11 -53.5t43 -18.5q55 0 55 59z" />
    <glyph glyph-name="h.sups" horiz-adv-x="396" 
d="M245 749q50 0 77 -29t27 -82v-200h-103v176q0 25 -11 35.5t-34 10.5q-47 0 -47 -49v-173h-104v424h104v-155q33 42 91 42z" />
    <glyph glyph-name="i.sups" horiz-adv-x="203" 
d="M101 776q-24 0 -40 15.5t-16 37.5q0 23 16 38.5t40 15.5q23 0 39.5 -15.5t16.5 -38.5q0 -22 -16.5 -37.5t-39.5 -15.5zM50 438v302h103v-302h-103z" />
    <glyph glyph-name="j.sups" horiz-adv-x="203" 
d="M102 776q-24 0 -40 15.5t-16 37.5q0 23 15.5 38.5t40.5 15.5q23 0 39 -15.5t16 -38.5q0 -22 -16 -37.5t-39 -15.5zM45 316q-25 0 -44 3v90q7 -2 20 -2q29 0 29 28v305h104v-318q0 -56 -26 -81t-83 -25z" />
    <glyph glyph-name="k.sups" horiz-adv-x="369" 
d="M378 438h-134l-90 122v-122h-104v424h104v-219l80 97h129l-120 -137z" />
    <glyph glyph-name="l.sups" horiz-adv-x="203" 
d="M50 438v424h103v-424h-103z" />
    <glyph glyph-name="m.sups" horiz-adv-x="580" 
d="M432 749q101 0 101 -113v-198h-103v175q0 47 -42 47q-45 0 -45 -51v-171h-103v175q0 47 -43 47t-43 -51v-171h-104v302h104v-33q30 42 91 42q69 0 89 -48q32 48 98 48z" />
    <glyph glyph-name="n.sups" horiz-adv-x="396" 
d="M245 749q50 0 77 -29t27 -82v-200h-103v176q0 25 -11 35.5t-34 10.5q-47 0 -47 -49v-173h-104v302h104v-33q33 42 91 42z" />
    <glyph glyph-name="o.sups" horiz-adv-x="384" 
d="M193 430q-82 0 -123.5 45t-41.5 114q0 71 41.5 115.5t123.5 44.5t123 -44.5t41 -115.5t-41.5 -115t-122.5 -44zM193 518q33 0 44 18.5t11 52.5q0 35 -11 53t-44 18t-44 -17.5t-11 -53.5q0 -35 11.5 -53t43.5 -18z" />
    <glyph glyph-name="p.sups" horiz-adv-x="402" 
d="M241 749q68 0 100.5 -45t32.5 -114t-33 -114.5t-100 -45.5q-59 0 -87 37v-150h-104v423h100v-34q31 43 91 43zM207 519q34 0 45.5 18.5t11.5 52.5t-12 52t-45 18q-55 0 -55 -60v-20q0 -61 55 -61z" />
    <glyph glyph-name="q.sups" horiz-adv-x="402" 
d="M252 740h100v-423h-104v150q-28 -37 -87 -37q-67 0 -100 45.5t-33 114.5t32.5 114t100.5 45q60 0 91 -43v34zM195 519q55 0 55 61v20q0 60 -55 60q-33 0 -45 -18t-12 -52t11.5 -52.5t45.5 -18.5z" />
    <glyph glyph-name="r.sups" horiz-adv-x="271" 
d="M229 745q18 0 31 -5v-92q-11 3 -30 3q-76 0 -76 -92v-121h-104v302h102v-39q26 44 77 44z" />
    <glyph glyph-name="s.sups" horiz-adv-x="332" 
d="M166 427q-71 0 -105.5 29t-34.5 81h103q0 -38 36 -38q31 0 31 22q0 13 -13 20.5t-47 16.5q-50 14 -74.5 34t-24.5 60q0 46 33.5 71.5t95.5 25.5t94 -25.5t32 -71.5h-98q0 31 -30 31q-27 0 -27 -20q0 -11 12 -17t52 -18q55 -16 79.5 -36.5t24.5 -60.5q0 -51 -36.5 -77.5
t-102.5 -26.5z" />
    <glyph glyph-name="t.sups" horiz-adv-x="244" 
d="M154 432q-56 0 -80 23.5t-24 80.5v120h-39v84h39v70h104v-70h68v-84h-68v-103q0 -19 8.5 -27t27.5 -8q14 0 31 3v-82q-37 -7 -67 -7z" />
    <glyph glyph-name="u.sups" horiz-adv-x="396" 
d="M242 740h104v-302h-104v33q-33 -42 -91 -42q-50 0 -77 29t-27 82v200h103v-176q0 -25 11 -35.5t34 -10.5q47 0 47 49v173z" />
    <glyph glyph-name="v.sups" horiz-adv-x="360" 
d="M120 438l-111 302h112l59 -179l59 179h112l-111 -302h-120z" />
    <glyph glyph-name="w.sups" horiz-adv-x="533" 
d="M412 740h111l-109 -302h-99l-49 166l-49 -166h-100l-108 302h111l48 -167l55 167h85l54 -169z" />
    <glyph glyph-name="x.sups" horiz-adv-x="379" 
d="M8 438l119 156l-115 146h123l55 -77l55 77h122l-114 -146l118 -156h-120l-61 83l-61 -83h-121z" />
    <glyph glyph-name="y.sups" horiz-adv-x="360" 
d="M241 740h110l-169 -422h-105l48 122l-116 300h113l59 -189z" />
    <glyph glyph-name="z.sups" horiz-adv-x="313" 
d="M305 740l-134 -218h128v-84h-292l142 218h-128v84h284z" />
    <glyph glyph-name="zero.lf" horiz-adv-x="677" 
d="M338 -17q-285 0 -285 370t285 370q286 0 286 -370t-286 -370zM338 110q31 0 54 8t37.5 25t23.5 36t13 50t5.5 57t1.5 67q0 49 -2 80.5t-9.5 65.5t-22 53t-39.5 31.5t-62 12.5t-62.5 -13t-39.5 -32t-21 -53.5t-9 -65t-2 -79.5q0 -50 2 -80.5t9 -65t21 -53.5t39.5 -31.5
t62.5 -12.5z" />
    <glyph glyph-name="one.lf" horiz-adv-x="385" 
d="M145 0v575h-116l28 131h231v-706h-143z" />
    <glyph glyph-name="two.lf" horiz-adv-x="588" 
d="M21 0v3l284 333q50 55 70 90.5t20 73.5q0 45 -26 72.5t-79 27.5q-112 0 -112 -140h-139q0 123 62 193t193 70q123 0 187 -61.5t64 -163.5q0 -53 -18.5 -95t-65.5 -93q-77 -84 -180 -184h271v-126h-531z" />
    <glyph glyph-name="three.lf" horiz-adv-x="596" 
d="M419 372q136 -36 136 -175q0 -96 -65 -155t-197 -59q-147 0 -208 69.5t-61 203.5h138q0 -74 27 -114.5t97 -40.5q118 0 118 110t-139 110h-22v98h21q130 0 130 95q0 100 -108 100q-110 0 -114 -117h-135q0 110 66 168t193 58q118 0 180 -54t62 -141q0 -118 -119 -156z
" />
    <glyph glyph-name="four.lf" horiz-adv-x="658" 
d="M640 275v-121h-97v-154h-142v154h-397v4l277 548h262v-431h97zM213 275h188v381h-1z" />
    <glyph glyph-name="five.lf" horiz-adv-x="591" 
d="M299 -17q-143 0 -204 69t-61 194h139q0 -69 26.5 -107t91.5 -38q118 0 118 122q0 76 -50 111.5t-153 35.5q-77 0 -140 -15l58 351h406l-26 -124h-265l-22 -126q40 10 88 10q126 0 189 -66.5t63 -175.5t-64.5 -175t-193.5 -66z" />
    <glyph glyph-name="six.lf" horiz-adv-x="663" 
d="M390 464q116 0 174.5 -63t58.5 -165q0 -113 -71 -183t-202 -70q-82 0 -141 28.5t-92.5 80t-48.5 114t-15 140.5q0 63 9 117t30.5 103t55 83t85 54t117.5 20q111 0 179.5 -54.5t82.5 -151.5h-139q-22 95 -122 95q-153 0 -153 -235v-1q59 88 192 88zM348 99q63 0 94.5 37
t31.5 94t-31.5 93t-93.5 36q-64 0 -96.5 -37t-32.5 -94q0 -56 33 -92.5t95 -36.5z" />
    <glyph glyph-name="seven.lf" horiz-adv-x="562" 
d="M82 0l250 575h-303v131h515l-301 -706h-161z" />
    <glyph glyph-name="eight.lf" horiz-adv-x="635" 
d="M456 380q69 -17 103.5 -66.5t34.5 -115.5q0 -99 -71 -157t-206 -58q-136 0 -206 58.5t-70 156.5q0 68 35 116.5t104 65.5q-58 16 -90 59t-32 98q0 86 68 136t191 50t191 -49.5t68 -136.5q0 -58 -31 -99.5t-89 -57.5zM317 626q-57 0 -85.5 -27t-28.5 -73q0 -48 30 -75
t84 -27q56 0 85.5 28t29.5 74t-29 73t-86 27zM317 93q61 0 93.5 31t32.5 81t-32.5 82.5t-93.5 32.5t-93 -32t-32 -82q0 -53 31.5 -83t93.5 -30z" />
    <glyph glyph-name="nine.lf" horiz-adv-x="659" 
d="M313 725q82 0 141 -28.5t92.5 -80t48.5 -114t15 -140.5q0 -63 -9 -117t-30.5 -103t-55 -83t-85 -54t-117.5 -20q-111 0 -179.5 54.5t-82.5 151.5h139q22 -95 122 -95q153 0 153 235v1q-59 -88 -192 -88q-115 0 -174 63.5t-59 165.5q0 112 71.5 182t201.5 70zM314 349
q65 0 97 37t32 94q0 56 -32.5 92.5t-94.5 36.5q-64 0 -95 -37t-31 -94q0 -58 31 -93.5t93 -35.5z" />
    <glyph glyph-name="zero.dnom" horiz-adv-x="438" 
d="M219 -10q-177 0 -177 204t177 204q176 0 176 -204t-176 -204zM219 84q40 0 51.5 25.5t11.5 84.5t-11.5 84.5t-51.5 25.5t-51.5 -25.5t-11.5 -84.5q0 -60 11.5 -85t51.5 -25z" />
    <glyph glyph-name="one.dnom" horiz-adv-x="283" 
d="M95 0v290h-72l17 98h166v-388h-111z" />
    <glyph glyph-name="two.dnom" horiz-adv-x="379" 
d="M17 0v5l176 186q28 30 38 46t10 33q0 44 -50 44q-56 0 -56 -58h-106q0 66 40.5 104.5t121.5 38.5q77 0 117 -33.5t40 -93.5q0 -52 -44 -96q-32 -32 -90 -80h137v-96h-334z" />
    <glyph glyph-name="three.dnom" horiz-adv-x="374" 
d="M273 203q74 -20 74 -95q0 -57 -43 -88t-122 -31q-87 0 -124.5 40t-37.5 116l97 -1q0 -71 62 -71q57 0 57 48q0 44 -67 44h-12v68h12q62 0 62 42q0 40 -50 40q-56 0 -56 -54h-98q0 66 42 102t120 36q70 0 109.5 -31t39.5 -82q0 -59 -65 -83z" />
    <glyph glyph-name="four.dnom" horiz-adv-x="415" 
d="M238 0v75h-235v2l151 311h188v-223h59v-90h-59v-75h-104zM151 165h87v188z" />
    <glyph glyph-name="five.dnom" horiz-adv-x="387" 
d="M194 -10q-83 0 -125 38.5t-42 107.5l104 -1q0 -62 61 -62q57 0 57 53q0 65 -122 65q-45 0 -83 -8l37 205h257l-14 -80h-155l-10 -56q25 5 54 5q73 0 110.5 -35.5t37.5 -93.5q0 -63 -44 -100.5t-123 -37.5z" />
    <glyph glyph-name="six.dnom" horiz-adv-x="426" 
d="M251 254q68 0 105.5 -34t37.5 -89q0 -62 -45 -101.5t-128 -39.5q-185 0 -185 202q0 206 186 206q136 0 162 -120h-102q-14 41 -59 41q-79 0 -79 -106q34 41 107 41zM219 70q30 0 45 15t15 39q0 54 -59 54q-29 0 -45 -14.5t-16 -40.5q0 -24 16 -38.5t44 -14.5z" />
    <glyph glyph-name="seven.dnom" horiz-adv-x="366" 
d="M50 0l135 292h-162v96h329l-180 -388h-122z" />
    <glyph glyph-name="eight.dnom" horiz-adv-x="393" 
d="M291 208q75 -17 75 -95q0 -60 -44 -91.5t-125 -31.5t-125.5 31.5t-44.5 91.5q0 77 75 95q-32 10 -49 33t-17 53q0 48 43.5 76t117.5 28q73 0 117 -28t44 -76q0 -30 -17.5 -53t-49.5 -33zM197 330q-54 0 -54 -44t54 -44t54 44t-54 44zM197 67q28 0 44 13.5t16 36.5
q0 48 -60 48t-60 -48q0 -50 60 -50z" />
    <glyph glyph-name="nine.dnom" horiz-adv-x="426" 
d="M205 398q185 0 185 -202q0 -206 -185 -206q-137 0 -163 120h102q14 -41 59 -41q79 0 79 106q-34 -41 -107 -41q-68 0 -105.5 34t-37.5 89q0 62 45 101.5t128 39.5zM206 210q29 0 45 14.5t16 40.5q0 24 -16 38.5t-44 14.5q-30 0 -45 -15t-15 -39q0 -54 59 -54z" />
    <glyph glyph-name="zero.numr" horiz-adv-x="438" 
d="M219 308q-177 0 -177 204t177 204q176 0 176 -204t-176 -204zM219 402q40 0 51.5 25.5t11.5 84.5t-11.5 84.5t-51.5 25.5t-51.5 -25.5t-11.5 -84.5q0 -60 11.5 -85t51.5 -25z" />
    <glyph glyph-name="one.numr" horiz-adv-x="283" 
d="M95 318v290h-72l17 98h166v-388h-111z" />
    <glyph glyph-name="two.numr" horiz-adv-x="379" 
d="M17 318v5l176 186q28 30 38 46t10 33q0 44 -50 44q-56 0 -56 -58h-106q0 66 40.5 104.5t121.5 38.5q77 0 117 -33.5t40 -93.5q0 -52 -44 -96q-32 -32 -90 -80h137v-96h-334z" />
    <glyph glyph-name="three.numr" horiz-adv-x="374" 
d="M273 521q74 -20 74 -95q0 -57 -43 -88t-122 -31q-87 0 -124.5 40t-37.5 116l97 -1q0 -71 62 -71q57 0 57 48q0 44 -67 44h-12v68h12q62 0 62 42q0 40 -50 40q-56 0 -56 -54h-98q0 66 42 102t120 36q70 0 109.5 -31t39.5 -82q0 -59 -65 -83z" />
    <glyph glyph-name="four.numr" horiz-adv-x="415" 
d="M238 318v75h-235v2l151 311h188v-223h59v-90h-59v-75h-104zM151 483h87v188z" />
    <glyph glyph-name="five.numr" horiz-adv-x="387" 
d="M194 308q-83 0 -125 38.5t-42 107.5l104 -1q0 -62 61 -62q57 0 57 53q0 65 -122 65q-45 0 -83 -8l37 205h257l-14 -80h-155l-10 -56q25 5 54 5q73 0 110.5 -35.5t37.5 -93.5q0 -63 -44 -100.5t-123 -37.5z" />
    <glyph glyph-name="six.numr" horiz-adv-x="426" 
d="M251 572q68 0 105.5 -34t37.5 -89q0 -62 -45 -101.5t-128 -39.5q-185 0 -185 202q0 206 186 206q136 0 162 -120h-102q-14 41 -59 41q-79 0 -79 -106q34 41 107 41zM219 388q30 0 45 15t15 39q0 54 -59 54q-29 0 -45 -14.5t-16 -40.5q0 -24 16 -38.5t44 -14.5z" />
    <glyph glyph-name="seven.numr" horiz-adv-x="366" 
d="M50 318l135 292h-162v96h329l-180 -388h-122z" />
    <glyph glyph-name="eight.numr" horiz-adv-x="393" 
d="M291 526q75 -17 75 -95q0 -60 -44 -91.5t-125 -31.5t-125.5 31.5t-44.5 91.5q0 77 75 95q-32 10 -49 33t-17 53q0 48 43.5 76t117.5 28q73 0 117 -28t44 -76q0 -30 -17.5 -53t-49.5 -33zM197 648q-54 0 -54 -44t54 -44t54 44t-54 44zM197 385q28 0 44 13.5t16 36.5
q0 48 -60 48t-60 -48q0 -50 60 -50z" />
    <glyph glyph-name="nine.numr" horiz-adv-x="426" 
d="M205 716q185 0 185 -202q0 -206 -185 -206q-137 0 -163 120h102q14 -41 59 -41q79 0 79 106q-34 -41 -107 -41q-68 0 -105.5 34t-37.5 89q0 62 45 101.5t128 39.5zM206 528q29 0 45 14.5t16 40.5q0 24 -16 38.5t-44 14.5q-30 0 -45 -15t-15 -39q0 -54 59 -54z" />
    <glyph glyph-name="zero.sc" horiz-adv-x="618" 
d="M308 -15q-71 0 -121 23.5t-77.5 67t-39.5 96.5t-12 122q0 308 250 308q252 0 252 -308q0 -309 -252 -309zM308 110q30 0 50.5 9.5t31 23t16 41t6.5 48.5t1 62q0 33 -1 53t-4 44t-9.5 37.5t-18 26t-29.5 18t-43 5.5q-30 0 -50 -9.5t-30.5 -23t-16 -40.5t-6.5 -49t-1 -62
q0 -41 1 -63t6.5 -49t16 -40t30.5 -22.5t50 -9.5z" />
    <glyph glyph-name="one.sc" horiz-adv-x="375" 
d="M131 0v459h-99l27 129h210v-588h-138z" />
    <glyph glyph-name="two.sc" horiz-adv-x="531" 
d="M23 0v3l247 285q39 45 54.5 71.5t15.5 54.5q0 31 -19.5 49.5t-60.5 18.5q-86 0 -86 -101h-135q0 104 55 162.5t170 58.5q109 0 165 -51.5t56 -138.5q0 -43 -15 -76.5t-51 -71.5q-85 -85 -147 -140h220v-124h-469z" />
    <glyph glyph-name="three.sc" horiz-adv-x="538" 
d="M379 309q114 -30 114 -144q0 -80 -57.5 -130t-172.5 -50q-130 0 -183 58.5t-53 172.5h132q0 -55 21 -85.5t76 -30.5q91 0 91 80q0 79 -108 79h-20v95h19q101 0 101 69q0 74 -84 74q-82 0 -88 -79h-130q0 90 58.5 137t169.5 47q104 0 158.5 -46t54.5 -120q0 -95 -99 -127z
" />
    <glyph glyph-name="four.sc" horiz-adv-x="590" 
d="M569 237v-118h-82v-119h-138v119h-345v3l228 466h255v-351h82zM205 237h144v303h-1z" />
    <glyph glyph-name="five.sc" horiz-adv-x="535" 
d="M272 -15q-126 0 -180.5 59.5t-54.5 166.5h135q0 -53 20.5 -81.5t71.5 -28.5q91 0 91 88q0 59 -42.5 84.5t-130.5 25.5q-62 0 -116 -8l50 297h361l-25 -122h-223l-17 -83q31 7 69 7q108 0 162.5 -55.5t54.5 -144.5q0 -93 -56.5 -149t-169.5 -56z" />
    <glyph glyph-name="six.sc" horiz-adv-x="604" 
d="M358 389q100 0 150.5 -52.5t50.5 -137.5q0 -96 -62.5 -155t-177.5 -59q-72 0 -124 23.5t-81 66.5t-42 95t-13 117q0 68 13.5 122.5t42.5 99t81 69t124 24.5q98 0 158.5 -45t72.5 -126h-134q-19 63 -96 63q-121 0 -123 -172q52 67 160 67zM317 99q50 0 74 26t24 68
q0 44 -24 70t-73 26q-51 0 -75.5 -27t-24.5 -69q0 -43 25 -68.5t74 -25.5z" />
    <glyph glyph-name="seven.sc" horiz-adv-x="510" 
d="M75 0l211 459h-254v129h458l-259 -588h-156z" />
    <glyph glyph-name="eight.sc" horiz-adv-x="576" 
d="M414 318q58 -15 87 -56t29 -94q0 -85 -62 -134t-181 -49t-180.5 49.5t-61.5 133.5q0 55 29.5 95.5t87.5 54.5q-48 12 -75.5 47.5t-27.5 80.5q0 73 60 114.5t168 41.5t168 -41t60 -115q0 -48 -26.5 -81.5t-74.5 -46.5zM287 508q-44 0 -65.5 -20t-21.5 -53q0 -36 22.5 -56
t64.5 -20q44 0 66.5 21t22.5 55t-22.5 53.5t-66.5 19.5zM287 91q48 0 73 23.5t25 60.5q0 35 -25.5 59.5t-72.5 24.5q-46 0 -71 -23.5t-25 -60.5q0 -40 24.5 -62t71.5 -22z" />
    <glyph glyph-name="nine.sc" horiz-adv-x="604" 
d="M285 602q72 0 124 -23.5t81 -66.5t42.5 -95t13.5 -117q0 -68 -13.5 -122.5t-43 -99t-81.5 -69t-124 -24.5q-98 0 -158.5 45t-72.5 126h134q18 -63 96 -63q123 0 123 172q-52 -67 -160 -67q-101 0 -151 52t-50 138q0 96 62.5 155t177.5 59zM286 298q51 0 75.5 27t24.5 69
t-25 68t-73 26q-50 0 -74.5 -26.5t-24.5 -67.5q0 -44 24 -70t73 -26z" />
    <glyph glyph-name="colon.case" horiz-adv-x="343" 
d="M156 441q-39 0 -63.5 24.5t-24.5 62.5t24.5 62.5t63.5 24.5t64 -24.5t25 -62.5t-25 -62.5t-64 -24.5zM156 101q-39 0 -63.5 24.5t-24.5 62.5t24.5 62.5t63.5 24.5t64 -24.5t25 -62.5t-25 -62.5t-64 -24.5z" />
    <glyph glyph-name="semicolon.case" horiz-adv-x="351" 
d="M195 441q-39 0 -63.5 24.5t-24.5 62.5t24.5 62.5t63.5 24.5t64 -24.5t25 -62.5t-25 -62.5t-64 -24.5zM49 -56l66 334h132l-97 -334h-101z" />
    <glyph glyph-name="exclamdown.case" horiz-adv-x="313" 
d="M156 719q40 0 64.5 -24.5t24.5 -62.5t-24.5 -62.5t-64.5 -24.5q-38 0 -63 24.5t-25 62.5t25 62.5t63 24.5zM213 484l20 -488h-153l21 488h112z" />
    <glyph glyph-name="questiondown.case" horiz-adv-x="525" 
d="M275 724q39 0 64 -24.5t25 -62.5t-25 -62.5t-64 -24.5t-63.5 24.5t-24.5 62.5t24.5 62.5t63.5 24.5zM348 489q-104 -171 -133 -227.5t-29 -93.5q0 -75 82 -75q51 0 68.5 25t17.5 72h136q0 -206 -228 -206q-107 0 -165.5 47t-58.5 132q0 46 28 104t127 222h155z" />
    <glyph glyph-name="periodcentered.case" horiz-adv-x="313" 
d="M156 289q-39 0 -63.5 24t-24.5 62t24.5 62.5t63.5 24.5t64 -24.5t25 -62.5t-25 -62t-64 -24z" />
    <glyph glyph-name="periodcentered.loclCAT.case" horiz-adv-x="82" 
d="M-48 322q-39 0 -63.5 24.5t-24.5 62.5t24.5 62.5t63.5 24.5t64 -24.5t25 -62.5t-25 -62.5t-64 -24.5z" />
    <glyph glyph-name="slash.case" horiz-adv-x="498" 
d="M30 -50l314 806h137l-314 -806h-137z" />
    <glyph glyph-name="periodcentered.loclCAT" horiz-adv-x="177" 
d="M88 249q-39 0 -63.5 24t-24.5 62t24.5 62.5t63.5 24.5t64 -24.5t25 -62.5t-25 -62t-64 -24z" />
    <glyph glyph-name="parenleft.case" horiz-adv-x="416" 
d="M245 -139q-68 119 -102 234t-34 258t34 258.5t102 234.5h125q-139 -236 -139 -493q0 -258 139 -492h-125z" />
    <glyph glyph-name="parenright.case" horiz-adv-x="416" 
d="M170 -139h-124q138 233 138 492t-138 493h124q69 -119 103 -234.5t34 -258.5q0 -142 -34 -257.5t-103 -234.5z" />
    <glyph glyph-name="braceleft.case" horiz-adv-x="389" 
d="M256 477q0 -58 -20 -87t-66 -37q46 -8 66 -36t20 -86v-178q0 -49 19.5 -70.5t73.5 -21.5h14v-100h-61q-78 0 -118 44.5t-40 118.5v179q1 53 -19 73t-75 20v114q55 0 75 20.5t19 72.5v179q0 75 40 119.5t118 44.5h61v-100h-14q-54 0 -73.5 -21.5t-19.5 -70.5v-177z" />
    <glyph glyph-name="braceright.case" horiz-adv-x="389" 
d="M245 503q0 -53 19.5 -73t74.5 -20v-114q-54 0 -74 -20t-20 -73v-179q0 -74 -40 -118.5t-118 -44.5h-61v100h14q54 0 73.5 21.5t19.5 70.5v178q0 58 20 86t67 36q-46 7 -66.5 36t-20.5 88v177q0 49 -19.5 70.5t-73.5 21.5h-14v100h61q78 0 118 -44.5t40 -119.5v-179z" />
    <glyph glyph-name="bracketleft.case" horiz-adv-x="390" 
d="M137 -139v985h227v-105h-109v-775h109v-105h-227z" />
    <glyph glyph-name="bracketright.case" horiz-adv-x="390" 
d="M253 -139h-227v105h109v775h-109v105h227v-985z" />
    <glyph glyph-name="hyphen.case" horiz-adv-x="404" 
d="M55 311v117h293v-117h-293z" />
    <glyph glyph-name="uni00AD.case" horiz-adv-x="404" 
d="M55 311v117h293v-117h-293z" />
    <glyph glyph-name="endash.case" horiz-adv-x="499" 
d="M55 312v118h389v-118h-389z" />
    <glyph glyph-name="emdash.case" horiz-adv-x="968" 
d="M55 312v118h857v-118h-857z" />
    <glyph glyph-name="guillemotleft.case" horiz-adv-x="570" 
d="M166 201l-145 164l145 164h143l-145 -164l145 -164h-143zM408 201l-145 164l145 164h143l-145 -164l145 -164h-143z" />
    <glyph glyph-name="guillemotright.case" horiz-adv-x="570" 
d="M161 201h-143l146 164l-146 164h143l145 -164zM403 201h-143l146 164l-146 164h143l145 -164z" />
    <glyph glyph-name="guilsinglleft.case" horiz-adv-x="328" 
d="M166 201l-145 164l145 164h143l-145 -164l145 -164h-143z" />
    <glyph glyph-name="guilsinglright.case" horiz-adv-x="328" 
d="M161 201h-143l146 164l-146 164h143l145 -164z" />
    <glyph glyph-name="periodcentered.loclCAT.sc" horiz-adv-x="106" 
d="M-13 277q-39 0 -63.5 24t-24.5 62t24.5 62.5t63.5 24.5t64 -24.5t25 -62.5t-25 -62t-64 -24z" />
    <glyph glyph-name="slash.sc" horiz-adv-x="497" 
d="M46 -50l268 688h137l-267 -688h-138z" />
    <glyph glyph-name="cent.ss06" horiz-adv-x="560" 
d="M285 209q40 0 62.5 23.5t24.5 60.5h151q-3 -82 -53.5 -133t-133.5 -63v-97h-100v96q-99 15 -149 85t-50 172q0 103 50.5 173.5t148.5 84.5v95h100v-95q83 -12 133 -63.5t54 -132.5h-151q-2 40 -25 62t-62 22q-102 0 -102 -146q0 -144 102 -144z" />
    <glyph glyph-name="dollar.ss06" horiz-adv-x="626" 
d="M590 209q0 -94 -57 -152.5t-165 -70.5v-98h-108v98q-114 12 -169.5 75t-55.5 159h162q0 -59 26.5 -91.5t91.5 -32.5q57 0 86 25t29 67q0 47 -39.5 70t-153.5 59q-93 29 -139.5 73.5t-46.5 121.5q0 84 54 140.5t154 67.5v97h107v-98q96 -14 144.5 -73t48.5 -150h-152
q0 118 -105 118q-49 0 -75.5 -22.5t-26.5 -59.5q0 -16 4 -28t17 -22.5t23.5 -17t37.5 -16t43 -14.5t56 -17q110 -33 159.5 -77t49.5 -131z" />
    <glyph glyph-name="paragraph.ss07" horiz-adv-x="720" 
d="M300 -201v478h-58q-220 0 -220 216q0 103 53 158t176 55h448v-113h-67v-794h-123v794h-88v-794h-121zM249 389h51v206h-51q-60 0 -83 -25t-23 -77q0 -53 23.5 -78.5t82.5 -25.5z" />
    <glyph glyph-name="caroncomb.alt" 
d="M-119 535l25 171h116l-39 -171h-102z" />
    <glyph glyph-name="uni0335.Eth" 
d="M-354 311v94h354v-94h-354z" />
    <glyph glyph-name="uni0335.Tbar" 
d="M-428 281v90h378v-90h-378z" />
    <glyph glyph-name="caron.alt" horiz-adv-x="241" 
d="M50 535l25 171h116l-39 -171h-102z" />
    <glyph glyph-name="uni0308.case" 
d="M-339 777q-31 0 -52 20t-21 49q0 31 20.5 51t52.5 20q30 0 51 -20.5t21 -50.5q0 -29 -21 -49t-51 -20zM-122 777q-31 0 -51.5 20t-20.5 49q0 31 20.5 51t51.5 20t52 -20t21 -51q0 -29 -21 -49t-52 -20z" />
    <glyph glyph-name="uni0307.case" 
d="M-125 777q-34 0 -55.5 20.5t-21.5 52.5t21.5 52.5t55.5 20.5q32 0 53.5 -21t21.5 -52t-21.5 -52t-53.5 -21z" />
    <glyph glyph-name="gravecomb.case" 
d="M-50 774h-131l-113 137h143z" />
    <glyph glyph-name="acutecomb.case" 
d="M-294 774l100 137h144l-114 -137h-130z" />
    <glyph glyph-name="uni030B.case" 
d="M-438 774l98 137h119l-120 -137h-97zM-267 774l98 137h119l-119 -137h-98z" />
    <glyph glyph-name="uni0302.case" 
d="M-423 774l108 137h158l107 -137h-126l-61 75l-60 -75h-126z" />
    <glyph glyph-name="uni030C.case" 
d="M-423 911h126l60 -75l61 75h126l-107 -137h-158z" />
    <glyph glyph-name="uni0306.case" 
d="M-218 767q-161 0 -170 144h97q7 -67 73 -67q34 0 51.5 15.5t25.5 51.5h91q-8 -144 -168 -144z" />
    <glyph glyph-name="uni030A.case" 
d="M-180 740q-58 0 -93.5 33t-35.5 86q0 54 35 86.5t94 32.5t94.5 -33t35.5 -86t-36 -86t-94 -33zM-180 809q24 0 38 13.5t14 36.5t-14 37t-38 14q-23 0 -37 -14t-14 -37t14 -36.5t37 -13.5z" />
    <glyph glyph-name="tildecomb.case" 
d="M-154 770q-40 0 -86 28q-49 28 -69 28q-36 0 -43 -55h-75q6 142 107 142q43 0 89 -32q33 -24 59 -24q20 0 29.5 13.5t15.5 41.5h77q-5 -142 -104 -142z" />
    <glyph glyph-name="uni0304.case" 
d="M-358 798v90h308v-90h-308z" />
    <glyph glyph-name="uni0337.case" 
d="M-203 416l203 136v-112l-203 -135v24l-131 -86v110l131 87v-24z" />
    <glyph glyph-name="uni0338.case" 
d="M-786 0l166 180l6 -1l370 416l7 -1l103 112h94l-165 -179h-7l-370 -416l-6 1l-104 -112h-94z" />
    <glyph glyph-name="uni0308.narrow.case" 
d="M-285 776q-29 0 -48.5 19.5t-19.5 48.5q0 30 19.5 49.5t48.5 19.5t48.5 -19.5t19.5 -49.5q0 -29 -19.5 -48.5t-48.5 -19.5zM-119 776q-29 0 -48 19t-19 48q0 30 19 50t48 20t49 -20t20 -50q0 -28 -20 -47.5t-49 -19.5z" />
    <glyph glyph-name="uni0302.narrow.case" 
d="M-372 774l83 137h154l85 -137h-116l-45 75l-45 -75h-116z" />
    <glyph glyph-name="uni0306.narrow.case" 
d="M-196 767q-147 0 -147 144h94q2 -36 14 -51t39 -15q26 0 38 15t13 51h95q0 -144 -146 -144z" />
    <glyph glyph-name="tildecomb.narrow.case" 
d="M-142 771q-35 0 -65 28q-2 2 -6.5 5.5t-6.5 5t-5.5 4.5t-6 4.5t-5.5 3.5t-6 3t-6 1.5t-6 0.5q-28 0 -31 -54h-70q4 139 93 139q35 0 68 -31q24 -24 39 -24q17 0 23.5 12t10.5 42h72q-3 -72 -25 -106t-67 -34z" />
    <glyph glyph-name="uni0304.narrow.case" 
d="M-307 797v90h257v-90h-257z" />
    <glyph glyph-name="uni0335.dh" 
d="M-351 288v82h351v-82h-351z" />
    <glyph glyph-name="uni0307.i" 
d="M-128 576q-34 0 -56 21.5t-22 53.5t22 54t56 22q33 0 55.5 -22t22.5 -54t-22.5 -53.5t-55.5 -21.5z" />
    <glyph glyph-name="uni0308.narrow" 
d="M-261 578q-28 0 -45.5 18.5t-17.5 48.5q0 31 17.5 49.5t45.5 18.5t45 -18.5t17 -49.5q0 -30 -17 -48.5t-45 -18.5zM-112 578q-28 0 -45.5 18.5t-17.5 48.5q0 31 17.5 49.5t45.5 18.5t45 -18.5t17 -49.5q0 -30 -17 -48.5t-45 -18.5z" />
    <glyph glyph-name="gravecomb.narrow" 
d="M-50 571h-118l-91 156h135z" />
    <glyph glyph-name="acutecomb.narrow" 
d="M-259 571l73 156h136l-91 -156h-118z" />
    <glyph glyph-name="uni0302.narrow" 
d="M-339 570l78 158h133l78 -158h-101l-43 92l-44 -92h-101z" />
    <glyph glyph-name="uni030C.narrow" 
d="M-339 695h101l44 -91l43 91h101l-78 -157h-133z" />
    <glyph glyph-name="uni0306.narrow" 
d="M-188 563q-139 0 -139 165h88q0 -48 12 -67t39 -19q26 0 38 19t12 67h88q-2 -165 -138 -165z" />
    <glyph glyph-name="tildecomb.narrow" 
d="M-135 569q-40 0 -69 40q-21 28 -32 28q-24 0 -26 -66h-75q2 84 20 121.5t63 37.5q41 0 71 -41q18 -27 31 -27q14 0 19.5 15.5t6.5 50.5h76q-2 -84 -20.5 -121.5t-64.5 -37.5z" />
    <glyph glyph-name="uni0304.narrow" 
d="M-294 599v89h244v-89h-244z" />
    <glyph glyph-name="uni0328.narrow" 
d="M-114 -213q-49 0 -78 22t-29 62q0 73 77 133l89 -4q-55 -60 -55 -104q0 -27 29 -27q16 0 31 7v-78q-26 -11 -64 -11z" />
    <glyph glyph-name="uni0338.sc" horiz-adv-x="689" 
d="M40 0l150 167v-4l283 331v2l85 92h91l-150 -167v4l-284 -329l1 -4l-84 -92h-92z" />
    <glyph glyph-name="uni0338.ss04.sc" horiz-adv-x="674" 
d="M500 420l-63 115l96 133l101 -69zM142 -79l-102 69l135 180l62 -115z" />
    <glyph glyph-name="uni0338.ss04" 
d="M-155 344l-53 118l68 107l100 -57zM-430 -74l-101 58l116 167l52 -117z" />
    <glyph glyph-name="uni0338.case.ss04" 
d="M-194 517l-72 112l123 158l103 -80zM-637 -82l-104 80l156 192l71 -113z" />
    </font>
</defs>
</svg>
